<?xml version="1.0" encoding="UTF-8"?> <svg xmlns="http://www.w3.org/2000/svg" width="64" height="64" viewBox="0 0 64 64" fill="none"><path d="M32.0141 31.786C36.2903 31.786 39.7646 28.3054 39.7646 24.0356V21.9458C39.7646 17.6696 36.284 14.1953 32.0141 14.1953C27.7443 14.1953 24.2637 17.6759 24.2637 21.9458V24.0356C24.2574 28.3054 27.7379 31.786 32.0141 31.786ZM26.1658 21.9462C26.1658 18.7179 28.7921 16.0979 32.0141 16.0979C35.2357 16.0979 37.8625 18.7242 37.8625 21.9462V24.036C37.8625 27.2643 35.2362 29.8844 32.0141 29.8844C28.7925 29.8844 26.1658 27.2581 26.1658 24.036V21.9462Z" fill="white"></path><path d="M48.246 29.9411C52.5222 29.9411 55.9965 26.4605 55.9965 22.1906L55.996 20.1013C55.996 15.8251 52.5154 12.3508 48.2456 12.3508C43.9694 12.3508 40.4951 15.8314 40.4951 20.1013V22.1911C40.4956 26.4673 43.9762 29.9411 48.246 29.9411H48.246ZM42.3977 20.1013C42.3977 16.873 45.024 14.2529 48.246 14.2529C51.4743 14.2529 54.0944 16.8792 54.0944 20.1013V22.1911C54.0944 25.4194 51.4681 28.0394 48.246 28.0394C45.0177 28.0394 42.3977 25.4131 42.3977 22.1911V20.1013Z" fill="white"></path><path d="M61.9607 34.1011C60.2333 32.1927 57.6589 31.0474 55.0646 31.0474L41.434 31.0478C39.4417 31.0478 37.4877 31.7012 35.8767 32.8917H28.1525C26.5415 31.7012 24.588 31.0478 22.5953 31.0478H8.9647C6.37721 31.0478 3.8022 32.1864 2.07478 34.0947C0.541444 35.7897 -0.176533 37.9115 0.0368387 40.0721C0.302184 42.6596 1.14288 46.3411 1.92587 49.6014C1.93219 49.6402 1.9516 49.6727 1.96468 49.7115C1.971 49.7246 1.971 49.7372 1.97777 49.7503C2.00349 49.8022 2.02966 49.8537 2.0617 49.9056C2.06802 49.9119 2.07479 49.925 2.08111 49.9313C2.10683 49.9701 2.13932 50.0026 2.17181 50.0346C2.1849 50.0477 2.19753 50.0603 2.21062 50.0734C2.23634 50.0992 2.26883 50.1253 2.30132 50.1447C2.32073 50.1578 2.34013 50.1705 2.35954 50.1835C2.39203 50.2029 2.41775 50.216 2.45024 50.2354C2.46965 50.2418 2.48905 50.2548 2.50846 50.2612C2.54726 50.2742 2.57976 50.2869 2.61856 50.2937C2.63797 50.3 2.65737 50.3067 2.67046 50.3067C2.72867 50.3198 2.78688 50.3261 2.84509 50.3261H2.85141H17.8856C17.9763 50.7011 18.0665 51.0766 18.1509 51.439C18.1573 51.4778 18.1767 51.5103 18.1897 51.5491C18.1961 51.5621 18.1961 51.5748 18.2028 51.5879C18.2286 51.6398 18.2547 51.6912 18.2868 51.7431C18.2931 51.7494 18.2999 51.7625 18.3062 51.7688C18.3319 51.8076 18.3644 51.8401 18.3969 51.8722C18.41 51.8853 18.4226 51.8979 18.4357 51.911C18.4614 51.9367 18.4939 51.9629 18.5264 51.9823C18.5458 51.9954 18.5652 52.008 18.5846 52.0211C18.6171 52.0405 18.6428 52.0536 18.6753 52.073C18.6947 52.0793 18.7141 52.0924 18.7335 52.0987C18.7723 52.1118 18.8048 52.1244 18.8436 52.1312C18.863 52.1375 18.8824 52.1443 18.8955 52.1443C18.9537 52.1574 19.0119 52.1637 19.0702 52.1637H19.0765H44.9086C44.9343 52.1637 44.9537 52.1574 44.9799 52.1574C45.0124 52.1574 45.0512 52.1511 45.0832 52.1443C45.1157 52.138 45.1415 52.1312 45.174 52.1186C45.2064 52.1122 45.2322 52.1055 45.2579 52.0928C45.2904 52.0798 45.3161 52.0671 45.3418 52.0477C45.3675 52.0346 45.3937 52.022 45.4194 52.0089C45.4452 51.9895 45.4713 51.9701 45.4907 51.9507C45.5165 51.9313 45.5426 51.9119 45.562 51.8925C45.5814 51.8731 45.6008 51.8474 45.6202 51.8279C45.6397 51.8022 45.6654 51.7828 45.6785 51.7566C45.6979 51.7309 45.711 51.7048 45.7236 51.679C45.7367 51.6533 45.7561 51.6271 45.7687 51.6014C45.7818 51.5689 45.7944 51.5369 45.8012 51.4981C45.8075 51.4787 45.8206 51.4593 45.8206 51.4335C45.9113 51.0649 45.9952 50.6962 46.086 50.3207H61.1201H61.1264C61.1847 50.3207 61.2429 50.3144 61.3011 50.3013C61.3205 50.295 61.3399 50.295 61.353 50.2882C61.3918 50.2819 61.4306 50.2688 61.4631 50.2558C61.4825 50.2494 61.5019 50.2363 61.5276 50.23C61.5601 50.2169 61.5921 50.1975 61.6183 50.1781C61.6377 50.165 61.6571 50.1524 61.6765 50.1393C61.709 50.1199 61.7347 50.0942 61.7605 50.068C61.7736 50.0549 61.793 50.0423 61.8056 50.0292C61.8381 49.9967 61.8638 49.9647 61.8895 49.9259C61.8959 49.9128 61.9089 49.9065 61.9153 49.8934C61.9477 49.8483 61.9735 49.7964 61.9992 49.7381C62.0055 49.7251 62.0055 49.7124 62.0123 49.6993C62.0254 49.6605 62.038 49.628 62.0511 49.5892C62.8467 46.2639 63.6942 42.5378 63.9464 40.06C64.2113 37.9183 63.4865 35.796 61.9599 34.101L61.9607 34.1011ZM45.8591 41.722C45.6587 43.6499 45.0698 46.4319 44.4358 49.1615C44.4295 49.1746 44.4295 49.194 44.4228 49.2066C44.3388 49.5622 44.2544 49.9183 44.1705 50.2739H40.7869V43.1909C40.7869 42.667 40.3601 42.2401 39.8361 42.2401C39.3122 42.2401 38.8853 42.667 38.8853 43.1909V50.2686L25.1381 50.2681V43.1909C25.1381 42.667 24.7112 42.2401 24.1873 42.2401C23.6633 42.2401 23.2364 42.667 23.2364 43.1909V50.2686H19.8465C19.1606 47.3963 18.4101 44.0128 18.1773 41.7163C18.0158 40.0989 18.5654 38.4947 19.7301 37.2073C21.1015 35.6934 23.1456 34.7877 25.2098 34.7877H38.8404C40.904 34.7877 42.955 35.6933 44.3201 37.2136C45.4772 38.5069 46.0272 40.1048 45.8589 41.7222L45.8591 41.722ZM8.89977 48.4309V41.3533C8.89977 40.8294 8.47288 40.4025 7.94896 40.4025C7.42504 40.4025 6.99815 40.8294 6.99815 41.3533V48.4309H3.60777C2.92231 45.5582 2.16512 42.1751 1.93223 39.8782C1.77068 38.2609 2.32032 36.6566 3.48497 35.3692C4.85635 33.8553 6.90053 32.9496 8.9647 32.9496H22.5953C22.9445 32.9496 23.3006 32.9753 23.6431 33.0272C21.6052 33.3828 19.6838 34.4116 18.3123 35.9383C16.7789 37.6332 16.061 39.755 16.2743 41.9157C16.4553 43.7207 16.9278 46.0691 17.458 48.4301L8.89977 48.4309ZM62.097 39.8782C61.8705 42.065 61.1394 45.3641 60.4151 48.4305H57.0316V41.3533C57.0316 40.8294 56.6047 40.4025 56.0808 40.4025C55.5568 40.4025 55.1299 40.8294 55.1299 41.3533V48.4309H46.5578C47.1011 46.0244 47.5736 43.663 47.7545 41.9165C47.9742 39.7558 47.2563 37.634 45.7229 35.9391C44.3447 34.4124 42.4237 33.3836 40.3858 33.028C40.7351 32.9761 41.0844 32.9504 41.4337 32.9504H55.0642C57.1278 32.9504 59.1788 33.8561 60.544 35.3764C61.7087 36.663 62.2588 38.2676 62.0967 39.8782L62.097 39.8782Z" fill="white"></path><path d="M15.7773 29.9411C20.0535 29.9411 23.5278 26.4605 23.5278 22.1906V20.1013C23.5278 15.8251 20.0472 12.3508 15.7773 12.3508C11.5079 12.3513 8.02734 15.8251 8.02734 20.1013V22.1911C8.02734 26.4673 11.5079 29.9411 15.7773 29.9411ZM9.92943 20.1013C9.92943 16.873 12.5557 14.2529 15.7778 14.2529C18.9994 14.2529 21.6261 16.8792 21.6261 20.1013V22.1911C21.6261 25.4194 18.9998 28.0394 15.7778 28.0394C12.5562 28.0394 9.92943 25.4131 9.92943 22.1911V20.1013Z" fill="white"></path></svg> 