<svg class="res__icon" xmlns="http://www.w3.org/2000/svg" width="50" height="37" viewBox="0 0 50 37" fill="none"> <path d="M49.662 0.255993C48.786 3.95466 47.8613 7.94533 46.888 12.228C45.9147 16.5107 45.0387 20.696 44.26 24.784C43.4813 28.872 42.8487 32.6193 42.362 36.026H28.492L27.47 34.42C28.346 31.0133 29.4653 27.3633 30.828 23.47C32.1907 19.4793 33.6993 15.4887 35.354 11.498C37.0087 7.50733 38.6147 3.75999 40.172 0.255993H49.662ZM22.652 0.255993C21.776 3.95466 20.8513 7.94533 19.878 12.228C18.9047 16.5107 18.0287 20.696 17.25 24.784C16.4713 28.872 15.8387 32.6193 15.352 36.026H1.628L0.752 34.42C1.628 31.0133 2.74733 27.3633 4.11 23.47C5.47267 19.4793 6.93267 15.4887 8.49 11.498C10.1447 7.50733 11.7507 3.75999 13.308 0.255993H22.652Z" fill="#106BD2"></path> </svg>
