<?xml version="1.0" encoding="UTF-8"?> <svg xmlns="http://www.w3.org/2000/svg" width="56" height="56" viewBox="0 0 56 56" fill="none"><path d="M11.0225 32.1111C13.066 32.1111 14.7268 30.4503 14.7268 28.4067C14.7268 27.6551 14.5017 26.9528 14.1146 26.3679L20.0107 20.6787C20.6182 21.1107 21.3563 21.3672 22.1575 21.3672C23.6249 21.3672 24.8939 20.512 25.4926 19.2744L29.5972 20.3906C29.5881 20.4895 29.5837 20.5887 29.5837 20.6876C29.5837 22.7311 31.2446 24.3919 33.2881 24.3919C35.3317 24.3919 36.9925 22.7311 36.9925 20.6876C36.9925 19.9856 36.7944 19.3237 36.4525 18.7611L42.1639 13.6392C42.7896 14.1208 43.5726 14.4087 44.4187 14.4087C46.4623 14.4087 48.1231 12.7479 48.1231 10.7044C48.1231 8.66081 46.4623 7 44.4187 7C42.3752 7 40.7144 8.66081 40.7144 10.7044C40.7144 11.4064 40.9125 12.0682 41.2544 12.6308L35.5432 17.7445C34.9175 17.2629 34.1345 16.975 33.2883 16.975C31.8209 16.975 30.5519 17.8302 29.9532 19.0678L25.8486 17.9517C25.8577 17.8528 25.8621 17.7536 25.8621 17.6547C25.8621 15.6111 24.2013 13.9503 22.1577 13.9503C20.1142 13.9503 18.4534 15.6111 18.4534 17.6547C18.4534 18.4063 18.6785 19.1086 19.0656 19.6935L13.1695 25.3826C12.562 24.9506 11.824 24.6941 11.0227 24.6941C8.97917 24.6941 7.31836 26.355 7.31836 28.3985C7.31836 30.4414 8.97917 32.111 11.0224 32.111L11.0225 32.1111ZM44.4188 8.35541C45.7104 8.35541 46.7638 9.40869 46.7638 10.7004C46.7638 11.9919 45.7105 13.0453 44.4188 13.0453C43.1272 13.0453 42.0739 11.992 42.0739 10.7004C42.0739 9.40845 43.1271 8.35541 44.4188 8.35541ZM33.288 18.3385C34.5796 18.3385 35.633 19.3917 35.633 20.6834C35.633 21.975 34.5797 23.0283 33.288 23.0283C31.9965 23.0283 30.9431 21.9751 30.9431 20.6834C30.9431 19.3918 31.9964 18.3385 33.288 18.3385ZM22.1532 15.3138C23.4448 15.3138 24.4982 16.3671 24.4982 17.6587C24.4982 18.9503 23.4449 20.0037 22.1532 20.0037C20.8617 20.0037 19.8083 18.9504 19.8083 17.6587C19.8127 16.3672 20.8616 15.3138 22.1532 15.3138V15.3138ZM11.0225 26.062C12.3141 26.062 13.3674 27.1153 13.3674 28.4069C13.3674 29.6986 12.3141 30.7519 11.0225 30.7519C9.7309 30.7519 8.67754 29.6986 8.67754 28.4069C8.67754 27.115 9.73082 26.062 11.0225 26.062Z" fill="white"></path><path d="M49.3111 47.2878H48.1275L48.1272 17.6585C48.1272 17.2805 47.8211 16.9788 47.4475 16.9788L41.3941 16.9791C41.0161 16.9791 40.7144 17.2852 40.7144 17.6588V47.2881L36.9922 47.2878V28.6631C36.9922 28.2851 36.6861 27.9834 36.3125 27.9834H30.2635C29.8855 27.9834 29.5838 28.2895 29.5838 28.6631V47.2878H25.8616V24.3511C25.8616 23.9731 25.5555 23.6714 25.1819 23.6714H19.1283C18.7503 23.6714 18.4486 23.9775 18.4486 24.3511V47.2878H14.7263L14.7267 34.519C14.7267 34.141 14.4206 33.8393 14.047 33.8393H7.99765C7.61965 33.8393 7.31794 34.1454 7.31794 34.519V47.2878H5.67971C5.30171 47.2878 5 47.5939 5 47.9675C5 48.3411 5.30611 48.6472 5.67971 48.6472H49.3203C49.6983 48.6472 50 48.3411 50 47.9675C49.9994 47.5939 49.6889 47.2878 49.3109 47.2878H49.3111ZM8.67728 47.2878V35.199H13.3627V47.2878H8.67728ZM19.8121 47.2878V25.0311H24.4975V47.2878H19.8121ZM30.9428 47.2878V29.3431H35.6283V47.2878H30.9428ZM42.0784 47.2878V18.3385H46.7639V47.2878H42.0784Z" fill="white"></path></svg> 