<?xml version="1.0" encoding="UTF-8"?> <svg xmlns="http://www.w3.org/2000/svg" width="22" height="23" viewBox="0 0 22 23" fill="none"><path d="M15.1875 18.5312H5.03125M15.1875 18.5312H15.9688C16.8281 18.5312 17.5313 19.2344 17.5313 20.0938V21.6562H3.46875V20.0938C3.46875 19.2344 4.17188 18.5312 5.03125 18.5312M15.1875 18.5312C15.1875 16.5 15.9688 14.625 17.375 13.2188L17.5313 13.0625C18 9.3125 16.125 5.5625 12.8438 3.6875C12.375 2.67188 11.4375 1.89062 10.4219 1.57812L9.71875 1.34375V3.6875L8.15625 4.46875V5.25L4.17188 7.90625C3.70313 8.21875 3.46875 8.6875 3.46875 9.23438V10.7188L4.32813 10.5625C6.35938 10.1719 8.46875 9.9375 10.5 9.9375L10.1094 10.3281C7.375 12.2812 5.8125 15.4062 5.03125 18.5312" stroke="#191919" stroke-width="2" stroke-miterlimit="10" stroke-linecap="round" stroke-linejoin="round"></path></svg> 