<?xml version="1.0" encoding="UTF-8"?> <svg xmlns="http://www.w3.org/2000/svg" width="20" height="20" viewBox="0 0 20 20" fill="none"><g clip-path="url(#clip0_3841_59185)"><path d="M9.99998 2.5C6.16665 2.5 2.99998 5.33333 2.58331 9.08333L4.24998 9.25C4.58331 6.41667 7.08331 4.16667 9.99998 4.16667C12.9166 4.16667 15.4166 6.41667 15.75 9.33333L17.4166 9.16667C17 5.33333 13.8333 2.5 9.99998 2.5Z" fill="#191919"></path><path d="M10 11.6667L8.25 7.16675L6.75 7.83341L8.41667 12.3334C7.83333 12.7501 7.5 13.4167 7.5 14.1667C7.5 15.5834 8.58333 16.6667 10 16.6667C11.4167 16.6667 12.5 15.5834 12.5 14.1667C12.5 12.7501 11.4167 11.6667 10 11.6667ZM10.8333 15.0001H9.16667V13.3334H10.8333V15.0001Z" fill="#191919"></path><path d="M10 0C4.5 0 0 4.5 0 10C0 15.5 4.5 20 10 20C15.5 20 20 15.5 20 10C20 4.5 15.5 0 10 0ZM10 18.3333C5.41667 18.3333 1.66667 14.5833 1.66667 10C1.66667 5.41667 5.41667 1.66667 10 1.66667C14.5833 1.66667 18.3333 5.41667 18.3333 10C18.3333 14.5833 14.5833 18.3333 10 18.3333Z" fill="#191919"></path></g><defs><clipPath id="clip0_3841_59185"><rect width="20" height="20" fill="white"></rect></clipPath></defs></svg> 