<?xml version="1.0" encoding="UTF-8"?> <svg xmlns="http://www.w3.org/2000/svg" width="20" height="18" viewBox="0 0 20 18" fill="none"><path d="M1 0H19C19.2652 0 19.5196 0.105357 19.7071 0.292893C19.8946 0.48043 20 0.734784 20 1V17C20 17.2652 19.8946 17.5196 19.7071 17.7071C19.5196 17.8946 19.2652 18 19 18H1C0.734784 18 0.48043 17.8946 0.292893 17.7071C0.105357 17.5196 0 17.2652 0 17V1C0 0.734784 0.105357 0.48043 0.292893 0.292893C0.48043 0.105357 0.734784 0 1 0ZM2 2V16H18V2H2ZM14.9 10C14.6491 11.2114 13.9582 12.2867 12.9607 13.0185C11.9633 13.7502 10.7301 14.0864 9.49928 13.9621C8.26848 13.8378 7.12741 13.2618 6.29645 12.3453C5.4655 11.4289 5.00361 10.2371 5 9C5.00014 7.84745 5.3983 6.7303 6.12714 5.83747C6.85599 4.94463 7.87081 4.33088 9 4.1V10H14.9ZM14.9 8H11V4.1C11.9606 4.29669 12.8422 4.77114 13.5355 5.46446C14.2289 6.15778 14.7033 7.03943 14.9 8Z" fill="#191919"></path></svg> 