<?xml version="1.0" encoding="UTF-8"?> <svg xmlns="http://www.w3.org/2000/svg" width="80" height="25" viewBox="0 0 80 25" fill="none"><mask id="mask0_5063_65223" style="mask-type:luminance" maskUnits="userSpaceOnUse" x="5" y="6" width="70" height="14"><path d="M75 6H5V20H75V6Z" fill="white"></path></mask><g mask="url(#mask0_5063_65223)"><path d="M10.4831 8.2091C9.66229 8.2091 9.41604 8.5822 9.41604 9.41319V10.7869H11.6159L11.4024 13.0255H9.41604V19.7922H6.77298V13.0255H5V10.8038H6.77298V9.46407C6.77298 7.19154 7.65948 6.00439 10.1055 6.00439C10.6144 6.00439 11.1398 6.03831 11.6487 6.10615V8.2091" fill="black"></path><path d="M11.7965 15.0097C11.7965 12.4998 12.9456 10.6003 15.3753 10.6003C16.6886 10.6003 17.493 11.2957 17.887 12.1775V10.8038H20.4152V19.8092H17.8706V18.4525C17.5094 19.3174 16.6722 19.9957 15.3588 19.9957C12.9456 19.9957 11.78 18.1133 11.78 15.5863L11.7965 15.0097ZM14.4395 15.6203C14.4395 16.96 14.9156 17.8589 16.1468 17.8589C17.2303 17.8589 17.7721 17.0448 17.7721 15.7559V14.8401C17.7721 13.5512 17.214 12.7372 16.1468 12.7372C14.9156 12.7372 14.4395 13.6191 14.4395 14.9758V15.6203Z" fill="black"></path><path d="M25.8982 10.6003C26.916 10.6003 27.901 10.8208 28.4263 11.2109L27.8353 13.1442C27.2936 12.8729 26.6861 12.7372 26.0788 12.7372C24.6505 12.7372 24.0267 13.5852 24.0267 15.0437V15.5694C24.0267 17.0279 24.6505 17.8759 26.0788 17.8759C26.6861 17.8759 27.2936 17.7232 27.8353 17.4519L28.4263 19.3852C27.901 19.7583 26.9324 19.9957 25.8982 19.9957C22.7954 19.9957 21.4001 18.2828 21.4001 15.5185V15.0945C21.4001 12.3302 22.7954 10.6003 25.8982 10.6003Z" fill="black"></path><path d="M28.7711 15.6372V14.8401C28.7711 12.2793 30.183 10.6003 33.0558 10.6003C35.7646 10.6003 36.963 12.2963 36.963 14.8062V16.2478H31.4142C31.4634 17.4858 32.0052 18.0285 33.4662 18.0285C34.4185 18.0285 35.3706 17.8419 36.2735 17.4858L36.7496 19.3513C36.0601 19.7244 34.6318 20.0126 33.3678 20.0126C30.0188 19.9957 28.7711 18.2828 28.7711 15.6372ZM31.4142 14.4501H34.5991V14.2296C34.5991 13.246 34.2214 12.4659 33.0558 12.4659C31.8738 12.4659 31.4142 13.246 31.4142 14.4501Z" fill="black"></path><path d="M46.7472 15.5861C46.7472 18.0961 45.5816 19.9955 43.152 19.9955C41.8387 19.9955 40.9193 19.3171 40.5581 18.4523V19.809H38.0629V6.27551L40.706 6.03809V12.0586C41.0835 11.2615 41.9371 10.6171 43.1683 10.6171C45.5816 10.6171 46.7636 12.4995 46.7636 15.0265L46.7472 15.5861ZM44.1041 14.9586C44.1041 13.6867 43.628 12.737 42.364 12.737C41.2804 12.737 40.706 13.5341 40.706 14.823V15.7727C40.706 17.0616 41.2969 17.8587 42.364 17.8587C43.628 17.8587 44.1041 16.9089 44.1041 15.637V14.9586Z" fill="black"></path><path d="M47.6173 15.5185V15.0606C47.6173 12.4659 49.0455 10.6003 51.9512 10.6003C54.8569 10.6003 56.2852 12.4659 56.2852 15.0606V15.5185C56.2852 18.1133 54.8569 19.9788 51.9512 19.9788C49.0455 19.9788 47.6173 18.1302 47.6173 15.5185ZM53.6585 14.8741C53.6585 13.6869 53.1825 12.7372 51.9512 12.7372C50.7201 12.7372 50.2439 13.6869 50.2439 14.8741V15.722C50.2439 16.9092 50.7201 17.8589 51.9512 17.8589C53.1825 17.8589 53.6585 16.9092 53.6585 15.722V14.8741Z" fill="black"></path><path d="M57.188 15.5185V15.0606C57.188 12.4659 58.6163 10.6003 61.5221 10.6003C64.4278 10.6003 65.856 12.4659 65.856 15.0606V15.5185C65.856 18.1133 64.4278 19.9788 61.5221 19.9788C58.6163 19.9788 57.188 18.1302 57.188 15.5185ZM63.2294 14.8741C63.2294 13.6869 62.7533 12.7372 61.5221 12.7372C60.2908 12.7372 59.8147 13.6869 59.8147 14.8741V15.722C59.8147 16.9092 60.2908 17.8589 61.5221 17.8589C62.7533 17.8589 63.2294 16.9092 63.2294 15.722V14.8741Z" fill="black"></path><path d="M69.484 15.0943L72.0942 10.7867H74.8851L72.1599 15.2469L75 19.809H72.1928L69.484 15.3996V19.809H66.8574V6.27551L69.484 6.02112" fill="black"></path></g></svg> 