<?xml version="1.0" encoding="UTF-8"?> <svg xmlns="http://www.w3.org/2000/svg" width="60" height="29" viewBox="0 0 60 29" fill="none"><path d="M41.5185 13.0881C41.1629 13.6521 41.0141 15.4242 41.1371 16.6018C41.1795 16.99 41.2495 17.3141 41.3551 17.5064C41.4969 17.7747 41.7351 17.9347 42.0071 17.9436C42.1795 17.9523 42.2891 17.924 45.5677 16.8769C45.5677 16.8769 47.0249 16.4184 47.0327 16.4154C47.3933 16.3227 47.6397 15.9929 47.6633 15.5704C47.6869 15.1361 47.4593 14.7546 47.0889 14.6162L46.0603 14.2004C42.5353 12.7603 42.3785 12.7056 42.1993 12.7037C41.9283 12.691 41.6869 12.8284 41.5185 13.0879V13.0881ZM49.3993 23.8139C49.4573 23.6499 49.4633 23.5378 49.4721 20.1263C49.4721 20.1263 49.4809 18.6189 49.4841 18.6023C49.5057 18.2354 49.2653 17.8977 48.8691 17.7465C48.4623 17.5902 48.0239 17.6859 47.7765 17.9904C47.7765 17.9904 47.0593 18.8334 47.0565 18.8344C44.5885 21.7081 44.4849 21.839 44.4259 22.0107C44.3879 22.1102 44.3741 22.2172 44.3855 22.3229C44.4013 22.4741 44.4691 22.6274 44.5865 22.7639C45.1579 23.4401 47.9037 24.4403 48.7785 24.2921C49.0829 24.2374 49.3057 24.0657 49.3993 23.8139ZM54.9657 22.6262C55.7952 22.2993 57.602 20.0239 57.728 19.1498C57.7714 18.8441 57.676 18.5827 57.463 18.4139C57.3262 18.3105 57.2168 18.2705 53.9431 17.205C53.9431 17.205 52.5037 16.7345 52.4879 16.7268C52.1381 16.5921 51.7419 16.7161 51.4751 17.0429C51.1971 17.3777 51.1539 17.8176 51.3775 18.1522L51.9559 19.0842C53.9017 22.2146 54.0485 22.435 54.1883 22.5444C54.4051 22.7112 54.6819 22.7415 54.9657 22.6264V22.6262ZM53.2761 14.5702C57 13.6784 57.1428 13.6315 57.2906 13.536C57.5162 13.3837 57.6276 13.1339 57.6088 12.8247C57.6088 12.8138 57.6098 12.8051 57.6088 12.7944C57.5124 11.8897 55.9114 9.53328 55.1223 9.15078C54.8415 9.01905 54.5617 9.02797 54.3311 9.1801C54.1873 9.27557 54.0799 9.41225 52.0879 12.1151C52.0879 12.1151 51.1863 13.331 51.1755 13.3417C50.9381 13.6267 50.9351 14.0376 51.1655 14.3896C51.4051 14.7536 51.8129 14.9313 52.1855 14.8289C52.1855 14.8289 52.1687 14.8543 52.1655 14.86C52.3479 14.7907 52.6789 14.7109 53.2761 14.5702ZM49.5361 11.5248C49.4711 10.063 49.0287 3.55564 48.9765 3.25514C48.9005 2.9798 48.6849 2.78568 48.3745 2.70862C47.4259 2.47448 43.7913 3.48433 43.1185 4.17248C42.9037 4.39473 42.8229 4.67086 42.8869 4.91491C42.9923 5.12963 47.4937 12.1445 47.4937 12.1445C48.1597 13.2139 48.7027 13.0471 48.8799 12.9923C49.0573 12.9378 49.5973 12.771 49.5361 11.5248Z" fill="#E9E9E9"></path><path d="M41.8161 12.3503C41.4613 12.9134 41.3115 14.6863 41.4347 15.8631C41.4781 16.2514 41.5491 16.5754 41.6525 16.7688C41.7945 17.0362 42.0327 17.195 42.3045 17.2049C42.4791 17.2137 42.5875 17.1843 45.8663 16.1402C45.8663 16.1402 47.3233 15.6797 47.3293 15.6767C47.6929 15.585 47.9373 15.2542 47.9607 14.8317C47.9845 14.3985 47.7587 14.016 47.3865 13.8775C47.3865 13.8775 46.3589 13.4627 46.3569 13.4627C42.8337 12.0234 42.6751 11.967 42.4977 11.965C42.2257 11.9541 41.9845 12.0898 41.8161 12.3503ZM49.6977 23.0742C49.7549 22.9102 49.7617 22.7981 49.7717 19.3867C49.7717 19.3867 49.7795 17.8792 49.7805 17.8646C49.8041 17.4947 49.5627 17.158 49.1677 17.0078C48.7607 16.8526 48.3223 16.9484 48.0761 17.2517C48.0761 17.2517 47.3569 18.0967 47.3549 18.0967C44.8869 20.9684 44.7835 21.1011 44.7233 21.2711C44.6862 21.371 44.6727 21.4781 44.6839 21.584C44.6987 21.7366 44.7687 21.8867 44.8839 22.0272C45.4563 22.7006 48.2011 23.7006 49.0779 23.5524C49.3825 23.4977 49.6041 23.328 49.6979 23.0742H49.6977ZM55.266 21.8867C56.0936 21.5599 57.8986 19.2852 58.0256 18.4099C58.07 18.1054 57.9736 17.843 57.7616 17.6752C57.6226 17.5718 57.5172 17.5318 54.2404 16.4663C54.2404 16.4663 52.803 15.9958 52.7844 15.9869C52.4364 15.8534 52.0394 15.9774 51.7724 16.3033C51.4946 16.638 51.4532 17.08 51.675 17.4137L52.2532 18.3467C54.198 21.4749 54.3468 21.6964 54.4868 21.8047C54.7034 21.9735 54.9794 22.0008 55.266 21.8867ZM53.5724 13.8325C57.2964 12.9388 57.4404 12.8918 57.5872 12.7963C57.8128 12.646 57.9262 12.3942 57.9064 12.0878C57.9064 12.0781 57.9084 12.0674 57.9064 12.0567C57.8108 11.151 56.2088 8.7956 55.4198 8.41309C55.1398 8.28037 54.8602 8.28909 54.6278 8.4432C54.4838 8.5359 54.3784 8.67655 52.3842 11.3774C52.3842 11.3774 51.4838 12.5923 51.473 12.604C51.2357 12.89 51.2317 13.2999 51.4643 13.6511C51.7047 14.015 52.1104 14.1926 52.4828 14.0902C52.4828 14.0902 52.468 14.1166 52.4642 14.1213C52.6474 14.053 52.9754 13.9732 53.5724 13.8325ZM49.8347 10.7872C49.7707 9.32528 49.3263 2.81696 49.2741 2.51547C49.1993 2.24211 48.9835 2.047 48.6741 1.96994C47.7233 1.7368 44.0899 2.74466 43.4169 3.43261C43.2003 3.65605 43.1205 3.93119 43.1855 4.17524C43.2919 4.39095 47.7933 11.4058 47.7933 11.4058C48.4583 12.4743 49.0013 12.3085 49.1795 12.2528C49.3559 12.1991 49.8957 12.0331 49.8347 10.787" fill="#191919"></path><path d="M3.72497 26.2143C4.19397 26.6445 5.08257 26.7666 6.16236 26.5491C7.17435 26.351 7.80175 25.9031 8.40574 24.0013L11.4135 14.6413C11.5691 14.1445 11.5575 13.7133 11.3791 13.3934C11.2341 13.1357 10.9929 12.961 10.6519 12.8712C10.1159 12.7258 9.44714 12.7405 9.02534 14.1671L7.44715 19.4766C7.44715 19.4766 4.23237 13.4617 4.23037 13.4607C4.02737 13.0586 3.43238 12.771 2.82638 13.0091C2.03639 13.3066 1.77319 14.0102 2.08839 14.9167C2.08839 14.9167 5.99876 22.7981 6.00776 22.8195C6.00776 22.8195 6.11416 23.1006 6.11416 23.1463C6.11416 23.1463 6.14956 23.3603 6.14956 23.368C6.14156 23.6715 6.03916 23.927 5.85596 24.0978C5.67576 24.2657 5.42536 24.3535 5.13277 24.3418C5.13277 24.3418 4.52297 24.3279 4.47677 24.3279C3.85017 24.4042 3.45598 24.7604 3.39278 25.3106C3.34878 25.665 3.46398 25.9762 3.72497 26.2143ZM19.1327 17.3395H14.9455C14.8321 17.2576 14.7771 17.12 14.8617 16.7062C14.9149 16.4887 14.9721 16.2936 15.1397 16.0202C15.1937 15.9384 15.2499 15.8544 15.3041 15.7706C15.6105 15.3869 16.0253 15.1411 16.4973 15.0318C17.9693 14.6756 18.9957 15.4162 19.1623 16.6798C19.2421 17.2313 19.1897 17.3395 19.1327 17.3395ZM21.7061 16.6174C21.5711 15.2651 21.0441 14.2093 20.1801 13.5623C19.2597 12.8704 17.9573 12.65 16.4155 12.9231C14.4825 13.2549 13.3219 14.6229 13.0559 16.8848C12.7287 19.5887 13.1779 21.6262 14.3593 22.7785C15.2499 23.6501 16.5673 23.9963 18.1693 23.7816C20.4539 23.4635 21.4813 22.2215 21.4813 21.4359C21.4813 20.8583 21.1287 20.4035 20.6105 20.3343C20.3139 20.2757 20.0637 20.3343 19.5099 20.825C18.7119 21.5139 17.7869 21.791 16.9671 21.5852C16.3425 21.4281 15.8549 21.0017 15.6341 20.4171C15.6341 20.4171 15.5357 20.0308 15.5415 20.0736C15.4745 19.7254 15.4441 19.3799 15.6607 19.2393L15.7187 19.2003H20.7375C21.2007 19.2003 21.4351 19.1409 21.5701 18.9962C21.8461 18.693 21.8241 17.8265 21.7061 16.6174ZM26.2556 9.46494C25.8586 9.30489 25.4104 9.34787 25.0172 9.58003C24.639 9.80169 24.4812 10.1392 24.4812 10.7491V22.601C24.4812 22.601 24.5472 23.0245 24.5542 23.0429C24.639 23.3387 24.8596 23.5905 25.166 23.7279C25.506 23.8842 25.898 23.8812 26.2488 23.7182C26.6852 23.5308 26.9424 23.0986 26.9424 22.563V10.6885C26.9424 10.6885 26.8664 10.1149 26.8664 10.1042C26.7964 9.82882 26.567 9.59092 26.2556 9.46494ZM35.7256 21.5032C34.0684 21.5032 33.8044 20.0463 33.7522 18.9467C33.7492 18.9438 33.7304 18.3026 33.7304 18.3026C33.7304 18.3026 33.7492 17.8265 33.7492 17.8079C33.8566 15.9051 34.2536 15.1548 35.2674 14.946C35.9482 14.7899 36.4684 14.866 36.8586 15.1771C37.4446 15.6446 37.7028 16.6341 37.6792 18.2851C37.6624 20.218 37.3226 21.5032 35.7256 21.5032ZM35.8486 12.8013C34.7384 12.5767 33.7886 12.7651 32.8752 13.3777C32.8752 13.3777 32.7728 13.4597 32.7334 13.4833L32.6516 13.5243L32.4016 13.6354L32.3304 13.3573L32.2704 13.2569L32.2496 13.1945L32.2428 13.1759C32.2428 13.1759 32.1818 13.0949 32.1728 13.0822C31.9108 12.6781 31.1984 12.4929 30.5562 12.8558C30.2418 13.0325 30.0616 13.2813 30.0616 14.0239V25.6561C30.0616 26.2933 30.2636 26.6895 30.7048 26.8983C31.0772 27.0837 31.496 27.0984 31.8556 26.9452C32.161 26.8125 32.3856 26.5782 32.4694 26.2933L32.5434 25.7948V23.7816L32.5216 23.4577L32.5304 23.3621L32.5432 23.3163L32.6644 22.9328L33.032 23.1747C33.032 23.1747 33.1246 23.2353 33.164 23.2763L33.2744 23.3484C33.2752 23.3494 33.4024 23.4227 33.4024 23.4227C33.4044 23.4227 33.5206 23.4791 33.5206 23.4791C34.5058 23.9397 35.824 23.886 36.8852 23.3444C38.2212 22.6537 38.8811 21.4282 39.0337 19.3702C39.3529 15.2572 38.3974 13.292 35.8486 12.8011V12.8013ZM40.9973 22.4136H41.1343C41.2455 22.4136 41.3501 22.4077 41.3501 22.2839C41.3501 22.1726 41.2545 22.1611 41.1687 22.1611H40.9973V22.4136ZM40.8849 22.0614H41.1785C41.3707 22.0614 41.4605 22.1308 41.4605 22.2886C41.4605 22.4313 41.3687 22.4907 41.2485 22.5034L41.4801 22.8538H41.3589L41.1401 22.5131H40.9973V22.8538H40.8849V22.0614ZM41.1441 23.0372C41.4681 23.0372 41.7293 22.7844 41.7293 22.4497C41.7293 22.1209 41.4683 21.8673 41.1441 21.8673C40.8189 21.8673 40.5579 22.1209 40.5579 22.4566C40.5572 22.533 40.5719 22.6088 40.6011 22.6796C40.6304 22.7503 40.6735 22.8146 40.7281 22.8686C40.7827 22.9226 40.8476 22.9654 40.919 22.9943C40.9904 23.0232 41.067 23.0377 41.1441 23.037V23.0372ZM41.1441 21.7687C41.5225 21.7687 41.8407 22.0634 41.8407 22.4497C41.8407 22.8429 41.5225 23.1366 41.1441 23.1366C40.7647 23.1366 40.4475 22.8429 40.4475 22.4566C40.4475 22.0634 40.7647 21.7687 41.1441 21.7687Z" fill="black"></path></svg> 