<?xml version="1.0" encoding="UTF-8"?> <svg xmlns="http://www.w3.org/2000/svg" width="76" height="19" viewBox="0 0 76 19" fill="none"><path d="M8.57144 1.91877C9.95605 2.16904 11.1648 2.89901 12 3.92096C12.7912 4.88035 13.2747 6.11086 13.2747 7.4248C13.2747 8.27991 12.7692 9.59385 11.8462 11.1998C12.1319 11.6586 12.4396 12.1592 12.7912 12.7014C13.9561 10.7827 14.8352 8.84303 14.8352 7.4248C14.8352 5.81888 14.3077 4.33809 13.4066 3.14928C12.5495 2.02305 11.3846 1.12623 10 0.646537C9.25275 0.354551 8.41759 0.208557 7.53847 0.208557C3.49451 0.208557 0.219788 3.44127 0.219788 7.4248C0.219788 10.3238 3.89012 15.3502 6.06594 18.0823C6.41759 18.5412 6.96704 18.7914 7.53847 18.7914C8.1099 18.7914 8.65935 18.5412 9.011 18.0823C9.47253 17.5192 9.97803 16.8518 10.5275 16.1218C10.1978 15.663 9.89012 15.2042 9.58242 14.7453C9.03297 15.4962 8.43957 16.2678 7.8022 17.0812C7.69231 17.2272 7.42858 17.2272 7.29671 17.0812C3.84616 12.764 1.80221 9.15587 1.80221 7.4248C1.80221 4.33809 4.37363 1.81448 7.53847 1.81448C7.89012 1.81448 8.21979 1.8562 8.57144 1.91877Z" fill="black"></path><path d="M11.9121 16.1218C12.4396 16.8518 12.967 17.5192 13.4286 18.0823C13.7802 18.5412 14.3297 18.7914 14.9011 18.7914C15.4725 18.7914 16.022 18.5412 16.3736 18.0823C18.5275 15.3502 22.1978 10.303 22.1978 7.4248C22.1978 3.44127 18.9231 0.208557 14.8791 0.208557C14 0.208557 13.1648 0.354551 12.3956 0.646537C12.9231 1.02195 13.4286 1.43907 13.8461 1.91877C14.1758 1.8562 14.5275 1.81448 14.8791 1.81448C18.0439 1.81448 20.6154 4.31723 20.6154 7.4248C20.6154 9.15587 18.5714 12.764 15.1209 17.0812C15.011 17.2272 14.7472 17.2272 14.6154 17.0812C13.978 16.2678 13.3846 15.4962 12.8352 14.7453C11.9121 13.4522 11.1209 12.2634 10.5275 11.1998C9.60439 9.57299 9.12087 8.25905 9.12087 7.4248C9.12087 6.09001 9.60439 4.88035 10.3956 3.92096C9.97801 3.58726 9.4945 3.33699 8.96702 3.14928C8.06592 4.33809 7.53845 5.81888 7.53845 7.4248C7.53845 8.84303 8.41757 10.7827 9.58241 12.7014C10.3077 13.8902 11.1209 15.0582 11.9121 16.1218Z" fill="black"></path><path d="M34 5.98571V11.8672C34 14.5785 32.4835 15.9967 29.5605 15.9967C26.6154 15.9967 25.2088 14.5993 25.2088 11.8463V5.90229C25.2088 5.52688 25.5165 5.19318 25.978 5.19318C26.4615 5.19318 26.7912 5.52688 26.7912 5.90229V11.8046C26.7912 13.8276 27.6703 14.6619 29.5605 14.6619C31.4286 14.6619 32.4176 13.8694 32.4176 11.8463V5.98571C32.4176 5.54773 32.7473 5.19318 33.1868 5.19318C33.6703 5.19318 34 5.54773 34 5.98571Z" fill="black"></path><path d="M43.033 12.18C43.033 14.6619 41.6044 15.9967 39.0549 15.9967C38.3956 15.9967 37.8462 15.8924 37.4066 15.7465V17.9364C37.4066 18.3118 37.1209 18.6246 36.6374 18.6246C36.1758 18.6246 35.8681 18.3118 35.8681 17.9364V9.21846C35.8681 8.84305 36.1538 8.59277 36.5275 8.59277C36.9451 8.59277 37.1429 8.84305 37.1868 9.21846L37.2308 9.78158C37.6923 9.09332 38.4835 8.59277 39.6703 8.59277C41.7582 8.59277 43.033 9.73986 43.033 12.18ZM41.4945 12.2635C41.4945 10.5741 40.7033 9.84415 39.4066 9.84415C38.2418 9.84415 37.4066 10.6158 37.4066 11.6169H37.3846V14.4534C37.8022 14.6202 38.3077 14.7871 38.967 14.7871C40.5275 14.7662 41.4945 14.0362 41.4945 12.2635Z" fill="black"></path><path d="M53.9121 8.00876C53.9121 8.40503 53.6044 8.61359 53.2527 8.61359C52.8571 8.61359 52.6813 8.48846 52.5714 8.15476C52.3297 7.63335 51.8462 6.50712 49.9341 6.50712C47.7802 6.50712 46.3736 7.8002 46.3736 10.4698C46.3736 13.2645 47.8901 14.641 50.3516 14.641C51.6044 14.641 52.3956 14.2865 52.7692 14.1613C52.9231 14.1196 53.0549 14.0779 53.2308 14.0779C53.6044 14.0779 53.8462 14.3491 53.8462 14.6828C53.8462 15.0373 53.6923 15.2042 53.4066 15.371C52.7033 15.7464 51.3846 15.9967 50.1758 15.9967C46.8352 15.9967 44.7692 14.1196 44.7692 10.5741C44.7692 7.09109 46.7912 5.19318 49.8901 5.19318C52.6813 5.19318 53.9121 6.75739 53.9121 8.00876Z" fill="black"></path><path d="M55.5604 6.38198C55.5604 5.81886 55.978 5.40173 56.5494 5.40173C57.1428 5.40173 57.5385 5.81886 57.5385 6.38198C57.5385 6.94509 57.1428 7.36222 56.5494 7.36222C55.978 7.36222 55.5604 6.94509 55.5604 6.38198ZM57.2747 9.23928V15.2876C57.2747 15.663 56.989 15.9758 56.5055 15.9758C56.0439 15.9758 55.7363 15.663 55.7363 15.2876V9.23928C55.7363 8.86386 56.0439 8.55102 56.5055 8.55102C56.967 8.57188 57.2747 8.86386 57.2747 9.23928Z" fill="black"></path><path d="M61.5824 9.90667V13.7859C61.5824 14.5159 61.9341 14.7036 62.4616 14.7036C62.5934 14.7036 62.7253 14.6827 62.989 14.6619C63.4286 14.5993 63.6484 14.9122 63.6484 15.225C63.6484 15.517 63.4725 15.809 63.0989 15.8715C62.7912 15.9133 62.4396 15.955 62.0879 15.955C60.7473 15.955 60.0879 15.4961 60.0879 13.8902V9.90667H59.3187C58.989 9.90667 58.7033 9.65639 58.7033 9.30184C58.7033 8.92643 58.989 8.69701 59.3187 8.69701H60.0879V7.29964C60.0879 6.92423 60.3956 6.61139 60.8572 6.61139C61.3187 6.61139 61.6044 6.92423 61.6044 7.29964V8.69701H63.055C63.4066 8.69701 63.6703 8.92643 63.6703 9.30184C63.6703 9.65639 63.4066 9.90667 63.055 9.90667H61.5824Z" fill="black"></path><path d="M71.6703 9.17671C71.6703 9.30185 71.6264 9.44784 71.5604 9.57298L68.3077 16.9352C67.7582 18.1657 66.9451 18.5829 65.7582 18.5829C65.4945 18.5829 65.3626 18.562 65.2527 18.562C64.8571 18.5203 64.6154 18.2909 64.6154 17.9363C64.6154 17.6026 64.8352 17.3106 65.2308 17.3315C65.3407 17.3315 65.4505 17.3523 65.6923 17.3523C66.4396 17.3523 66.8791 17.1229 67.0989 16.5598L67.4286 15.7673L64.6154 9.59384C64.5494 9.4687 64.5055 9.3227 64.5055 9.19757C64.5055 8.78044 64.8571 8.55103 65.2308 8.55103C65.5165 8.55103 65.8242 8.71787 65.956 9.03072L68.1538 14.0571L70.2637 9.00986C70.3956 8.69702 70.6593 8.57188 70.989 8.57188C71.2967 8.55103 71.6703 8.75959 71.6703 9.17671Z" fill="black"></path><path d="M75.7802 9.48958C75.7802 9.59386 75.7143 9.65643 75.6044 9.65643C75.4945 9.65643 75.4286 9.59386 75.4286 9.48958L75.4066 8.55105L75.011 9.3853C74.967 9.46873 74.9011 9.51044 74.8352 9.51044C74.7692 9.51044 74.7033 9.46873 74.6594 9.40616L74.2418 8.5302L74.2198 9.48958C74.2198 9.59386 74.1539 9.65643 74.044 9.65643C73.9341 9.65643 73.8681 9.59386 73.8681 9.48958L73.8901 8.42592H73.3407V9.48958C73.3407 9.59386 73.2747 9.65643 73.1648 9.65643C73.055 9.65643 72.989 9.59386 72.989 9.48958V8.42592H72.5934C72.5055 8.42592 72.4396 8.36335 72.4396 8.27992C72.4396 8.1965 72.5055 8.15479 72.5934 8.15479H74.0659C74.2418 8.15479 74.3736 8.23821 74.4616 8.36335L74.8132 9.11417L75.1868 8.34249C75.2528 8.21735 75.3627 8.15479 75.4725 8.15479C75.6264 8.15479 75.7363 8.25907 75.7363 8.42592L75.7802 9.48958Z" fill="black"></path></svg> 