<?xml version="1.0" encoding="UTF-8"?> <svg xmlns="http://www.w3.org/2000/svg" width="80" height="25" viewBox="0 0 80 25" fill="none"><path d="M27.8435 5.89172H30.0911V19.768H27.8435V5.89172Z" fill="black"></path><path d="M37.9088 15.3709C37.9088 17.5207 36.1498 17.7162 35.5635 17.7162C34.1954 17.7162 34 16.4459 34 15.7618V10.3872H31.7524V15.6641C31.7524 16.9345 32.1433 18.1071 32.925 18.7912C33.6091 19.4752 34.4886 19.7683 35.5635 19.7683C36.3452 19.7683 37.3225 19.5729 37.9088 18.9866V19.7683H40.1563V10.3872H37.9088V15.3709Z" fill="black"></path><path d="M44.5538 6.96655H42.3062V10.3868H40.645V12.5366H42.3062V19.7678H44.5538V12.5366H46.215V10.3868H44.5538V6.96655Z" fill="black"></path><path d="M53.2508 16.9339C52.7622 17.3248 52.0781 17.6178 51.3942 17.6178C49.8306 17.6178 48.7557 16.4453 48.7557 14.8817C48.7557 13.3182 49.8306 12.2433 51.3942 12.2433C52.0781 12.2433 52.7622 12.4387 53.2508 12.9273L53.544 13.2205L55.1075 11.7547L54.7167 11.4615C53.8371 10.6798 52.6645 10.1912 51.3942 10.1912C48.658 10.1912 46.6059 12.2433 46.6059 14.9794C46.6059 17.7156 48.658 19.7678 51.3942 19.7678C52.6645 19.7678 53.8371 19.2791 54.7167 18.4974L55.1075 18.2042L53.544 16.6407L53.2508 16.9339Z" fill="black"></path><path d="M63.0229 11.1686C62.3388 10.4846 61.6547 10.1914 60.5799 10.1914C59.7981 10.1914 59.0163 10.3869 58.4299 10.9732V5.89172H56.1824V19.768H58.4299V14.5888C58.4299 12.439 59.8958 12.2435 60.4821 12.2435C61.8502 12.2435 61.7525 13.5139 61.7525 14.1979V19.6703H64V14.2956C64 13.0253 63.7069 11.8526 63.0229 11.1686Z" fill="black"></path><path d="M51.2965 16.5433C52.1599 16.5433 52.8599 15.8433 52.8599 14.9798C52.8599 14.1163 52.1599 13.4163 51.2965 13.4163C50.4329 13.4163 49.7329 14.1163 49.7329 14.9798C49.7329 15.8433 50.4329 16.5433 51.2965 16.5433Z" fill="black"></path><path d="M24.7166 16.3476C23.9348 17.1294 22.7621 17.6179 21.4918 17.6179C19.0488 17.6179 17.2898 15.6636 17.2898 13.0251C17.2898 10.3867 19.0488 8.43231 21.5895 8.43231C22.7621 8.43231 23.9348 8.9209 24.8143 9.80039L25.1074 10.0935L26.5733 8.62774L26.2801 8.33458C25.0097 7.06422 23.3485 6.38018 21.5895 6.38018C17.8761 6.28246 15.14 9.21406 15.14 13.0251C15.14 16.8363 17.8761 19.7679 21.4918 19.7679C23.2507 19.7679 25.0097 19.0838 26.1824 17.8134L26.4755 17.5203L25.0097 16.0545L24.7166 16.3476Z" fill="black"></path></svg> 