<?xml version="1.0" encoding="UTF-8"?> <svg xmlns="http://www.w3.org/2000/svg" width="80" height="25" viewBox="0 0 80 25" fill="none"><mask id="mask0_5063_65258" style="mask-type:luminance" maskUnits="userSpaceOnUse" x="8" y="2" width="64" height="21"><path d="M72 2.51672H8.94736V22.4834H72V2.51672Z" fill="white"></path></mask><g mask="url(#mask0_5063_65258)"><path d="M16.7126 2.51868H17.2733C19.2199 2.55973 21.1347 3.31925 22.51 4.66382C22.0022 5.16674 21.4838 5.64914 20.9866 6.15207C20.2144 5.47466 19.2833 4.9512 18.2677 4.76646C16.7655 4.45854 15.1468 4.73566 13.8879 5.56703C12.5126 6.43946 11.5816 7.91745 11.3806 9.49808C11.1584 11.0582 11.6133 12.7004 12.6607 13.9116C13.6657 15.0919 15.1997 15.8309 16.7866 15.8822C18.2677 15.9642 19.8123 15.523 20.8914 14.5171C21.7377 13.8089 22.1292 12.7312 22.2561 11.6843C20.5 11.6843 18.7438 11.6945 16.9876 11.6843V9.56992H24.3826C24.7634 11.8382 24.2133 14.3939 22.436 16.0156C21.251 17.1652 19.6113 17.8426 17.9398 17.976C16.3211 18.13 14.6496 17.8323 13.2108 17.0728C11.4864 16.1799 10.1111 14.671 9.43401 12.8954C8.79925 11.2635 8.78867 9.41597 9.38111 7.77375C9.92066 6.27524 10.9574 4.9512 12.2904 4.02746C13.5705 3.11398 15.1257 2.61105 16.7126 2.51868Z" fill="black"></path><path d="M59.1356 3.05237H61.3996V17.7091C60.6484 17.7091 59.8867 17.7194 59.1356 17.6989C59.1462 12.8235 59.1356 7.93795 59.1356 3.05237Z" fill="black"></path><path d="M29.4182 8.13292C30.8147 7.87632 32.3276 8.16371 33.4807 8.97455C34.5281 9.69302 35.258 10.822 35.4802 12.0537C35.7658 13.4804 35.4061 15.0405 34.454 16.1695C33.4278 17.432 31.7457 18.1094 30.1059 18.0067C28.6037 17.9246 27.1437 17.1958 26.2551 16.0053C25.25 14.6915 25.0067 12.8851 25.5568 11.3455C26.1069 9.69302 27.6621 8.43057 29.4182 8.13292ZM29.7357 10.083C29.1643 10.2267 28.6354 10.5449 28.2546 10.9965C27.2284 12.1871 27.2919 14.127 28.4238 15.2354C29.0691 15.8718 30.0424 16.1695 30.9417 15.995C31.7774 15.8514 32.5074 15.3073 32.9094 14.5888C33.6076 13.3675 33.4066 11.6842 32.3382 10.7297C31.6505 10.1138 30.6454 9.85724 29.7357 10.083Z" fill="black"></path><path d="M40.6322 8.13282C42.2298 7.83517 43.9754 8.26625 45.1708 9.35422C47.1174 11.0478 47.3289 14.2193 45.668 16.1694C44.663 17.401 43.0338 18.0784 41.4257 18.0067C39.8917 17.9656 38.3788 17.2266 37.4691 16.0052C36.4429 14.6606 36.2206 12.8131 36.8025 11.2428C37.3844 9.6416 38.9078 8.42021 40.6322 8.13282ZM40.9497 10.083C40.3783 10.2266 39.8494 10.5448 39.4686 10.9862C38.4529 12.1562 38.4953 14.0653 39.5849 15.1841C40.2303 15.8512 41.2353 16.1797 42.1663 15.9949C42.9914 15.8409 43.732 15.3073 44.1341 14.5888C44.8217 13.3572 44.6206 11.6738 43.5416 10.7193C42.8539 10.1035 41.8489 9.85715 40.9497 10.083Z" fill="black"></path><path d="M50.1431 8.72819C51.3598 7.9892 52.9784 7.78392 54.2903 8.42028C54.7029 8.59476 55.0413 8.89241 55.3693 9.19007C55.3799 8.91294 55.3693 8.62555 55.3799 8.33817C56.0888 8.34843 56.7976 8.33817 57.5169 8.34843V17.4011C57.5064 18.7662 57.1467 20.2134 56.131 21.209C55.0202 22.3072 53.317 22.6459 51.7829 22.4201C50.1431 22.1841 48.715 21.0242 48.0802 19.5566C48.715 19.2589 49.3814 19.0228 50.0374 18.7457C50.4076 19.5874 51.1588 20.3057 52.1004 20.47C53.0418 20.6342 54.1315 20.4084 54.7451 19.6489C55.4011 18.8689 55.4011 17.8014 55.3693 16.8469C54.8827 17.3087 54.322 17.7193 53.6449 17.8733C52.1743 18.2735 50.5558 17.7809 49.4238 16.8161C48.2812 15.8513 47.6041 14.363 47.6676 12.885C47.6993 11.212 48.6726 9.60062 50.1431 8.72819ZM52.333 10.042C51.6877 10.1446 51.0847 10.4936 50.6721 10.976C49.6777 12.1255 49.6777 13.9627 50.6827 15.0918C51.254 15.7589 52.1743 16.1284 53.0631 16.036C53.8988 15.9539 54.6711 15.4407 55.0837 14.7325C55.7819 13.5317 55.6656 11.8997 54.724 10.8528C54.1421 10.2062 53.2111 9.88801 52.333 10.042Z" fill="black"></path><path d="M64.1184 9.25171C65.388 8.10217 67.3451 7.71213 68.9744 8.3177C70.519 8.88221 71.5028 10.3089 72.0001 11.7766C69.7043 12.7004 67.4192 13.6138 65.1235 14.5375C65.4408 15.1227 65.9275 15.6563 66.5834 15.8718C67.5038 16.19 68.6041 16.0772 69.3764 15.4819C69.6832 15.256 69.9265 14.9584 70.1593 14.671C70.7411 15.0508 71.323 15.4203 71.9049 15.8001C71.0796 17.0009 69.6937 17.8425 68.2021 17.976C66.5517 18.1709 64.7955 17.5551 63.7271 16.3029C61.9708 14.3323 62.1401 11.0274 64.1184 9.25171ZM65.2504 11.1505C64.8908 11.6534 64.7426 12.2693 64.7532 12.8748C66.2872 12.259 67.8212 11.6432 69.3552 11.0171C69.1013 10.4423 68.4877 10.0933 67.8635 10.001C66.8585 9.82649 65.8112 10.3499 65.2504 11.1505Z" fill="black"></path></g></svg> 