<?xml version="1.0" encoding="UTF-8"?> <svg xmlns="http://www.w3.org/2000/svg" width="80" height="25" viewBox="0 0 80 25" fill="none"><mask id="mask0_5063_65249" style="mask-type:luminance" maskUnits="userSpaceOnUse" x="0" y="3" width="80" height="20"><path d="M80 3H0V23H80V3Z" fill="white"></path></mask><g mask="url(#mask0_5063_65249)"><path d="M21.024 10.0885H29.1243V11.627H25.9393V20.2754H24.1878V11.627H21.017V10.0885H21.024ZM28.7783 12.8995H30.2754V14.3228H30.3037C30.3531 14.1216 30.4449 13.9275 30.5791 13.7406C30.7133 13.5536 30.8757 13.3739 31.0664 13.2229C31.2571 13.0647 31.4689 12.9426 31.702 12.8419C31.935 12.7485 32.1752 12.6981 32.4153 12.6981C32.5989 12.6981 32.7331 12.7053 32.8037 12.7126C32.8743 12.7197 32.9449 12.7341 33.0226 12.7413V14.3085C32.9096 14.2869 32.7966 14.2726 32.6765 14.2582C32.5565 14.2438 32.4435 14.2366 32.3305 14.2366C32.0622 14.2366 31.8079 14.2941 31.5678 14.4019C31.3277 14.5097 31.1229 14.6751 30.9464 14.8836C30.7698 15.0993 30.6285 15.3581 30.5226 15.6744C30.4166 15.9907 30.3673 16.3502 30.3673 16.7599V20.2682H28.7712V12.8995H28.7783ZM40.3602 20.2754H38.7924V19.2474H38.7642C38.5664 19.6212 38.2768 19.9159 37.8884 20.1388C37.5 20.3616 37.1045 20.4767 36.702 20.4767C35.7486 20.4767 35.0565 20.2395 34.6328 19.7578C34.2091 19.2761 33.9972 18.55 33.9972 17.5796V12.8995H35.5933V17.4214C35.5933 18.0684 35.7133 18.5285 35.9604 18.7945C36.2005 19.0605 36.5466 19.197 36.9844 19.197C37.3234 19.197 37.5989 19.1467 37.8249 19.0389C38.0508 18.9311 38.2344 18.7945 38.3686 18.6147C38.5099 18.4422 38.6088 18.2266 38.6724 17.9821C38.7359 17.7376 38.7642 17.4716 38.7642 17.1841V12.9066H40.3602V20.2754ZM43.0791 17.9102C43.1285 18.3846 43.3051 18.7154 43.6088 18.9095C43.9195 19.0964 44.2867 19.197 44.7175 19.197C44.8658 19.197 45.0354 19.1826 45.226 19.1611C45.4167 19.1396 45.6003 19.0892 45.7627 19.0246C45.9322 18.9598 46.0664 18.8592 46.1794 18.7297C46.2854 18.6004 46.3347 18.435 46.3277 18.2266C46.3206 18.018 46.243 17.8455 46.1017 17.7161C45.9604 17.5796 45.7839 17.4788 45.565 17.3926C45.3461 17.3136 45.0989 17.2416 44.8164 17.1841C44.5339 17.1266 44.2514 17.0619 43.9619 16.9972C43.6653 16.9325 43.3757 16.8462 43.1003 16.7527C42.8249 16.6593 42.5777 16.5299 42.3588 16.3646C42.1398 16.2064 41.9633 15.9979 41.8362 15.7463C41.702 15.4946 41.6384 15.1856 41.6384 14.8117C41.6384 14.4091 41.7373 14.0785 41.928 13.8053C42.1186 13.5321 42.3658 13.3164 42.6554 13.151C42.952 12.9857 43.2768 12.8706 43.637 12.7987C43.9972 12.7341 44.3433 12.6981 44.6681 12.6981C45.0424 12.6981 45.4025 12.7413 45.7415 12.8204C46.0805 12.8995 46.3913 13.0288 46.6667 13.2157C46.9421 13.3955 47.1681 13.6327 47.3517 13.9203C47.5354 14.2078 47.6484 14.5601 47.6977 14.9699H46.0311C45.9534 14.5816 45.7839 14.3156 45.5084 14.1863C45.2331 14.0496 44.9153 13.985 44.5622 13.985C44.4492 13.985 44.315 13.9922 44.1596 14.0137C44.0043 14.0353 43.863 14.0713 43.7217 14.1216C43.5876 14.1719 43.4746 14.251 43.3757 14.3516C43.2839 14.4523 43.2344 14.5816 43.2344 14.747C43.2344 14.9483 43.3051 15.1065 43.4393 15.2286C43.5734 15.3509 43.75 15.4516 43.9689 15.5378C44.1879 15.6169 44.4351 15.6888 44.7175 15.7463C45 15.8038 45.2895 15.8686 45.5862 15.9332C45.8757 15.9979 46.1582 16.0842 46.4407 16.1776C46.7232 16.2711 46.9704 16.4005 47.1893 16.5658C47.4082 16.7312 47.5847 16.9325 47.7189 17.1769C47.8531 17.4214 47.9237 17.7305 47.9237 18.0899C47.9237 18.5285 47.8249 18.8951 47.6272 19.2043C47.4294 19.5062 47.1752 19.7578 46.8644 19.9447C46.5537 20.1316 46.2005 20.2754 45.8193 20.3616C45.4379 20.4479 45.0565 20.4911 44.6822 20.4911C44.2232 20.4911 43.7994 20.4407 43.411 20.3329C43.0226 20.2251 42.6836 20.0669 42.4012 19.8585C42.1186 19.6427 41.8926 19.3767 41.7303 19.0605C41.5678 18.7441 41.4831 18.3631 41.4689 17.9246H43.0791V17.9102ZM48.3474 12.8995H49.5551V10.6852H51.1512V12.8995H52.5918V14.1144H51.1512V18.054C51.1512 18.2266 51.1582 18.3703 51.1724 18.4997C51.1864 18.6219 51.2218 18.7297 51.2712 18.816C51.3206 18.9023 51.3984 18.967 51.5043 19.0101C51.6102 19.0533 51.7444 19.0748 51.928 19.0748C52.041 19.0748 52.154 19.0748 52.267 19.0676C52.38 19.0605 52.493 19.0461 52.606 19.0173V20.2754C52.4294 20.297 52.2528 20.3114 52.0904 20.3329C51.9209 20.3545 51.7514 20.3616 51.5749 20.3616C51.1512 20.3616 50.8122 20.3186 50.5579 20.2395C50.3037 20.1604 50.0989 20.0382 49.9576 19.88C49.8094 19.7218 49.7175 19.5277 49.661 19.2905C49.6116 19.0533 49.5763 18.7801 49.5693 18.4781V14.1287H48.3616V12.8995H48.3474ZM53.7218 12.8995H55.2331V13.8987H55.2614C55.4873 13.4674 55.7981 13.1655 56.2006 12.9785C56.6032 12.7916 57.0339 12.6981 57.5071 12.6981C58.0791 12.6981 58.5734 12.7987 58.9972 13.0073C59.4209 13.2086 59.774 13.4889 60.0565 13.8484C60.339 14.2078 60.5438 14.6248 60.6851 15.0993C60.8263 15.5737 60.8969 16.0842 60.8969 16.6234C60.8969 17.1194 60.8334 17.6011 60.7063 18.0612C60.5791 18.5285 60.3884 18.9383 60.1342 19.2977C59.88 19.6572 59.5551 19.9376 59.1596 20.1532C58.7642 20.3688 58.3051 20.4767 57.7684 20.4767C57.5354 20.4767 57.3023 20.4551 57.0693 20.412C56.8362 20.3688 56.6102 20.297 56.3984 20.2036C56.1864 20.1101 55.9816 19.9878 55.8051 19.8369C55.6214 19.6859 55.4732 19.5134 55.3461 19.3193H55.3178V23.0001H53.7218V12.8995ZM59.3009 16.5946C59.3009 16.2639 59.2585 15.9404 59.1737 15.6241C59.089 15.3077 58.9619 15.0346 58.7924 14.7902C58.6229 14.5457 58.4111 14.3516 58.1639 14.2078C57.9096 14.0641 57.6201 13.985 57.2952 13.985C56.6244 13.985 56.1158 14.2222 55.7768 14.6967C55.4379 15.1712 55.2684 15.8038 55.2684 16.5946C55.2684 16.9685 55.3107 17.3136 55.4025 17.6298C55.4944 17.9462 55.6214 18.2194 55.8051 18.4494C55.9816 18.6795 56.1935 18.8592 56.4407 18.9886C56.6879 19.1252 56.9774 19.1898 57.3023 19.1898C57.6695 19.1898 57.9732 19.1107 58.2274 18.9598C58.4816 18.8088 58.6864 18.6076 58.8489 18.3703C59.0114 18.1259 59.1314 17.8527 59.202 17.5436C59.2655 17.2345 59.3009 16.9181 59.3009 16.5946ZM62.1186 10.0885H63.7147V11.627H62.1186V10.0885ZM62.1186 12.8995H63.7147V20.2754H62.1186V12.8995ZM65.1413 10.0885H66.7374V20.2754H65.1413V10.0885ZM71.6314 20.4767C71.0523 20.4767 70.5367 20.3761 70.0848 20.1819C69.6328 19.9878 69.2514 19.7146 68.9336 19.3767C68.6229 19.0317 68.3828 18.6219 68.2204 18.1475C68.0579 17.673 67.9732 17.1482 67.9732 16.5802C67.9732 16.0195 68.0579 15.5018 68.2204 15.0274C68.3828 14.5529 68.6229 14.1431 68.9336 13.7981C69.2444 13.453 69.6328 13.187 70.0848 12.9929C70.5367 12.7987 71.0523 12.6981 71.6314 12.6981C72.2104 12.6981 72.726 12.7987 73.178 12.9929C73.63 13.187 74.0114 13.4602 74.3292 13.7981C74.6399 14.1431 74.88 14.5529 75.0424 15.0274C75.2048 15.5018 75.2896 16.0195 75.2896 16.5802C75.2896 17.1482 75.2048 17.673 75.0424 18.1475C74.88 18.6219 74.6399 19.0317 74.3292 19.3767C74.0184 19.7218 73.63 19.9878 73.178 20.1819C72.726 20.3761 72.2104 20.4767 71.6314 20.4767ZM71.6314 19.1898C71.9844 19.1898 72.2953 19.1107 72.5565 18.9598C72.8178 18.8088 73.0297 18.6076 73.1992 18.3631C73.3687 18.1186 73.4887 17.8383 73.5734 17.5292C73.6512 17.2201 73.6935 16.9037 73.6935 16.5802C73.6935 16.2639 73.6512 15.9547 73.5734 15.6385C73.4958 15.3221 73.3687 15.0489 73.1992 14.8046C73.0297 14.5601 72.8178 14.366 72.5565 14.215C72.2953 14.0641 71.9844 13.985 71.6314 13.985C71.2783 13.985 70.9675 14.0641 70.7063 14.215C70.4449 14.366 70.2331 14.5673 70.0636 14.8046C69.8941 15.0489 69.774 15.3221 69.6893 15.6385C69.6116 15.9547 69.5693 16.2639 69.5693 16.5802C69.5693 16.9037 69.6116 17.2201 69.6893 17.5292C69.767 17.8383 69.8941 18.1186 70.0636 18.3631C70.2331 18.6076 70.4449 18.8088 70.7063 18.9598C70.9675 19.118 71.2783 19.1898 71.6314 19.1898ZM75.7557 12.8995H76.9634V10.6852H78.5594V12.8995H80.0001V14.1144H78.5594V18.054C78.5594 18.2266 78.5664 18.3703 78.5805 18.4997C78.5946 18.6219 78.63 18.7297 78.6794 18.816C78.7288 18.9023 78.8065 18.967 78.9124 19.0101C79.0184 19.0533 79.1525 19.0748 79.3362 19.0748C79.4492 19.0748 79.5622 19.0748 79.6752 19.0676C79.7882 19.0605 79.9012 19.0461 80.0142 19.0173V20.2754C79.8376 20.297 79.6611 20.3114 79.4986 20.3329C79.3292 20.3545 79.1596 20.3616 78.9831 20.3616C78.5594 20.3616 78.2204 20.3186 77.9662 20.2395C77.7119 20.1604 77.5071 20.0382 77.3659 19.88C77.2175 19.7218 77.1257 19.5277 77.0693 19.2905C77.0198 19.0533 76.9845 18.7801 76.9774 18.4781V14.1287H75.7698V12.8995H75.7557Z" fill="black"></path><path d="M19.1596 10.0884H11.8432L9.58336 3L7.31638 10.0884L0 10.0812L5.92515 14.4665L3.65819 21.5478L9.58336 17.1696L15.5015 21.5478L13.2415 14.4665L19.1596 10.0884Z" fill="black"></path><path d="M13.75 16.0696L13.2415 14.4664L9.58336 17.1695L13.75 16.0696Z" fill="black"></path></g></svg> 