<?xml version="1.0" encoding="UTF-8"?> <svg xmlns="http://www.w3.org/2000/svg" width="120" height="20" fill="none"><g clip-path="url(#clip0)" fill="#000"><path d="M.536 9.106c.429-2.233 2.357-3.809 5.098-3.809 3.17 0 5.613 1.357 5.613 5.735v8.143h-2.7l-.342-1.751c-.943 1.182-2.185 1.97-4.113 1.97-2.27 0-4.07-1.445-4.07-4.16 0-2.713 2.356-4.464 5.698-4.464h2.228v-.614c0-1.532-1.114-2.013-2.356-2.013-.943 0-1.885.306-2.314 1.576L.536 9.106zm4.327 7.442c1.5 0 3.085-1.05 3.085-2.802v-.262H5.763c-1.414-.044-2.27.525-2.27 1.707 0 .657.47 1.357 1.37 1.357zm59.85-7.442c.428-2.233 2.356-3.809 5.098-3.809 3.17 0 5.612 1.357 5.612 5.735v8.143h-2.7l-.342-1.751c-.942 1.182-2.185 1.97-4.113 1.97-2.27 0-4.07-1.445-4.07-4.16 0-2.713 2.357-4.464 5.698-4.464h2.228v-.614c0-1.532-1.114-2.013-2.356-2.013-.943 0-1.885.306-2.314 1.576l-2.741-.613zm4.327 7.442c1.499 0 3.084-1.05 3.084-2.802v-.262H69.94c-1.413 0-2.27.525-2.27 1.75 0 .614.47 1.314 1.37 1.314zm9.382 2.671V5.516h3.299v2.233c.942-1.62 2.442-2.452 3.941-2.452.6 0 1.071.088 1.628.263l-.6 3.108c-.385-.263-.814-.394-1.37-.394-1.928 0-3.6 1.62-3.6 6.042v4.859l-3.298.044zM94.316 5.297c1.37 0 2.656.7 3.256 1.445V0h3.299v19.219h-3.3v-1.401c-.385.7-1.584 1.62-3.255 1.62-4.027 0-6.084-2.846-6.084-7.049 0-4.202 2.057-7.092 6.084-7.092zm.471 11.251c1.714 0 3.085-1.444 3.085-4.159 0-2.714-1.371-4.159-3.085-4.159s-3.084 1.445-3.084 4.16c0 2.714 1.37 4.158 3.084 4.158zm17.993-9.062l-1.97 1.839c-.6-.832-1.5-1.182-2.228-1.182-.643 0-1.242.394-1.242 1.138 0 .613.471 1.05 1.285 1.313 1.842.7 4.841 1.27 4.841 4.203 0 2.495-1.842 4.553-4.755 4.553-2.785 0-4.67-2.014-5.313-3.677l2.614-1.445c.471 1.313 1.37 2.277 2.699 2.277 1.028 0 1.67-.482 1.67-1.489 0-1.138-1.713-1.4-3.341-2.101-1.457-.613-2.699-1.576-2.699-3.678 0-2.101 1.671-3.984 4.284-3.984 1.756 0 3.341.92 4.155 2.233zm-68.631-1.97l-2.357 9.412-2.27-9.412h-3.085l-2.227 9.412-1.886-5.472-.214.657-1.07 3.502 1.713 5.604h2.913l2.314-8.844 2.313 8.844h2.913L47.49 5.516h-3.34zm15.937 0l-2.4 9.412-2.27-9.412H52.33l-2.227 9.412-1.885-5.472-.215.657-1.07 3.502 1.713 5.604h2.913l2.314-8.844 2.313 8.844H59.1l4.284-13.703h-3.298zm-28.49 0l-4.284 13.659H24.4l-2.314-8.843-2.313 8.887H16.86l-4.284-13.66h3.341l2.4 9.37 2.27-9.37h3.042l2.27 9.37 2.4-9.37 3.298-.043zm86.154 9.281c1.285 0 2.228.963 2.228 2.277 0 1.313-.943 2.276-2.228 2.276-1.285 0-2.228-.963-2.228-2.276 0-1.314.986-2.277 2.228-2.277z"></path></g><defs><clipPath id="clip0"><path fill="#fff" d="M0 0h120v19.394H0z"></path></clipPath></defs></svg> 