<?xml version="1.0" encoding="UTF-8"?> <svg xmlns="http://www.w3.org/2000/svg" width="87" height="58" viewBox="0 0 87 58" fill="none"><path d="M87.0001 58H3.65674L6.26122 50.9819L3.65674 44.4102H87.0001L83.8747 51.2051L87.0001 58Z" fill="#517AA5"></path><path d="M65.8415 51.1139C65.6748 51.0328 65.5081 50.9618 65.3414 50.8705C64.4246 50.404 64.2996 49.3493 65.1435 48.7712C65.7164 48.3757 66.3519 48.041 66.9978 47.7672C70.8629 46.1039 73.4674 43.2744 75.1238 39.5423C75.9989 37.5647 76.4052 35.4856 76.6865 33.366C76.8115 32.362 76.9574 31.358 77.072 30.354C77.1136 29.9686 77.1241 29.5731 77.0928 29.1877C77.0199 28.3966 76.7594 28.2242 75.9677 28.3865C74.207 28.7415 72.6339 28.0721 71.6963 26.5914C71.4984 26.277 71.3004 25.9525 71.0608 25.6685C70.6858 25.2223 70.3316 25.1716 69.8419 25.4961C69.3002 25.8612 68.7376 26.2162 68.2688 26.6523C65.3727 29.3398 59.8095 28.6603 57.7572 24.9688C57.403 24.3298 57.1321 23.6504 56.8091 23.0013C56.2361 21.835 55.6736 20.6484 55.0589 19.5024C54.9235 19.2489 54.5797 18.9041 54.3713 18.9345C54.1005 18.9649 53.7671 19.2692 53.6317 19.543C52.9128 20.9121 52.2565 22.3015 51.5689 23.6808C50.9751 24.8876 50.3917 26.1046 49.3291 26.9971C48.8915 27.3622 48.3706 27.6563 47.8393 27.8896C47.0267 28.2344 46.5371 28.1127 46.037 27.3825C45.5369 26.6421 45.1306 25.8308 44.7035 25.0398C44.5264 24.7152 44.3806 24.3805 44.2243 24.056C44.1618 24.056 44.1097 24.0662 44.0472 24.0662C43.9534 24.5428 43.8597 25.0195 43.7555 25.4961C43.6409 25.9931 43.5575 26.49 43.3908 26.9768C42.6928 28.9747 40.7551 29.4412 39.182 27.9707C38.7965 27.6157 38.5361 27.1391 38.2027 26.7334C37.8589 26.3176 37.5256 25.8815 37.1401 25.5063C36.8588 25.2426 36.5359 25.2527 36.2442 25.5874C34.0356 28.1025 31.2019 28.4981 28.0973 27.7476C26.3784 27.3318 25.6908 25.8714 26.243 23.9952C27.2014 20.7194 29.3371 18.5491 32.7229 17.6059C33.4001 17.4132 34.0668 17.1698 34.7544 16.9974C35.4003 16.8352 35.9941 16.9772 36.4421 17.4944C36.9005 18.0116 36.7546 18.5897 36.0879 18.8128C35.817 18.9041 35.5149 18.9345 35.2232 18.9751C33.4626 19.2489 32.0353 20.0602 30.9414 21.4395C30.8581 21.5409 30.7852 21.6626 30.7227 21.7843C29.9726 23.1331 30.5664 24.3603 32.1082 24.6341C33.0354 24.7964 33.9001 24.6544 34.6711 24.0763C35.7649 23.2447 36.6921 22.2711 37.3693 21.0947C37.4943 20.8715 37.6402 20.6586 37.7964 20.4659C38.0048 20.2123 38.2757 20.0602 38.6194 20.2123C38.9737 20.3746 39.0883 20.6789 38.9841 21.0135C38.7549 21.8249 38.8174 22.6362 39.0778 23.407C39.307 24.1067 39.5779 24.8166 39.9738 25.4353C40.4426 26.1959 41.1406 26.206 41.7136 25.5266C41.974 25.2122 42.1928 24.8166 42.297 24.4211C42.7137 22.839 42.6928 21.3279 41.5573 19.9689C41.0156 19.3199 40.578 18.5795 40.1405 17.8493C39.5675 16.896 39.8383 15.2632 40.7343 14.5939C41.0156 14.3809 41.5156 14.32 41.9011 14.3606C42.8908 14.462 43.6096 15.0604 44.193 15.8109C45.1515 17.0684 46.0787 18.3564 47.0475 19.614C47.6934 20.4659 48.381 21.2874 49.1207 22.2102C49.5478 21.551 49.9646 20.973 50.3083 20.3645C51.5272 18.2651 52.7149 16.1455 53.9338 14.0361C54.163 13.6406 54.4651 13.2856 54.7776 12.9509C54.9547 12.7582 55.2152 12.6061 55.4652 12.5148C55.9444 12.3323 56.4653 12.2512 56.8925 12.6163C57.3196 12.9915 57.2988 13.5087 57.1321 13.9854C56.9237 14.5939 56.6424 15.1719 56.3716 15.7602C56.1215 16.2977 56.2361 16.7743 56.5904 17.2307C57.1738 17.971 57.8613 18.042 58.5177 17.3727C59.1844 16.6932 59.7887 15.9427 60.4241 15.2328C60.5804 15.0502 60.7471 14.8778 60.9346 14.7257C62.091 13.7521 63.3724 14.0361 64.0079 15.4052C64.8518 17.1901 64.5496 19.0562 63.2578 20.1008C62.3723 20.8107 61.2159 21.3076 60.0491 21.4598C60.1429 21.7032 60.1949 21.9567 60.3304 22.1494C61.6118 24.0864 63.4662 24.9485 65.7998 24.8572C66.6957 24.8268 67.3416 24.2994 67.8938 23.6605C68.5918 22.8492 68.9877 21.906 69.1023 20.8513C69.1439 20.4456 69.2169 20.0501 69.321 19.6545C69.5815 18.7519 70.6337 18.3767 71.4255 18.9142C72.0401 19.33 72.3527 19.9385 72.4047 20.6687C72.4673 21.5916 72.5089 22.5246 72.6444 23.4374C72.8319 24.6645 73.5611 25.3643 74.7071 25.5468C75.8635 25.7294 77.0407 25.1817 77.6033 24.1777C78.3221 22.8999 78.593 21.4902 78.8639 20.0704C78.9785 19.4416 79.1347 18.8128 79.3535 18.2144C79.8536 16.8352 81.4371 16.2165 82.7706 16.8859C83.0206 17.0076 83.1665 17.322 83.3644 17.5451C83.3644 17.9812 83.3644 18.4274 83.3644 18.8635C83.2811 19.4821 83.2394 20.1008 83.0935 20.7093C82.656 22.5855 82.1455 24.4414 81.7496 26.3277C81.4683 27.6766 81.3746 29.066 81.1141 30.425C80.7495 32.3519 80.2703 34.2484 79.9265 36.1753C79.3639 39.3395 77.9575 42.1386 76.1656 44.7754C74.7592 46.8544 72.6756 48.2235 70.6024 49.5825C69.9149 50.0287 69.1856 50.4141 68.4459 50.7792C68.1021 50.9516 67.6958 51.0023 67.3104 51.1038C66.8103 51.1139 66.3311 51.1139 65.8415 51.1139ZM60.1637 19.33C61.2159 19.614 62.5494 18.7519 62.5807 17.9102C62.5911 17.7074 62.4765 17.4234 62.3202 17.3118C62.216 17.2307 61.8618 17.3321 61.7368 17.4538C61.2055 18.0319 60.7158 18.6505 60.1637 19.33Z" fill="#517AA5"></path><path d="M7.5009 0C8.23015 0.111558 8.98024 0.162266 9.68866 0.354957C12.2098 1.01416 14.7518 1.6328 17.2312 2.42385C19.0648 3.01206 20.8879 3.71184 22.5965 4.58402C25.8989 6.26753 27.8783 9.00577 28.3888 12.5959C29.0035 16.967 27.545 20.6889 24.0237 23.4982C20.9817 25.9322 17.4813 27.4737 13.5641 28.0416C12.0327 28.2647 10.5221 28.1735 9.04275 27.6765C8.54269 27.5142 8.39684 27.1491 8.7823 26.855C10.4179 25.6279 9.89702 24.0154 9.64699 22.4739C9.15735 19.4111 8.58436 16.3585 8.11556 13.2855C7.77176 11.0544 7.5009 8.80294 7.26129 6.55149C7.17794 5.74016 7.30296 4.90855 7.33421 4.08708C7.34463 3.92481 7.36547 3.76255 7.39672 3.509C6.56329 3.509 5.79236 3.509 5.01102 3.509C3.96923 3.51915 2.92743 3.55971 1.89606 3.52929C1.09388 3.509 0.416717 3.17433 0 2.43399C0 2.20073 0 1.95734 0 1.72408C0.458388 0.699773 1.34391 0.37524 2.39612 0.283966C3.16705 0.223116 3.92755 0.101416 4.68806 0C5.62567 0 6.56329 0 7.5009 0ZM9.09484 3.61042C9.46988 4.34062 9.85535 4.9694 10.095 5.63875C10.345 6.31824 10.5221 7.03829 10.6054 7.74821C10.918 10.4459 11.1368 13.1537 11.4597 15.8514C11.7618 18.3766 12.1265 20.9019 12.5223 23.4272C12.689 24.5022 13.3974 24.9079 14.4809 24.6746C15.7206 24.4008 16.7728 23.772 17.8459 23.1331C19.6482 22.0581 21.2942 20.8005 22.8048 19.3807C23.5236 18.7113 24.1696 17.9405 24.7113 17.1191C26.1906 14.8676 26.0135 12.4438 24.3571 10.3242C23.4716 9.18832 22.3568 8.29586 21.0963 7.61637C18.273 6.10526 15.2831 4.99983 12.1473 4.25949C11.1472 4.02623 10.1366 3.83354 9.09484 3.61042Z" fill="#517AA5"></path><path d="M26.0865 37.7877C26.4095 36.8547 26.7325 35.9115 27.045 34.9784C27.1388 34.6945 27.1908 34.4308 27.6388 34.4409C28.0451 34.4511 28.2535 34.5322 28.3785 34.9379C28.6702 35.9013 29.0244 36.8445 29.3994 37.9398C29.7016 37.0068 29.962 36.2157 30.2016 35.4145C30.5142 34.3902 30.5037 34.3902 31.6705 34.5119C31.0663 36.2259 30.4725 37.9195 29.8787 39.6132C29.7953 39.6233 29.7432 39.6436 29.6911 39.6436C28.8681 39.6639 28.8681 39.6639 28.6077 38.9235C28.3056 38.0818 28.0139 37.24 27.6805 36.2867C27.3054 37.3516 26.9616 38.2846 26.6491 39.2379C26.5449 39.5726 26.3678 39.674 26.0136 39.6537C25.6698 39.6436 25.4615 39.603 25.3365 39.2177C24.8468 37.737 24.3155 36.2766 23.805 34.806C23.7738 34.7148 23.7633 34.6133 23.7529 34.5221C23.805 34.5018 23.8363 34.4815 23.8675 34.4714C24.8989 34.3902 24.8989 34.3902 25.2114 35.3537C25.4719 36.165 25.7219 36.9764 25.9719 37.7877C26.0136 37.7877 26.0553 37.7877 26.0865 37.7877Z" fill="#517AA5"></path><path d="M48.4955 39.5219C47.5579 39.7146 46.9328 39.5118 46.5578 38.6802C46.3077 38.1224 45.9223 37.7066 45.1305 37.9906C45.1305 38.4774 45.1305 38.9844 45.1305 39.5321C44.7346 39.5321 44.3908 39.5321 44.0054 39.5321C44.0054 37.8587 44.0054 36.1752 44.0054 34.37C45.068 34.4308 46.141 34.4207 47.1828 34.5627C47.8079 34.654 48.2455 35.1306 48.3392 35.7898C48.4434 36.52 48.308 37.1691 47.5891 37.5849C47.5162 37.6255 47.4433 37.6762 47.3704 37.7167C47.3599 37.7269 47.3495 37.7472 47.3078 37.808C47.6829 38.3455 48.0684 38.9033 48.4955 39.5219ZM45.1826 36.9257C45.6514 36.9257 46.089 36.946 46.5161 36.9257C46.9328 36.9054 47.1828 36.6823 47.2037 36.2563C47.2141 35.8101 46.9953 35.5363 46.5578 35.4957C46.1202 35.4552 45.6722 35.4856 45.193 35.4856C45.1826 35.9724 45.1826 36.4186 45.1826 36.9257Z" fill="#517AA5"></path><path d="M52.7354 39.5524C52.7354 37.8791 52.7354 36.1955 52.7354 34.512C53.6521 34.512 54.5585 34.4106 55.444 34.5323C56.7567 34.7149 57.6214 35.8203 57.5797 37.0677C57.5484 38.3354 56.6525 39.38 55.3398 39.5321C54.4856 39.6336 53.6209 39.5524 52.7354 39.5524ZM53.8813 35.5059C53.8813 36.5404 53.8813 37.5342 53.8813 38.5585C54.6835 38.5991 55.4857 38.7512 56.0483 38.021C56.4754 37.4531 56.5171 36.8243 56.1628 36.2057C55.6524 35.3234 54.7668 35.4856 53.8813 35.5059Z" fill="#517AA5"></path><path d="M15.0957 39.5929C15.8354 37.9196 16.523 36.3172 17.2418 34.725C17.3043 34.583 17.5335 34.4207 17.6793 34.4309C17.9606 34.441 18.4086 34.4816 18.4815 34.6438C19.242 36.2462 19.9296 37.8892 20.6485 39.522C19.7213 39.7654 19.4921 39.6741 19.1795 38.8628C19.0649 38.5484 18.8982 38.4368 18.5753 38.4571C18.3148 38.4774 18.0544 38.4977 17.7939 38.4571C17.0647 38.3455 16.5646 38.5484 16.3875 39.309C16.3563 39.4307 16.1375 39.5625 15.9812 39.5929C15.7312 39.6234 15.4499 39.5929 15.0957 39.5929ZM18.5753 37.4328C18.3357 36.8649 18.1377 36.3781 17.8773 35.7594C17.6168 36.3983 17.4189 36.8953 17.2001 37.4328C17.6793 37.4328 18.0856 37.4328 18.5753 37.4328Z" fill="#517AA5"></path><path d="M39.8483 39.5827C39.6087 39.5929 39.4733 39.5929 39.3379 39.6132C38.8274 39.6842 38.5044 39.4915 38.4002 38.9945C38.3065 38.5483 38.0356 38.386 37.5772 38.457C37.3897 38.4875 37.1918 38.4773 37.0042 38.457C36.2854 38.3658 35.7228 38.4773 35.5561 39.3089C35.5353 39.4306 35.3061 39.5625 35.1498 39.5929C34.879 39.6436 34.5977 39.603 34.2539 39.603C34.8269 38.2948 35.3686 37.0474 35.9208 35.7999C36.025 35.5565 36.15 35.303 36.2541 35.0596C36.5354 34.3801 36.5771 34.3396 37.3168 34.441C37.4418 34.4613 37.6189 34.5525 37.671 34.6641C38.4002 36.2563 39.1087 37.8891 39.8483 39.5827ZM37.7752 37.4226C37.546 36.8749 37.3272 36.378 37.0667 35.7594C36.8167 36.378 36.6084 36.8851 36.3792 37.4226C36.8688 37.4226 37.2959 37.4226 37.7752 37.4226Z" fill="#517AA5"></path><path d="M65.4663 35.08C65.2475 35.3842 65.0496 35.6377 64.9246 35.8203C64.3933 35.6783 63.9453 35.5059 63.4765 35.4653C63.2785 35.4451 63.0493 35.6986 62.8306 35.8203C62.9868 35.9927 63.1014 36.2361 63.2994 36.3274C63.6744 36.4998 64.0911 36.5606 64.487 36.6925C65.3517 36.9866 65.6851 37.4531 65.633 38.2239C65.5809 38.9135 65.0496 39.4814 64.2682 39.6234C63.2369 39.806 62.3097 39.5524 61.4658 38.8729C61.6846 38.6194 61.8825 38.376 62.018 38.2239C62.6639 38.4064 63.2265 38.6092 63.7994 38.7005C64.0078 38.7309 64.3828 38.5078 64.4662 38.305C64.6016 37.9703 64.2682 37.8081 63.987 37.7168C63.539 37.5748 63.091 37.4531 62.6535 37.301C61.9555 37.0474 61.6846 36.6519 61.695 35.9623C61.7054 35.3031 62.0701 34.796 62.716 34.583C63.6848 34.2585 64.5704 34.4613 65.4663 35.08Z" fill="#517AA5"></path><path d="M18.1999 52.5032C18.1999 52.2902 18.127 52.128 17.9707 52.0164C17.8145 51.9049 17.5436 51.7832 17.1373 51.6615C16.731 51.5398 16.4185 51.4079 16.1893 51.2862C15.5538 50.9515 15.2308 50.5053 15.2308 49.9374C15.2308 49.6433 15.3142 49.3796 15.4913 49.1463C15.6579 48.9131 15.908 48.7305 16.2205 48.6088C16.5435 48.477 16.8977 48.4161 17.2936 48.4161C17.6894 48.4161 18.0541 48.4871 18.3666 48.6291C18.6791 48.7711 18.9188 48.9739 19.0959 49.2275C19.273 49.481 19.3563 49.7751 19.3563 50.0996H18.1999C18.1999 49.8461 18.1166 49.6534 17.9603 49.5216C17.7936 49.3796 17.5748 49.3187 17.2831 49.3187C17.0019 49.3187 16.7831 49.3796 16.6268 49.4911C16.4705 49.6027 16.3872 49.765 16.3872 49.9475C16.3872 50.1199 16.481 50.2721 16.6581 50.3938C16.8456 50.5155 17.106 50.627 17.4707 50.7284C18.127 50.9211 18.6062 51.1544 18.9083 51.4383C19.2105 51.7223 19.3563 52.0773 19.3563 52.5032C19.3563 52.9697 19.1688 53.345 18.8042 53.6086C18.4395 53.8723 17.9395 54.0143 17.3248 54.0143C16.8977 54.0143 16.5018 53.9332 16.1476 53.781C15.7934 53.6289 15.5225 53.416 15.335 53.1523C15.1475 52.8886 15.0537 52.5742 15.0537 52.2192H16.2101C16.2101 52.8176 16.5747 53.1218 17.3144 53.1218C17.5853 53.1218 17.804 53.0711 17.9603 52.9596C18.1166 52.848 18.1999 52.6959 18.1999 52.5032Z" fill="white"></path><path d="M21.7003 53.9331H20.5439V48.4769H21.7003V53.9331Z" fill="white"></path><path d="M24.2633 53.0305H26.7115V53.9331H23.1069V48.4769H24.2633V53.0305Z" fill="white"></path><path d="M28.9824 52.5742L30.2534 48.4769H31.5348L29.5866 53.9331H28.3886L26.4404 48.4769H27.7218L28.9824 52.5742Z" fill="white"></path><path d="M35.7644 51.5701H33.5454V53.0305H36.1499V53.9331H32.3994V48.4769H36.1499V49.3897H33.5558V50.6878H35.7748V51.5701H35.7644Z" fill="white"></path><path d="M39.2441 51.9352H38.3273V53.9331H37.1709V48.4769H39.2545C39.9108 48.4769 40.4213 48.6189 40.7859 48.9029C41.1401 49.1868 41.3276 49.5925 41.3276 50.1199C41.3276 50.4951 41.2443 50.7994 41.0776 51.0529C40.9109 51.2963 40.6609 51.4991 40.3275 51.6411L41.536 53.8723V53.923H40.2963L39.2441 51.9352ZM38.3169 51.0225H39.2441C39.5358 51.0225 39.7545 50.9515 39.9212 50.8095C40.0775 50.6675 40.1608 50.4647 40.1608 50.2213C40.1608 49.9678 40.0879 49.7649 39.9316 49.6128C39.7858 49.4607 39.5566 49.3897 39.2441 49.3897H38.3169V51.0225Z" fill="white"></path><path d="M49.1931 52.3612L49.9432 48.4871H51.0892L49.8494 53.9331H48.693L47.7867 50.2923L46.8803 53.9331H45.7239L44.4634 48.4769H45.6093L46.3699 52.351L47.297 48.4769H48.2763L49.1931 52.3612Z" fill="white"></path><path d="M53.277 53.9331H52.1206V48.4769H53.277V53.9331Z" fill="white"></path><path d="M59.2362 53.9331H58.0798L55.84 50.343V53.923H54.6836V48.4769H55.84L58.0902 52.0671V48.4769H59.2362V53.9331Z" fill="white"></path><path d="M65.1327 53.9331H63.9763L61.7365 50.3531V53.9331H60.5801V48.4769H61.7365L63.9867 52.0671V48.4769H65.1327V53.9331Z" fill="white"></path><path d="M69.8417 51.5701H67.6227V53.0305H70.2167V53.9331H66.4663V48.4769H70.2063V49.3897H67.6123V50.6878H69.8313V51.5701H69.8417Z" fill="white"></path><path d="M73.3212 51.9352H72.4044V53.9331H71.248V48.4769H73.3316C73.988 48.4769 74.4984 48.6189 74.8631 48.9029C75.2173 49.1868 75.4048 49.5925 75.4048 50.1199C75.4048 50.4951 75.3215 50.7994 75.1548 51.0529C74.9881 51.2963 74.738 51.4991 74.4047 51.6411L75.6132 53.8723V53.923H74.3734L73.3212 51.9352ZM72.394 51.0225H73.3212C73.6129 51.0225 73.8317 50.9515 73.9984 50.8095C74.1546 50.6675 74.238 50.4647 74.238 50.2213C74.238 49.9678 74.1651 49.7649 74.0088 49.6128C73.8629 49.4607 73.6337 49.3897 73.3212 49.3897H72.394V51.0225Z" fill="white"></path></svg> 