<?xml version="1.0" encoding="UTF-8"?> <svg xmlns="http://www.w3.org/2000/svg" width="332" height="276" viewBox="0 0 332 276" fill="none"><g clip-path="url(#clip0_8969_612)"><path opacity="0.15" d="M60 141.4H270" stroke="black" stroke-width="3" stroke-linecap="round"></path><path opacity="0.15" d="M60 141H270" stroke="black" stroke-width="3" stroke-linecap="round"></path><path opacity="0.15" d="M26.4001 74.5996C20.0001 90.7996 16.6001 108.6 16.6001 127C16.6001 191 58.4001 245.2 116.4 263.8" stroke="black" stroke-width="3" stroke-miterlimit="10" stroke-linecap="round"></path><path opacity="0.15" d="M305.4 74.5996C311.8 90.7996 315.2 108.6 315.2 127C315.2 191 273.4 245.2 215.4 263.8" stroke="black" stroke-width="3" stroke-miterlimit="10" stroke-linecap="round"></path><path d="M37.7999 55.4002L36.3999 39.2002L26.3999 52.0002L27.7999 68.0002L37.7999 55.4002Z" fill="#00CEA6"></path><path d="M20.3999 72.3996L13.5999 63.5996C11.7999 67.9996 9.9999 72.3996 8.3999 76.9996L15.9999 86.7996L20.3999 72.3996Z" fill="#00CEA6"></path><path d="M27.7998 90.2002L37.5998 86.8002C38.9998 81.8002 40.5998 77.0002 42.5998 72.2002L32.1998 75.8002L27.7998 90.2002Z" fill="#00CEA6"></path><path d="M12 102.6L3.59995 94.7998C2.59995 99.5998 1.79995 104.4 1.19995 109.2L9.99995 117.4L12 102.6Z" fill="#00CEA6"></path><path d="M35.0002 98.2002L24.2002 104L22.2002 119L33.2002 113C33.6002 108 34.2002 103.2 35.0002 98.2002Z" fill="#00CEA6"></path><path d="M10.6 131.2L0.200001 123.8C0.200001 125.6 0 127.6 0 129.4C0 132.6 0.200001 135.6 0.200001 138.8L10.6 146.2V131.2Z" fill="#00CEA6"></path><path d="M22.7998 131L22.9998 146L33.9998 138C33.3998 133.2 33.1998 128.4 32.9998 123.6L22.7998 131Z" fill="#00CEA6"></path><path d="M14 160L2 154.6C2.8 159.6 3.8 164.4 5 169.4L17.2 174.8L14 160Z" fill="#00CEA6"></path><path d="M39 161.6C37.6 157 36.4 152.2 35.4 147.4L26 157.6L29 172.4L39 161.6Z" fill="#00CEA6"></path><path d="M23.3999 187.4L9.3999 184.4C10.9999 189 12.7999 193.6 14.7999 198L29.3999 201L23.3999 187.4Z" fill="#00CEA6"></path><path d="M48.1998 183.6C45.7998 179.2 43.7998 174.6 41.9998 170L34.7998 182.4L40.9998 196.2L48.1998 183.6Z" fill="#00CEA6"></path><path d="M38.6001 213.2L22.6001 213C25.0001 217.2 27.8001 221.4 30.6001 225.4L47.2001 225.6L38.6001 213.2Z" fill="#00CEA6"></path><path d="M62.1998 205C58.9998 201.2 56.1998 197 53.5998 192.8L48.7998 206.2L57.3998 218.6L62.1998 205Z" fill="#00CEA6"></path><path d="M42.3999 240.2C45.5999 243.8 48.9999 247.2 52.5999 250.6L70.1999 247L59.1999 236.8L42.3999 240.2Z" fill="#00CEA6"></path><path d="M80.1999 223.6C76.3999 220.4 72.5999 216.8 69.1999 213.2L67.3999 227.8L78.3999 238L80.1999 223.6Z" fill="#00CEA6"></path><path d="M70.7998 265.4C73.5998 267.4 76.5998 269.4 79.5998 271.2L82.7998 272.8L98.7998 264.2L85.1998 257.6L70.7998 265.4Z" fill="#00CEA6"></path><path d="M87.7998 229.6L90.5998 246.6L104.2 253.2L101.6 238.4C96.9998 235.8 92.1998 232.8 87.7998 229.6Z" fill="#00CEA6"></path><path d="M305.4 52.0002L295.4 39.2002L294 55.4002L304 68.0002L305.4 52.0002Z" fill="#00CEA6"></path><path d="M323.2 76.8004C321.6 72.2004 320 67.8004 318 63.4004L311.2 72.2004L315.6 86.6004L323.2 76.8004Z" fill="#00CEA6"></path><path d="M304 90.2002L299.6 75.8002L289.2 72.2002C291.2 77.0002 292.8 81.8002 294.2 86.8002L304 90.2002Z" fill="#00CEA6"></path><path d="M321.6 117.4L330.4 109.2C329.8 104.4 329 99.3998 328 94.7998L319.6 102.6L321.6 117.4Z" fill="#00CEA6"></path><path d="M298.6 113L309.6 119L307.6 104L296.8 98.2002C297.6 103.2 298.2 108 298.6 113Z" fill="#00CEA6"></path><path d="M331.6 123.8L321.2 131.2L321 146.2L331.4 138.8C331.6 135.8 331.6 132.6 331.6 129.4C331.8 127.6 331.6 125.6 331.6 123.8Z" fill="#00CEA6"></path><path d="M309 131L298.8 123.6C298.8 128.4 298.4 133.2 297.8 138L308.8 146L309 131Z" fill="#00CEA6"></path><path d="M314.8 174.8L327 169.4C328.2 164.6 329.2 159.6 330 154.6L318 160L314.8 174.8Z" fill="#00CEA6"></path><path d="M293 161.6L303 172.4L306 157.6L296.6 147.4C295.6 152.2 294.4 157 293 161.6Z" fill="#00CEA6"></path><path d="M302.2 201.2L316.8 198.2C318.8 193.8 320.6 189.2 322.2 184.6L308.2 187.6L302.2 201.2Z" fill="#00CEA6"></path><path d="M297.2 182.6L290 170.2C288.2 174.8 286.2 179.4 283.8 183.8L291.2 196.4L297.2 182.6Z" fill="#00CEA6"></path><path d="M284.6 225.6L301.2 225.4C304 221.4 306.6 217.4 309.2 213L293.2 213.2L284.6 225.6Z" fill="#00CEA6"></path><path d="M283.2 206.4L278.4 193C275.8 197.2 272.8 201.2 269.8 205.2L274.6 218.8L283.2 206.4Z" fill="#00CEA6"></path><path d="M261.6 247L279.2 250.6C282.8 247.2 286.2 243.8 289.4 240.2L272.8 236.8L261.6 247Z" fill="#00CEA6"></path><path d="M253.4 238L264.4 227.8L262.6 213.2C259.2 216.8 255.4 220.4 251.6 223.6L253.4 238Z" fill="#00CEA6"></path><path d="M233 264.2L249 272.8L252.2 271.2C255.2 269.4 258.2 267.4 261 265.4L246.4 257.6L233 264.2Z" fill="#00CEA6"></path><path d="M244 229.6C239.6 232.8 235 235.8 230.2 238.4L227.6 253.2L241.2 246.6L244 229.6Z" fill="#00CEA6"></path><path d="M227 35.9996L191.6 0.599609L176.6 15.7996L181.6 20.7996L191.6 10.7996L216.8 35.9996L191.6 61.1996L181.6 50.9996L176.6 45.9996L166.4 35.9996L176.6 25.9996L171.4 20.7996L161.4 30.7996L151.4 20.7996L146.2 15.7996L131.2 0.599609L95.7998 35.9996L131.2 71.1996L146.2 56.1996L141.2 50.9996L131.2 61.1996L106 35.9996L131.2 10.7996L141.2 20.7996L146.2 25.9996L156.4 35.9996L146.2 45.9996L151.4 50.9996L161.4 40.9996L171.4 50.9996L176.6 56.1996L191.6 71.1996L227 35.9996Z" fill="#00CEA6"></path><path d="M161.4 10.7996L171.4 20.7996L176.6 25.9996L186.6 35.9996L176.6 45.9996L181.6 50.9996L196.8 35.9996L181.6 20.7996L176.6 15.7996L161.4 0.599609L146.2 15.7996L151.4 20.7996L161.4 10.7996ZM171.4 50.9996L161.4 61.1996L151.4 50.9996L146.2 45.9996L136.2 35.9996L146.2 25.9996L141.2 20.7996L126.2 35.9996L141.2 50.9996L146.2 56.1996L161.4 71.1996L176.6 56.1996L171.4 50.9996Z" fill="#024B6D"></path><path d="M56 95.6582H70.575V99.4496H60.1478V105.139H69.6862V108.813H60.1478V115.034H70.575V118.826H56" fill="#024B6D"></path><path d="M79.0493 109.937L73.0633 101.287H77.7463L81.4195 107.035H81.4799L85.1533 101.287H89.8937L83.9077 109.937L90.0721 118.886H85.3891L81.5979 112.9H81.5375L77.7463 118.886H73.0059" fill="#024B6D"></path><path d="M105.775 110.115C105.775 106.62 104.054 104.486 101.27 104.486C98.8395 104.486 97.0617 106.324 97.0617 108.694V111.536C97.0617 113.967 98.8395 115.804 101.21 115.804C104.054 115.744 105.775 113.552 105.775 110.115ZM93.0923 101.287H97.0043V102.708H97.0617C98.1895 101.523 99.9067 100.812 101.863 100.812C106.485 100.812 109.744 104.664 109.744 110.115C109.744 115.566 106.485 119.418 101.863 119.418C99.9067 119.418 98.1289 118.647 97.1223 117.522H97.0617V126.41H93.0923" fill="#024B6D"></path><path d="M124.38 108.338C124.262 105.907 122.72 104.25 120.232 104.25C117.922 104.25 116.202 106.028 116.024 108.338H124.38ZM111.997 110.115C111.997 104.604 115.373 100.812 120.171 100.812C125.033 100.812 128.292 104.486 128.292 109.879V111.24H115.966C116.084 114.027 117.683 115.923 120.232 115.923C122.188 115.923 123.491 115.092 124.854 113.018L127.757 115.152C126.157 117.936 123.551 119.36 120.232 119.36C115.373 119.36 111.997 115.626 111.997 110.115Z" fill="#024B6D"></path><path d="M131.134 101.288H134.868V102.827H134.928C135.638 101.702 136.942 100.991 138.659 100.991C139.43 100.991 140.141 101.109 140.793 101.288L140.083 105.197C139.372 105.019 138.78 104.901 138.187 104.901C136.171 104.901 135.104 106.264 135.104 109.109V118.944H131.134" fill="#024B6D"></path><path d="M150.095 104.842V113.552C150.095 114.677 150.51 115.034 151.934 115.034H153.711V118.825H151.577C147.607 118.825 146.126 117.404 146.126 113.731V104.842H143.224V101.287H146.126V97.0186H150.095V101.287H154.422V104.842" fill="#024B6D"></path><path d="M158.334 101.288H162.303V118.886H158.334V101.288ZM158.216 94.2949H162.421V98.3249H158.216V94.2949Z" fill="#024B6D"></path><path d="M165.92 113.136L169.532 112.189C170.124 114.856 171.37 115.983 173.976 115.983C175.872 115.983 177.056 115.27 177.056 114.205C177.056 112.724 175.518 112.071 172.852 111.3C169.474 110.354 166.808 109.226 166.808 106.025C166.808 103.062 169.532 100.812 173.266 100.812C176.76 100.812 179.724 102.886 180.494 105.967L176.82 106.974C176.228 105.078 174.982 104.129 173.266 104.129C171.606 104.129 170.6 104.84 170.6 105.907C170.6 106.914 171.844 107.388 174.094 108.041C177.65 109.048 180.85 110.353 180.85 114.024C180.85 117.226 178.124 119.358 173.976 119.358C169.474 119.358 166.57 117.108 165.92 113.136Z" fill="#024B6D"></path><path d="M195.664 108.338C195.546 105.907 194.006 104.25 191.516 104.25C189.206 104.25 187.486 106.028 187.308 108.338H195.664ZM183.28 110.115C183.28 104.604 186.658 100.812 191.456 100.812C196.318 100.812 199.576 104.486 199.576 109.879V111.24H187.252C187.368 114.027 188.968 115.923 191.516 115.923C193.472 115.923 194.776 115.092 196.14 113.018L199.042 115.152C197.442 117.936 194.836 119.36 191.516 119.36C186.658 119.36 183.28 115.626 183.28 110.115Z" fill="#024B6D"></path><path d="M203.426 118.886H208.226V114.203H203.426V118.886Z" fill="#024B6D"></path><path d="M211.19 110.115C211.19 104.546 214.626 100.812 219.602 100.812C223.812 100.812 226.774 103.361 227.424 107.27L223.632 107.981C223.218 105.731 221.794 104.486 219.602 104.486C216.936 104.486 215.22 106.62 215.22 110.115C215.22 113.61 216.936 115.744 219.602 115.744C221.856 115.744 223.218 114.499 223.632 112.249L227.424 112.96C226.774 116.869 223.75 119.418 219.602 119.418C214.626 119.36 211.19 115.626 211.19 110.115Z" fill="#024B6D"></path><path d="M242.83 110.115C242.83 106.62 241.114 104.486 238.268 104.486C235.424 104.486 233.706 106.62 233.706 110.115C233.706 113.61 235.424 115.744 238.268 115.744C241.114 115.744 242.83 113.61 242.83 110.115ZM229.736 110.115C229.736 104.546 233.172 100.812 238.268 100.812C243.366 100.812 246.8 104.546 246.8 110.115C246.8 115.684 243.366 119.418 238.268 119.418C233.172 119.36 229.736 115.626 229.736 110.115Z" fill="#024B6D"></path><path d="M249.942 101.288H253.674V102.769H253.736C254.682 101.524 256.402 100.753 258.236 100.753C260.014 100.753 261.792 101.584 262.8 102.945H262.86C264.044 101.524 265.586 100.753 267.6 100.753C271.392 100.753 274 103.48 274 106.975V118.826H270.088V107.685C270.088 105.611 268.846 104.426 266.948 104.426C265.052 104.426 263.808 105.79 263.808 107.864V118.826H260.074V107.685C260.074 105.611 258.83 104.426 256.934 104.426C255.038 104.426 253.792 105.79 253.792 107.864V118.826H249.884V101.288" fill="#024B6D"></path><path d="M75.0044 169.352H70.8604L70.8379 167.611H74.6001C75.2215 167.611 75.7643 167.507 76.2285 167.297C76.6927 167.087 77.0521 166.788 77.3066 166.398C77.5687 166.002 77.6997 165.53 77.6997 164.983C77.6997 164.384 77.5837 163.898 77.3516 163.523C77.127 163.142 76.7788 162.865 76.3071 162.692C75.8429 162.513 75.2515 162.423 74.5327 162.423H71.3433V177H69.1758V160.648H74.5327C75.3713 160.648 76.12 160.735 76.7788 160.907C77.4377 161.071 77.9954 161.333 78.4521 161.693C78.9163 162.045 79.2682 162.494 79.5078 163.041C79.7474 163.587 79.8672 164.242 79.8672 165.006C79.8672 165.68 79.695 166.29 79.3506 166.836C79.0062 167.375 78.527 167.817 77.9131 168.162C77.3066 168.506 76.5954 168.727 75.7793 168.824L75.0044 169.352ZM74.9033 177H70.0068L71.231 175.237H74.9033C75.5921 175.237 76.1761 175.117 76.6553 174.877C77.1419 174.638 77.5125 174.301 77.7671 173.867C78.0216 173.425 78.1489 172.905 78.1489 172.306C78.1489 171.699 78.0404 171.175 77.8232 170.733C77.6061 170.292 77.2655 169.951 76.8013 169.711C76.3371 169.472 75.7381 169.352 75.0044 169.352H71.916L71.9385 167.611H76.1611L76.6216 168.24C77.4077 168.308 78.0741 168.532 78.6206 168.914C79.1672 169.288 79.5827 169.768 79.8672 170.352C80.1592 170.936 80.3052 171.579 80.3052 172.283C80.3052 173.301 80.0806 174.162 79.6313 174.866C79.1896 175.562 78.5645 176.094 77.7559 176.461C76.9473 176.82 75.9964 177 74.9033 177ZM88.2339 177.225C87.3879 177.225 86.6204 177.082 85.9316 176.798C85.2503 176.506 84.6626 176.098 84.1685 175.574C83.6818 175.05 83.3075 174.428 83.0454 173.709C82.7834 172.991 82.6523 172.205 82.6523 171.351V170.879C82.6523 169.891 82.7983 169.011 83.0903 168.24C83.3823 167.462 83.7791 166.803 84.2808 166.264C84.7824 165.725 85.3514 165.317 85.9878 165.04C86.6242 164.763 87.283 164.624 87.9644 164.624C88.8328 164.624 89.5815 164.774 90.2104 165.073C90.8468 165.373 91.3672 165.792 91.7715 166.331C92.1758 166.863 92.4753 167.492 92.6699 168.218C92.8646 168.937 92.9619 169.723 92.9619 170.576V171.508H83.8877V169.812H90.8843V169.655C90.8543 169.116 90.742 168.592 90.5474 168.083C90.3602 167.574 90.0607 167.155 89.6489 166.825C89.2371 166.496 88.6756 166.331 87.9644 166.331C87.4927 166.331 87.0584 166.432 86.6616 166.634C86.2648 166.829 85.9242 167.121 85.6396 167.51C85.3551 167.9 85.1343 168.375 84.9771 168.937C84.8198 169.498 84.7412 170.146 84.7412 170.879V171.351C84.7412 171.928 84.8198 172.47 84.9771 172.979C85.1418 173.481 85.3776 173.923 85.6846 174.305C85.999 174.687 86.3771 174.986 86.8188 175.203C87.2681 175.42 87.7772 175.529 88.3462 175.529C89.0799 175.529 89.7013 175.379 90.2104 175.08C90.7196 174.78 91.165 174.38 91.5469 173.878L92.8047 174.877C92.5426 175.274 92.2095 175.652 91.8052 176.012C91.4009 176.371 90.903 176.663 90.3115 176.888C89.7275 177.112 89.035 177.225 88.2339 177.225ZM102.463 173.777C102.463 173.477 102.396 173.2 102.261 172.946C102.133 172.684 101.868 172.448 101.463 172.238C101.067 172.021 100.468 171.834 99.6665 171.677C98.9927 171.535 98.3825 171.366 97.8359 171.171C97.2969 170.977 96.8364 170.741 96.4546 170.464C96.0802 170.187 95.792 169.861 95.5898 169.487C95.3877 169.112 95.2866 168.674 95.2866 168.173C95.2866 167.694 95.3914 167.241 95.6011 166.814C95.8182 166.387 96.1214 166.009 96.5107 165.68C96.9076 165.35 97.383 165.092 97.937 164.905C98.491 164.718 99.1087 164.624 99.79 164.624C100.763 164.624 101.594 164.796 102.283 165.141C102.972 165.485 103.5 165.945 103.867 166.522C104.234 167.091 104.417 167.724 104.417 168.42H102.339C102.339 168.083 102.238 167.757 102.036 167.443C101.841 167.121 101.553 166.855 101.171 166.646C100.797 166.436 100.337 166.331 99.79 166.331C99.2135 166.331 98.7456 166.421 98.3862 166.601C98.0343 166.773 97.776 166.994 97.6113 167.263C97.4541 167.533 97.3755 167.817 97.3755 168.117C97.3755 168.341 97.4129 168.543 97.4878 168.723C97.5701 168.895 97.7124 169.056 97.9146 169.206C98.1167 169.348 98.4012 169.483 98.7681 169.61C99.1349 169.738 99.6029 169.865 100.172 169.992C101.168 170.217 101.987 170.486 102.631 170.801C103.275 171.115 103.754 171.501 104.069 171.958C104.383 172.414 104.541 172.968 104.541 173.62C104.541 174.151 104.428 174.638 104.204 175.08C103.986 175.521 103.668 175.903 103.249 176.225C102.837 176.54 102.343 176.787 101.767 176.966C101.198 177.139 100.557 177.225 99.8462 177.225C98.7756 177.225 97.8696 177.034 97.1284 176.652C96.3872 176.27 95.8257 175.776 95.4438 175.169C95.062 174.563 94.8711 173.923 94.8711 173.249H96.96C96.9899 173.818 97.1546 174.271 97.4541 174.608C97.7536 174.937 98.1204 175.173 98.5547 175.315C98.9889 175.45 99.4194 175.518 99.8462 175.518C100.415 175.518 100.891 175.443 101.272 175.293C101.662 175.143 101.958 174.937 102.16 174.675C102.362 174.413 102.463 174.114 102.463 173.777ZM112.357 164.849V166.443H105.787V164.849H112.357ZM108.011 161.895H110.088V173.99C110.088 174.402 110.152 174.713 110.279 174.922C110.407 175.132 110.571 175.271 110.773 175.338C110.976 175.405 111.193 175.439 111.425 175.439C111.597 175.439 111.777 175.424 111.964 175.394C112.159 175.357 112.305 175.327 112.402 175.304L112.413 177C112.248 177.052 112.031 177.101 111.762 177.146C111.5 177.198 111.181 177.225 110.807 177.225C110.298 177.225 109.83 177.124 109.403 176.921C108.977 176.719 108.636 176.382 108.381 175.911C108.134 175.431 108.011 174.788 108.011 173.979V161.895ZM129.528 172.867C129.528 172.485 129.468 172.148 129.349 171.856C129.236 171.557 129.034 171.287 128.742 171.048C128.458 170.808 128.061 170.58 127.552 170.363C127.05 170.146 126.414 169.925 125.643 169.7C124.834 169.461 124.104 169.195 123.453 168.903C122.801 168.603 122.243 168.263 121.779 167.881C121.315 167.499 120.959 167.061 120.712 166.567C120.465 166.073 120.342 165.507 120.342 164.871C120.342 164.235 120.473 163.647 120.735 163.108C120.997 162.569 121.371 162.101 121.858 161.704C122.352 161.3 122.94 160.985 123.621 160.761C124.302 160.536 125.062 160.424 125.901 160.424C127.129 160.424 128.169 160.66 129.023 161.131C129.884 161.596 130.539 162.206 130.988 162.962C131.438 163.711 131.662 164.512 131.662 165.365H129.506C129.506 164.751 129.375 164.208 129.113 163.737C128.851 163.258 128.454 162.883 127.922 162.614C127.391 162.337 126.717 162.198 125.901 162.198C125.13 162.198 124.493 162.314 123.992 162.546C123.49 162.778 123.116 163.093 122.869 163.49C122.629 163.887 122.509 164.34 122.509 164.849C122.509 165.193 122.58 165.507 122.723 165.792C122.872 166.069 123.101 166.327 123.408 166.567C123.722 166.806 124.119 167.027 124.598 167.229C125.085 167.432 125.665 167.626 126.339 167.813C127.267 168.076 128.068 168.368 128.742 168.689C129.416 169.011 129.97 169.375 130.404 169.779C130.846 170.176 131.172 170.629 131.381 171.138C131.598 171.639 131.707 172.208 131.707 172.845C131.707 173.511 131.572 174.114 131.303 174.653C131.033 175.192 130.648 175.652 130.146 176.034C129.644 176.416 129.042 176.712 128.338 176.921C127.642 177.124 126.863 177.225 126.002 177.225C125.246 177.225 124.501 177.12 123.767 176.91C123.041 176.701 122.378 176.386 121.779 175.967C121.188 175.548 120.712 175.031 120.353 174.417C120.001 173.796 119.825 173.077 119.825 172.261H121.981C121.981 172.822 122.09 173.305 122.307 173.709C122.524 174.106 122.82 174.436 123.194 174.698C123.576 174.96 124.007 175.154 124.486 175.282C124.972 175.402 125.478 175.461 126.002 175.461C126.758 175.461 127.398 175.357 127.922 175.147C128.446 174.937 128.843 174.638 129.113 174.249C129.39 173.859 129.528 173.399 129.528 172.867ZM144.858 175.237V177H136.199V175.237H144.858ZM136.637 160.648V177H134.47V160.648H136.637ZM143.712 167.679V169.442H136.199V167.679H143.712ZM144.746 160.648V162.423H136.199V160.648H144.746ZM160.131 168.308V169.341C160.131 170.569 159.978 171.669 159.671 172.643C159.364 173.616 158.922 174.443 158.346 175.125C157.769 175.806 157.077 176.326 156.268 176.686C155.467 177.045 154.569 177.225 153.573 177.225C152.607 177.225 151.72 177.045 150.911 176.686C150.11 176.326 149.414 175.806 148.822 175.125C148.238 174.443 147.785 173.616 147.463 172.643C147.141 171.669 146.98 170.569 146.98 169.341V168.308C146.98 167.08 147.138 165.983 147.452 165.017C147.774 164.044 148.227 163.216 148.811 162.535C149.395 161.846 150.088 161.322 150.889 160.963C151.697 160.604 152.584 160.424 153.55 160.424C154.546 160.424 155.444 160.604 156.246 160.963C157.054 161.322 157.747 161.846 158.323 162.535C158.907 163.216 159.353 164.044 159.66 165.017C159.974 165.983 160.131 167.08 160.131 168.308ZM157.986 169.341V168.285C157.986 167.312 157.885 166.451 157.683 165.702C157.488 164.953 157.2 164.325 156.818 163.815C156.437 163.306 155.969 162.921 155.415 162.659C154.868 162.397 154.247 162.266 153.55 162.266C152.876 162.266 152.266 162.397 151.72 162.659C151.181 162.921 150.716 163.306 150.327 163.815C149.945 164.325 149.65 164.953 149.44 165.702C149.23 166.451 149.125 167.312 149.125 168.285V169.341C149.125 170.322 149.23 171.19 149.44 171.946C149.65 172.695 149.949 173.328 150.338 173.844C150.735 174.353 151.203 174.739 151.742 175.001C152.289 175.263 152.899 175.394 153.573 175.394C154.277 175.394 154.902 175.263 155.448 175.001C155.995 174.739 156.455 174.353 156.83 173.844C157.211 173.328 157.5 172.695 157.694 171.946C157.889 171.19 157.986 170.322 157.986 169.341ZM175.135 162.097L169.722 177H167.51L173.743 160.648H175.169L175.135 162.097ZM179.672 177L174.248 162.097L174.214 160.648H175.641L181.896 177H179.672ZM179.392 170.947V172.721H170.205V170.947H179.392ZM191.644 164.849H193.531V176.742C193.531 177.812 193.314 178.726 192.879 179.482C192.445 180.238 191.839 180.811 191.06 181.2C190.289 181.597 189.398 181.795 188.387 181.795C187.968 181.795 187.474 181.728 186.905 181.593C186.343 181.466 185.789 181.245 185.243 180.931C184.704 180.624 184.251 180.208 183.884 179.684L184.973 178.449C185.482 179.063 186.014 179.489 186.568 179.729C187.129 179.969 187.683 180.088 188.23 180.088C188.889 180.088 189.458 179.965 189.937 179.718C190.416 179.471 190.787 179.104 191.049 178.617C191.318 178.138 191.453 177.547 191.453 176.843V167.521L191.644 164.849ZM183.277 171.059V170.823C183.277 169.895 183.386 169.053 183.603 168.296C183.828 167.533 184.146 166.878 184.558 166.331C184.977 165.785 185.482 165.365 186.074 165.073C186.665 164.774 187.332 164.624 188.073 164.624C188.836 164.624 189.503 164.759 190.072 165.028C190.648 165.29 191.135 165.676 191.532 166.185C191.936 166.687 192.254 167.293 192.486 168.004C192.718 168.716 192.879 169.521 192.969 170.419V171.452C192.887 172.343 192.726 173.144 192.486 173.855C192.254 174.567 191.936 175.173 191.532 175.675C191.135 176.176 190.648 176.562 190.072 176.832C189.495 177.094 188.821 177.225 188.05 177.225C187.324 177.225 186.665 177.071 186.074 176.764C185.49 176.457 184.988 176.027 184.569 175.473C184.15 174.919 183.828 174.267 183.603 173.519C183.386 172.762 183.277 171.943 183.277 171.059ZM185.355 170.823V171.059C185.355 171.666 185.415 172.235 185.535 172.766C185.662 173.298 185.853 173.766 186.107 174.17C186.369 174.574 186.703 174.892 187.107 175.125C187.511 175.349 187.994 175.461 188.556 175.461C189.244 175.461 189.813 175.315 190.263 175.023C190.712 174.731 191.068 174.346 191.33 173.867C191.599 173.388 191.809 172.867 191.958 172.306V169.599C191.876 169.187 191.749 168.791 191.577 168.409C191.412 168.019 191.195 167.675 190.925 167.375C190.663 167.069 190.338 166.825 189.948 166.646C189.559 166.466 189.102 166.376 188.578 166.376C188.009 166.376 187.519 166.496 187.107 166.735C186.703 166.967 186.369 167.289 186.107 167.701C185.853 168.105 185.662 168.577 185.535 169.116C185.415 169.648 185.355 170.217 185.355 170.823ZM201.729 177.225C200.883 177.225 200.116 177.082 199.427 176.798C198.745 176.506 198.158 176.098 197.664 175.574C197.177 175.05 196.803 174.428 196.541 173.709C196.278 172.991 196.147 172.205 196.147 171.351V170.879C196.147 169.891 196.293 169.011 196.585 168.24C196.877 167.462 197.274 166.803 197.776 166.264C198.278 165.725 198.847 165.317 199.483 165.04C200.119 164.763 200.778 164.624 201.459 164.624C202.328 164.624 203.077 164.774 203.706 165.073C204.342 165.373 204.862 165.792 205.267 166.331C205.671 166.863 205.97 167.492 206.165 168.218C206.36 168.937 206.457 169.723 206.457 170.576V171.508H197.383V169.812H204.379V169.655C204.349 169.116 204.237 168.592 204.042 168.083C203.855 167.574 203.556 167.155 203.144 166.825C202.732 166.496 202.171 166.331 201.459 166.331C200.988 166.331 200.554 166.432 200.157 166.634C199.76 166.829 199.419 167.121 199.135 167.51C198.85 167.9 198.629 168.375 198.472 168.937C198.315 169.498 198.236 170.146 198.236 170.879V171.351C198.236 171.928 198.315 172.47 198.472 172.979C198.637 173.481 198.873 173.923 199.18 174.305C199.494 174.687 199.872 174.986 200.314 175.203C200.763 175.42 201.272 175.529 201.841 175.529C202.575 175.529 203.196 175.379 203.706 175.08C204.215 174.78 204.66 174.38 205.042 173.878L206.3 174.877C206.038 175.274 205.705 175.652 205.3 176.012C204.896 176.371 204.398 176.663 203.807 176.888C203.223 177.112 202.53 177.225 201.729 177.225ZM210.96 167.443V177H208.883V164.849H210.848L210.96 167.443ZM210.466 170.464L209.602 170.43C209.609 169.599 209.733 168.832 209.972 168.128C210.212 167.417 210.549 166.799 210.983 166.275C211.417 165.751 211.934 165.347 212.533 165.062C213.139 164.77 213.809 164.624 214.543 164.624C215.142 164.624 215.681 164.706 216.16 164.871C216.639 165.028 217.047 165.283 217.384 165.635C217.729 165.987 217.991 166.443 218.17 167.005C218.35 167.559 218.44 168.236 218.44 169.038V177H216.351V169.015C216.351 168.379 216.257 167.87 216.07 167.488C215.883 167.098 215.61 166.818 215.25 166.646C214.891 166.466 214.449 166.376 213.925 166.376C213.409 166.376 212.937 166.485 212.51 166.702C212.091 166.919 211.728 167.218 211.421 167.6C211.121 167.982 210.886 168.42 210.713 168.914C210.549 169.401 210.466 169.917 210.466 170.464ZM226.458 175.518C226.953 175.518 227.409 175.417 227.829 175.214C228.248 175.012 228.592 174.735 228.862 174.383C229.131 174.024 229.285 173.616 229.322 173.159H231.299C231.261 173.878 231.018 174.548 230.569 175.169C230.127 175.783 229.547 176.281 228.828 176.663C228.109 177.037 227.319 177.225 226.458 177.225C225.545 177.225 224.748 177.064 224.066 176.742C223.393 176.42 222.831 175.978 222.382 175.417C221.94 174.855 221.607 174.211 221.382 173.485C221.165 172.751 221.057 171.976 221.057 171.16V170.688C221.057 169.872 221.165 169.101 221.382 168.375C221.607 167.641 221.94 166.994 222.382 166.432C222.831 165.871 223.393 165.429 224.066 165.107C224.748 164.785 225.545 164.624 226.458 164.624C227.409 164.624 228.24 164.819 228.952 165.208C229.663 165.59 230.221 166.114 230.625 166.78C231.037 167.439 231.261 168.188 231.299 169.026H229.322C229.285 168.525 229.143 168.072 228.896 167.667C228.656 167.263 228.326 166.941 227.907 166.702C227.495 166.455 227.013 166.331 226.458 166.331C225.822 166.331 225.287 166.458 224.853 166.713C224.426 166.96 224.085 167.297 223.831 167.724C223.583 168.143 223.404 168.611 223.292 169.127C223.187 169.637 223.134 170.157 223.134 170.688V171.16C223.134 171.692 223.187 172.216 223.292 172.732C223.396 173.249 223.572 173.717 223.819 174.136C224.074 174.556 224.415 174.892 224.841 175.147C225.276 175.394 225.815 175.518 226.458 175.518ZM235.892 164.849V177H233.803V164.849H235.892ZM233.646 161.625C233.646 161.289 233.747 161.004 233.949 160.772C234.159 160.54 234.466 160.424 234.87 160.424C235.267 160.424 235.57 160.54 235.78 160.772C235.997 161.004 236.105 161.289 236.105 161.625C236.105 161.947 235.997 162.224 235.78 162.457C235.57 162.681 235.267 162.793 234.87 162.793C234.466 162.793 234.159 162.681 233.949 162.457C233.747 162.224 233.646 161.947 233.646 161.625ZM244.27 177.225C243.424 177.225 242.657 177.082 241.968 176.798C241.286 176.506 240.699 176.098 240.205 175.574C239.718 175.05 239.344 174.428 239.082 173.709C238.819 172.991 238.688 172.205 238.688 171.351V170.879C238.688 169.891 238.834 169.011 239.126 168.24C239.418 167.462 239.815 166.803 240.317 166.264C240.819 165.725 241.388 165.317 242.024 165.04C242.66 164.763 243.319 164.624 244 164.624C244.869 164.624 245.618 164.774 246.247 165.073C246.883 165.373 247.403 165.792 247.808 166.331C248.212 166.863 248.511 167.492 248.706 168.218C248.901 168.937 248.998 169.723 248.998 170.576V171.508H239.924V169.812H246.92V169.655C246.89 169.116 246.778 168.592 246.583 168.083C246.396 167.574 246.097 167.155 245.685 166.825C245.273 166.496 244.712 166.331 244 166.331C243.529 166.331 243.095 166.432 242.698 166.634C242.301 166.829 241.96 167.121 241.676 167.51C241.391 167.9 241.17 168.375 241.013 168.937C240.856 169.498 240.777 170.146 240.777 170.879V171.351C240.777 171.928 240.856 172.47 241.013 172.979C241.178 173.481 241.414 173.923 241.721 174.305C242.035 174.687 242.413 174.986 242.855 175.203C243.304 175.42 243.813 175.529 244.382 175.529C245.116 175.529 245.737 175.379 246.247 175.08C246.756 174.78 247.201 174.38 247.583 173.878L248.841 174.877C248.579 175.274 248.246 175.652 247.841 176.012C247.437 176.371 246.939 176.663 246.348 176.888C245.764 177.112 245.071 177.225 244.27 177.225ZM258.499 173.777C258.499 173.477 258.432 173.2 258.297 172.946C258.17 172.684 257.904 172.448 257.5 172.238C257.103 172.021 256.504 171.834 255.703 171.677C255.029 171.535 254.419 171.366 253.872 171.171C253.333 170.977 252.873 170.741 252.491 170.464C252.116 170.187 251.828 169.861 251.626 169.487C251.424 169.112 251.323 168.674 251.323 168.173C251.323 167.694 251.428 167.241 251.637 166.814C251.854 166.387 252.158 166.009 252.547 165.68C252.944 165.35 253.419 165.092 253.973 164.905C254.527 164.718 255.145 164.624 255.826 164.624C256.799 164.624 257.631 164.796 258.319 165.141C259.008 165.485 259.536 165.945 259.903 166.522C260.27 167.091 260.453 167.724 260.453 168.42H258.375C258.375 168.083 258.274 167.757 258.072 167.443C257.878 167.121 257.589 166.855 257.208 166.646C256.833 166.436 256.373 166.331 255.826 166.331C255.25 166.331 254.782 166.421 254.422 166.601C254.07 166.773 253.812 166.994 253.647 167.263C253.49 167.533 253.412 167.817 253.412 168.117C253.412 168.341 253.449 168.543 253.524 168.723C253.606 168.895 253.749 169.056 253.951 169.206C254.153 169.348 254.437 169.483 254.804 169.61C255.171 169.738 255.639 169.865 256.208 169.992C257.204 170.217 258.024 170.486 258.667 170.801C259.311 171.115 259.791 171.501 260.105 171.958C260.419 172.414 260.577 172.968 260.577 173.62C260.577 174.151 260.464 174.638 260.24 175.08C260.023 175.521 259.704 175.903 259.285 176.225C258.873 176.54 258.379 176.787 257.803 176.966C257.234 177.139 256.594 177.225 255.882 177.225C254.812 177.225 253.906 177.034 253.165 176.652C252.423 176.27 251.862 175.776 251.48 175.169C251.098 174.563 250.907 173.923 250.907 173.249H252.996C253.026 173.818 253.191 174.271 253.49 174.608C253.79 174.937 254.157 175.173 254.591 175.315C255.025 175.45 255.456 175.518 255.882 175.518C256.451 175.518 256.927 175.443 257.309 175.293C257.698 175.143 257.994 174.937 258.196 174.675C258.398 174.413 258.499 174.114 258.499 173.777Z" fill="#00CEA6"></path><path d="M113.923 188.849V201H111.834V188.849H113.923ZM111.677 185.625C111.677 185.289 111.778 185.004 111.98 184.772C112.19 184.54 112.497 184.424 112.901 184.424C113.298 184.424 113.601 184.54 113.811 184.772C114.028 185.004 114.137 185.289 114.137 185.625C114.137 185.947 114.028 186.224 113.811 186.457C113.601 186.681 113.298 186.793 112.901 186.793C112.497 186.793 112.19 186.681 111.98 186.457C111.778 186.224 111.677 185.947 111.677 185.625ZM119.336 191.443V201H117.259V188.849H119.224L119.336 191.443ZM118.842 194.464L117.978 194.43C117.985 193.599 118.109 192.832 118.348 192.128C118.588 191.417 118.925 190.799 119.359 190.275C119.793 189.751 120.31 189.347 120.909 189.062C121.515 188.77 122.185 188.624 122.919 188.624C123.518 188.624 124.057 188.706 124.536 188.871C125.015 189.028 125.423 189.283 125.76 189.635C126.105 189.987 126.367 190.443 126.546 191.005C126.726 191.559 126.816 192.236 126.816 193.038V201H124.727V193.015C124.727 192.379 124.633 191.87 124.446 191.488C124.259 191.098 123.986 190.818 123.626 190.646C123.267 190.466 122.825 190.376 122.301 190.376C121.785 190.376 121.313 190.485 120.886 190.702C120.467 190.919 120.104 191.218 119.797 191.6C119.497 191.982 119.262 192.42 119.089 192.914C118.925 193.401 118.842 193.917 118.842 194.464ZM145.863 195.8H148.019C147.907 196.833 147.611 197.758 147.132 198.574C146.653 199.39 145.975 200.038 145.099 200.517C144.223 200.989 143.13 201.225 141.82 201.225C140.861 201.225 139.989 201.045 139.203 200.686C138.424 200.326 137.754 199.817 137.193 199.158C136.631 198.492 136.197 197.694 135.89 196.766C135.591 195.83 135.441 194.79 135.441 193.644V192.016C135.441 190.87 135.591 189.833 135.89 188.905C136.197 187.969 136.635 187.168 137.204 186.501C137.781 185.835 138.473 185.322 139.282 184.963C140.09 184.604 141 184.424 142.011 184.424C143.246 184.424 144.291 184.656 145.144 185.12C145.998 185.584 146.66 186.228 147.132 187.052C147.611 187.868 147.907 188.815 148.019 189.893H145.863C145.758 189.129 145.563 188.474 145.279 187.928C144.994 187.374 144.59 186.947 144.066 186.647C143.542 186.348 142.857 186.198 142.011 186.198C141.285 186.198 140.644 186.337 140.09 186.614C139.544 186.891 139.083 187.284 138.709 187.793C138.342 188.302 138.065 188.912 137.878 189.624C137.691 190.335 137.597 191.125 137.597 191.993V193.644C137.597 194.445 137.68 195.198 137.844 195.901C138.016 196.605 138.275 197.223 138.619 197.754C138.964 198.286 139.402 198.705 139.933 199.012C140.465 199.312 141.094 199.461 141.82 199.461C142.741 199.461 143.474 199.315 144.021 199.023C144.568 198.731 144.979 198.312 145.256 197.766C145.541 197.219 145.743 196.564 145.863 195.8ZM152.736 183.75V201H150.658V183.75H152.736ZM152.242 194.464L151.377 194.43C151.384 193.599 151.508 192.832 151.748 192.128C151.987 191.417 152.324 190.799 152.758 190.275C153.193 189.751 153.709 189.347 154.308 189.062C154.915 188.77 155.585 188.624 156.318 188.624C156.917 188.624 157.456 188.706 157.936 188.871C158.415 189.028 158.823 189.283 159.16 189.635C159.504 189.987 159.766 190.443 159.946 191.005C160.125 191.559 160.215 192.236 160.215 193.038V201H158.126V193.015C158.126 192.379 158.033 191.87 157.846 191.488C157.659 191.098 157.385 190.818 157.026 190.646C156.667 190.466 156.225 190.376 155.701 190.376C155.184 190.376 154.712 190.485 154.286 190.702C153.866 190.919 153.503 191.218 153.196 191.6C152.897 191.982 152.661 192.42 152.489 192.914C152.324 193.401 152.242 193.917 152.242 194.464ZM165.583 188.849V201H163.495V188.849H165.583ZM163.337 185.625C163.337 185.289 163.438 185.004 163.641 184.772C163.85 184.54 164.157 184.424 164.562 184.424C164.958 184.424 165.262 184.54 165.471 184.772C165.688 185.004 165.797 185.289 165.797 185.625C165.797 185.947 165.688 186.224 165.471 186.457C165.262 186.681 164.958 186.793 164.562 186.793C164.157 186.793 163.85 186.681 163.641 186.457C163.438 186.224 163.337 185.947 163.337 185.625ZM173.782 199.518C174.276 199.518 174.733 199.417 175.152 199.214C175.571 199.012 175.916 198.735 176.185 198.383C176.455 198.024 176.608 197.616 176.646 197.159H178.622C178.585 197.878 178.341 198.548 177.892 199.169C177.45 199.783 176.87 200.281 176.151 200.663C175.433 201.037 174.643 201.225 173.782 201.225C172.868 201.225 172.071 201.064 171.39 200.742C170.716 200.42 170.154 199.978 169.705 199.417C169.263 198.855 168.93 198.211 168.706 197.485C168.488 196.751 168.38 195.976 168.38 195.16V194.688C168.38 193.872 168.488 193.101 168.706 192.375C168.93 191.641 169.263 190.994 169.705 190.432C170.154 189.871 170.716 189.429 171.39 189.107C172.071 188.785 172.868 188.624 173.782 188.624C174.733 188.624 175.564 188.819 176.275 189.208C176.986 189.59 177.544 190.114 177.948 190.78C178.36 191.439 178.585 192.188 178.622 193.026H176.646C176.608 192.525 176.466 192.072 176.219 191.667C175.979 191.263 175.65 190.941 175.23 190.702C174.819 190.455 174.336 190.331 173.782 190.331C173.145 190.331 172.61 190.458 172.176 190.713C171.749 190.96 171.408 191.297 171.154 191.724C170.907 192.143 170.727 192.611 170.615 193.127C170.51 193.637 170.458 194.157 170.458 194.688V195.16C170.458 195.692 170.51 196.216 170.615 196.732C170.72 197.249 170.896 197.717 171.143 198.136C171.397 198.556 171.738 198.892 172.165 199.147C172.599 199.394 173.138 199.518 173.782 199.518ZM188.123 198.922V192.667C188.123 192.188 188.026 191.772 187.831 191.42C187.644 191.061 187.359 190.784 186.978 190.589C186.596 190.395 186.124 190.297 185.562 190.297C185.038 190.297 184.578 190.387 184.181 190.567C183.792 190.747 183.485 190.982 183.26 191.274C183.043 191.566 182.935 191.881 182.935 192.218H180.857C180.857 191.784 180.969 191.353 181.194 190.926C181.418 190.5 181.74 190.114 182.16 189.77C182.586 189.418 183.096 189.141 183.687 188.938C184.286 188.729 184.952 188.624 185.686 188.624C186.569 188.624 187.348 188.774 188.022 189.073C188.703 189.373 189.235 189.826 189.617 190.432C190.006 191.031 190.201 191.784 190.201 192.689V198.35C190.201 198.754 190.234 199.184 190.302 199.641C190.377 200.098 190.485 200.491 190.627 200.82V201H188.46C188.355 200.76 188.273 200.442 188.213 200.045C188.153 199.641 188.123 199.267 188.123 198.922ZM188.482 193.633L188.505 195.093H186.405C185.813 195.093 185.285 195.141 184.821 195.239C184.357 195.329 183.968 195.467 183.653 195.654C183.339 195.841 183.099 196.077 182.935 196.362C182.77 196.639 182.688 196.965 182.688 197.339C182.688 197.721 182.774 198.069 182.946 198.383C183.118 198.698 183.376 198.949 183.721 199.136C184.073 199.315 184.503 199.405 185.012 199.405C185.649 199.405 186.21 199.271 186.697 199.001C187.183 198.731 187.569 198.402 187.854 198.013C188.146 197.623 188.303 197.245 188.325 196.878L189.212 197.878C189.16 198.192 189.018 198.541 188.786 198.922C188.554 199.304 188.243 199.671 187.854 200.023C187.472 200.367 187.015 200.656 186.483 200.888C185.959 201.112 185.368 201.225 184.709 201.225C183.885 201.225 183.163 201.064 182.542 200.742C181.928 200.42 181.448 199.989 181.104 199.45C180.767 198.904 180.599 198.293 180.599 197.62C180.599 196.968 180.726 196.396 180.98 195.901C181.235 195.4 181.602 194.984 182.081 194.655C182.56 194.318 183.137 194.063 183.811 193.891C184.484 193.719 185.237 193.633 186.068 193.633H188.482ZM201.341 188.849H203.228V200.742C203.228 201.812 203.011 202.726 202.577 203.482C202.142 204.238 201.536 204.811 200.757 205.2C199.986 205.597 199.095 205.795 198.084 205.795C197.665 205.795 197.171 205.728 196.602 205.593C196.041 205.466 195.486 205.245 194.94 204.931C194.401 204.624 193.948 204.208 193.581 203.684L194.67 202.449C195.18 203.063 195.711 203.489 196.265 203.729C196.827 203.969 197.381 204.088 197.927 204.088C198.586 204.088 199.155 203.965 199.634 203.718C200.113 203.471 200.484 203.104 200.746 202.617C201.016 202.138 201.15 201.547 201.15 200.843V191.521L201.341 188.849ZM192.975 195.059V194.823C192.975 193.895 193.083 193.053 193.3 192.296C193.525 191.533 193.843 190.878 194.255 190.331C194.674 189.785 195.18 189.365 195.771 189.073C196.362 188.774 197.029 188.624 197.77 188.624C198.534 188.624 199.2 188.759 199.769 189.028C200.346 189.29 200.832 189.676 201.229 190.185C201.633 190.687 201.951 191.293 202.184 192.004C202.416 192.716 202.577 193.521 202.667 194.419V195.452C202.584 196.343 202.423 197.144 202.184 197.855C201.951 198.567 201.633 199.173 201.229 199.675C200.832 200.176 200.346 200.562 199.769 200.832C199.193 201.094 198.519 201.225 197.748 201.225C197.021 201.225 196.362 201.071 195.771 200.764C195.187 200.457 194.685 200.027 194.266 199.473C193.847 198.919 193.525 198.267 193.3 197.519C193.083 196.762 192.975 195.943 192.975 195.059ZM195.052 194.823V195.059C195.052 195.666 195.112 196.235 195.232 196.766C195.359 197.298 195.55 197.766 195.805 198.17C196.067 198.574 196.4 198.892 196.804 199.125C197.208 199.349 197.691 199.461 198.253 199.461C198.942 199.461 199.511 199.315 199.96 199.023C200.409 198.731 200.765 198.346 201.027 197.867C201.296 197.388 201.506 196.867 201.656 196.306V193.599C201.573 193.187 201.446 192.791 201.274 192.409C201.109 192.019 200.892 191.675 200.623 191.375C200.361 191.069 200.035 190.825 199.646 190.646C199.256 190.466 198.799 190.376 198.275 190.376C197.706 190.376 197.216 190.496 196.804 190.735C196.4 190.967 196.067 191.289 195.805 191.701C195.55 192.105 195.359 192.577 195.232 193.116C195.112 193.648 195.052 194.217 195.052 194.823ZM205.833 195.059V194.801C205.833 193.925 205.961 193.112 206.215 192.364C206.47 191.608 206.837 190.952 207.316 190.398C207.795 189.837 208.375 189.403 209.057 189.096C209.738 188.781 210.502 188.624 211.348 188.624C212.201 188.624 212.969 188.781 213.65 189.096C214.339 189.403 214.923 189.837 215.402 190.398C215.889 190.952 216.259 191.608 216.514 192.364C216.768 193.112 216.896 193.925 216.896 194.801V195.059C216.896 195.935 216.768 196.747 216.514 197.496C216.259 198.245 215.889 198.9 215.402 199.461C214.923 200.015 214.342 200.45 213.661 200.764C212.987 201.071 212.224 201.225 211.37 201.225C210.517 201.225 209.749 201.071 209.068 200.764C208.387 200.45 207.803 200.015 207.316 199.461C206.837 198.9 206.47 198.245 206.215 197.496C205.961 196.747 205.833 195.935 205.833 195.059ZM207.911 194.801V195.059C207.911 195.666 207.982 196.238 208.125 196.777C208.267 197.309 208.48 197.781 208.765 198.192C209.057 198.604 209.42 198.93 209.854 199.169C210.288 199.402 210.794 199.518 211.37 199.518C211.939 199.518 212.437 199.402 212.864 199.169C213.298 198.93 213.657 198.604 213.942 198.192C214.226 197.781 214.44 197.309 214.582 196.777C214.732 196.238 214.807 195.666 214.807 195.059V194.801C214.807 194.202 214.732 193.637 214.582 193.105C214.44 192.566 214.223 192.09 213.931 191.679C213.646 191.259 213.287 190.93 212.853 190.69C212.426 190.451 211.924 190.331 211.348 190.331C210.779 190.331 210.277 190.451 209.843 190.69C209.416 190.93 209.057 191.259 208.765 191.679C208.48 192.09 208.267 192.566 208.125 193.105C207.982 193.637 207.911 194.202 207.911 194.801Z" fill="#00CEA6"></path><path d="M144.797 273.625V276H129.906V273.922L137.359 265.625C138.276 264.604 138.984 263.74 139.484 263.031C139.995 262.312 140.349 261.672 140.547 261.109C140.755 260.536 140.859 259.953 140.859 259.359C140.859 258.609 140.703 257.932 140.391 257.328C140.089 256.714 139.641 256.224 139.047 255.859C138.453 255.495 137.734 255.312 136.891 255.312C135.88 255.312 135.036 255.51 134.359 255.906C133.693 256.292 133.193 256.833 132.859 257.531C132.526 258.229 132.359 259.031 132.359 259.938H129.469C129.469 258.656 129.75 257.484 130.312 256.422C130.875 255.359 131.708 254.516 132.812 253.891C133.917 253.255 135.276 252.938 136.891 252.938C138.328 252.938 139.557 253.193 140.578 253.703C141.599 254.203 142.38 254.911 142.922 255.828C143.474 256.734 143.75 257.797 143.75 259.016C143.75 259.682 143.635 260.359 143.406 261.047C143.188 261.724 142.88 262.401 142.484 263.078C142.099 263.755 141.646 264.422 141.125 265.078C140.615 265.734 140.068 266.38 139.484 267.016L133.391 273.625H144.797ZM162.172 262.812V266.281C162.172 268.146 162.005 269.719 161.672 271C161.339 272.281 160.859 273.312 160.234 274.094C159.609 274.875 158.854 275.443 157.969 275.797C157.094 276.141 156.104 276.312 155 276.312C154.125 276.312 153.318 276.203 152.578 275.984C151.839 275.766 151.172 275.417 150.578 274.938C149.995 274.448 149.495 273.812 149.078 273.031C148.661 272.25 148.344 271.302 148.125 270.188C147.906 269.073 147.797 267.771 147.797 266.281V262.812C147.797 260.948 147.964 259.385 148.297 258.125C148.641 256.865 149.125 255.854 149.75 255.094C150.375 254.323 151.125 253.771 152 253.438C152.885 253.104 153.875 252.938 154.969 252.938C155.854 252.938 156.667 253.047 157.406 253.266C158.156 253.474 158.823 253.812 159.406 254.281C159.99 254.74 160.484 255.354 160.891 256.125C161.307 256.885 161.625 257.818 161.844 258.922C162.062 260.026 162.172 261.323 162.172 262.812ZM159.266 266.75V262.328C159.266 261.307 159.203 260.411 159.078 259.641C158.964 258.859 158.792 258.193 158.562 257.641C158.333 257.089 158.042 256.641 157.688 256.297C157.344 255.953 156.943 255.703 156.484 255.547C156.036 255.38 155.531 255.297 154.969 255.297C154.281 255.297 153.672 255.427 153.141 255.688C152.609 255.938 152.161 256.339 151.797 256.891C151.443 257.443 151.172 258.167 150.984 259.062C150.797 259.958 150.703 261.047 150.703 262.328V266.75C150.703 267.771 150.76 268.672 150.875 269.453C151 270.234 151.182 270.911 151.422 271.484C151.661 272.047 151.953 272.51 152.297 272.875C152.641 273.24 153.036 273.51 153.484 273.688C153.943 273.854 154.448 273.938 155 273.938C155.708 273.938 156.328 273.802 156.859 273.531C157.391 273.26 157.833 272.839 158.188 272.266C158.552 271.682 158.823 270.938 159 270.031C159.177 269.115 159.266 268.021 159.266 266.75ZM180.797 273.625V276H165.906V273.922L173.359 265.625C174.276 264.604 174.984 263.74 175.484 263.031C175.995 262.312 176.349 261.672 176.547 261.109C176.755 260.536 176.859 259.953 176.859 259.359C176.859 258.609 176.703 257.932 176.391 257.328C176.089 256.714 175.641 256.224 175.047 255.859C174.453 255.495 173.734 255.312 172.891 255.312C171.88 255.312 171.036 255.51 170.359 255.906C169.693 256.292 169.193 256.833 168.859 257.531C168.526 258.229 168.359 259.031 168.359 259.938H165.469C165.469 258.656 165.75 257.484 166.312 256.422C166.875 255.359 167.708 254.516 168.812 253.891C169.917 253.255 171.276 252.938 172.891 252.938C174.328 252.938 175.557 253.193 176.578 253.703C177.599 254.203 178.38 254.911 178.922 255.828C179.474 256.734 179.75 257.797 179.75 259.016C179.75 259.682 179.635 260.359 179.406 261.047C179.188 261.724 178.88 262.401 178.484 263.078C178.099 263.755 177.646 264.422 177.125 265.078C176.615 265.734 176.068 266.38 175.484 267.016L169.391 273.625H180.797ZM199.266 268.344V270.719H182.828V269.016L193.016 253.25H195.375L192.844 257.812L186.109 268.344H199.266ZM196.094 253.25V276H193.203V253.25H196.094Z" fill="#024B6D"></path></g><defs><clipPath id="clip0_8969_612"><rect width="332" height="276" fill="white"></rect></clipPath></defs></svg> 