<?xml version="1.0" encoding="UTF-8"?> <svg xmlns="http://www.w3.org/2000/svg" width="110" height="25" fill="none"><path d="M100.028 9.954h6.913c1.926 0 3.059.967 3.059 2.532 0 1.592-1.133 2.531-3.059 2.531h-6.913v6.854c0 2.247-.821 3.072-3.06 3.072h-18.95c-2.238 0-3.06-.825-3.06-3.072V12.97c0-2.161.907-3.043 3.117-3.043h16.799V5.063c-.454-.029-.879-.086-1.332-.086-6.034 0-12.068.029-18.102-.028-.963 0-1.501.284-1.955 1.194-2.747 5.603-5.58 11.178-8.356 16.78-.539 1.11-1.19 2.02-2.607 2.02-1.416 0-2.068-.882-2.606-1.99-2.21-4.466-4.448-8.903-6.685-13.368-.199-.398-.425-.797-.737-1.365-2.493 4.977-4.9 9.755-7.252 14.533-.595 1.195-1.218 2.219-2.776 2.19-1.502-.028-2.068-1.08-2.635-2.19-2.776-5.518-5.552-11.064-8.385-16.61-.227-.455-.793-1.08-1.218-1.08-4.986-.086-9.972-.057-15.1-.057v4.948h6.771c1.841 0 3.683-.028 5.524 0 1.615.029 2.578 1.053 2.578 2.56 0 1.508-.991 2.503-2.635 2.503-3.54.029-7.053 0-10.595 0h-1.756c0 2.503.029 4.92 0 7.366-.028 1.707-1.048 2.674-2.663 2.589-1.416-.086-2.294-1.053-2.323-2.646-.028-2.36 0-4.692 0-7.28H3.513C1.246 15.046 0 14.164 0 12.514s1.218-2.56 3.484-2.56h6.544V3.13c0-2.333.765-3.1 3.145-3.1 6.26 0 12.521.028 18.81-.029 1.53 0 2.436.569 3.088 1.934 2.181 4.494 4.447 8.93 6.685 13.367.199.427.425.825.737 1.423.311-.57.538-.996.765-1.422 2.181-4.324 4.334-8.647 6.487-12.998.567-1.166 1.162-2.276 2.72-2.276 1.558 0 2.153 1.053 2.747 2.219 2.125 4.295 4.278 8.59 6.431 12.884.227.455.482.91.822 1.564.311-.569.566-.967.793-1.422 2.21-4.408 4.447-8.817 6.6-13.254C70.567.626 71.473 0 73.088 0c7.96.057 15.92.028 23.88.028 2.239 0 3.06.825 3.06 3.072v6.854zm-19.915 5.148v4.779h14.788v-4.779H80.113z" fill="#000"></path></svg> 