<svg width="10" height="10" viewBox="0 0 10 10" fill="none" xmlns="http://www.w3.org/2000/svg">
<path d="M2.92922 0.0349689C2.39722 0.060069 2.03391 0.144969 1.71631 0.26977C1.38761 0.39787 1.10901 0.569771 0.831811 0.847972C0.55461 1.12617 0.383909 1.40497 0.256709 1.73417C0.133609 2.05248 0.0502083 2.41608 0.0267082 2.94838C0.00320812 3.48068 -0.0019919 3.65178 0.000608109 5.00959C0.00320812 6.36739 0.00920814 6.53759 0.0350082 7.07099C0.0604083 7.6029 0.145009 7.9661 0.269809 8.2838C0.398109 8.6125 0.56981 8.891 0.848111 9.1683C1.12641 9.4456 1.40501 9.6159 1.73501 9.7433C2.05301 9.8662 2.41672 9.95 2.94892 9.9733C3.48112 9.9966 3.65242 10.002 5.00983 9.9994C6.36723 9.9968 6.53813 9.9908 7.07143 9.9655C7.60473 9.9402 7.96603 9.855 8.28384 9.7308C8.61254 9.6022 8.89124 9.4308 9.16834 9.1524C9.44544 8.874 9.61604 8.595 9.74314 8.2656C9.86634 7.9476 9.95004 7.5839 9.97314 7.05209C9.99644 6.51839 10.0019 6.34799 9.99934 4.99039C9.99674 3.63278 9.99064 3.46258 9.96534 2.92938C9.94004 2.39618 9.85534 2.03408 9.73064 1.71617C9.60214 1.38747 9.43064 1.10917 9.15244 0.831672C8.87424 0.554171 8.59504 0.38367 8.26574 0.25687C7.94753 0.133769 7.58403 0.049869 7.05183 0.0268689C6.51963 0.00386882 6.34833 -0.0020312 4.99042 0.000568808C3.63252 0.00316882 3.46252 0.00896884 2.92922 0.0349689ZM2.98762 9.0738C2.50012 9.0526 2.23542 8.9716 2.05901 8.9038C1.82541 8.8138 1.65901 8.705 1.48321 8.5309C1.30741 8.3568 1.19941 8.1898 1.10821 7.9567C1.03971 7.7803 0.957211 7.5159 0.934411 7.02839C0.909611 6.50149 0.904411 6.34329 0.901511 5.00839C0.898611 3.67348 0.903711 3.51548 0.926811 2.98838C0.947611 2.50128 1.02911 2.23628 1.09681 2.05998C1.18681 1.82608 1.29521 1.65997 1.46971 1.48427C1.64421 1.30857 1.81071 1.20037 2.04401 1.10917C2.22022 1.04037 2.48462 0.958572 2.97192 0.935372C3.49922 0.910372 3.65722 0.905372 4.99192 0.902472C6.32663 0.899572 6.48503 0.904572 7.01253 0.927772C7.49963 0.948972 7.76473 1.02967 7.94083 1.09777C8.17454 1.18777 8.34084 1.29587 8.51654 1.47067C8.69224 1.64547 8.80054 1.81138 8.89174 2.04518C8.96064 2.22088 9.04244 2.48518 9.06544 2.97278C9.09054 3.50008 9.09624 3.65818 9.09864 4.99279C9.10104 6.32739 9.09634 6.48589 9.07324 7.01279C9.05194 7.5003 8.97114 7.7651 8.90324 7.9417C8.81324 8.1752 8.70474 8.3417 8.53014 8.5173C8.35554 8.6929 8.18924 8.8011 7.95583 8.8923C7.77983 8.961 7.51513 9.043 7.02823 9.0662C6.50093 9.091 6.34293 9.0962 5.00772 9.0991C3.67252 9.102 3.51502 9.0966 2.98772 9.0738M7.06373 2.32768C7.06393 2.44635 7.09932 2.56231 7.16542 2.66087C7.23152 2.75944 7.32537 2.83618 7.43509 2.88141C7.54482 2.92663 7.66549 2.9383 7.78184 2.91494C7.8982 2.89158 8.00501 2.83423 8.08878 2.75016C8.17254 2.66609 8.22949 2.55907 8.25242 2.44263C8.27536 2.32619 8.26325 2.20556 8.21762 2.096C8.172 1.98645 8.0949 1.89288 7.9961 1.82714C7.89729 1.7614 7.78121 1.72644 7.66253 1.72667C7.50344 1.72699 7.35098 1.79048 7.23869 1.90319C7.1264 2.01589 7.06347 2.16858 7.06373 2.32768ZM2.43272 5.00499C2.43552 6.42299 3.58712 7.5699 5.00483 7.5672C6.42253 7.5645 7.57023 6.41299 7.56753 4.99499C7.56483 3.57698 6.41293 2.42978 4.99502 2.43258C3.57712 2.43538 2.43002 3.58718 2.43272 5.00499ZM3.33332 5.00319C3.33267 4.67354 3.42978 4.35111 3.61238 4.07666C3.79497 3.80221 4.05485 3.58807 4.35915 3.46132C4.66345 3.33457 4.99851 3.3009 5.32194 3.36457C5.64538 3.42824 5.94267 3.58639 6.17622 3.81902C6.40978 4.05165 6.5691 4.34831 6.63405 4.67149C6.69901 4.99468 6.66666 5.32986 6.54112 5.63466C6.41557 5.93946 6.20246 6.20019 5.92874 6.38387C5.65501 6.56755 5.33297 6.66594 5.00332 6.66659C4.78444 6.66705 4.56761 6.62439 4.36522 6.54104C4.16283 6.45769 3.97884 6.33529 3.82376 6.18082C3.66868 6.02635 3.54555 5.84285 3.4614 5.64079C3.37725 5.43873 3.33373 5.22207 3.33332 5.00319Z" fill="white"/>
</svg>
