<svg width="11" height="10" viewBox="0 0 11 10" fill="none" xmlns="http://www.w3.org/2000/svg">
<path d="M8.60551 8.52067H7.10904V6.20021C7.10904 5.64687 7.09907 4.93456 6.33072 4.93456C5.55131 4.93456 5.43205 5.53744 5.43205 6.15993V8.52052H3.93557V3.74871H5.37219V4.40082H5.3923C5.53607 4.15742 5.74383 3.95719 5.99344 3.82145C6.24305 3.68572 6.52517 3.61955 6.80975 3.63001C8.32649 3.63001 8.60614 4.61784 8.60614 5.90294L8.60551 8.52067ZM2.24705 3.09643C2.07529 3.09646 1.90738 3.04606 1.76455 2.9516C1.62172 2.85715 1.5104 2.72287 1.44464 2.56576C1.37888 2.40865 1.36165 2.23577 1.39513 2.06896C1.4286 1.90216 1.51129 1.74893 1.63272 1.62865C1.75415 1.50837 1.90887 1.42645 2.07732 1.39324C2.24578 1.36003 2.42039 1.37703 2.57908 1.44209C2.73778 1.50714 2.87343 1.61733 2.96887 1.75871C3.06432 1.9001 3.11529 2.06634 3.11532 2.23641C3.11534 2.34933 3.09289 2.46115 3.04927 2.56548C3.00565 2.66981 2.9417 2.76461 2.86108 2.84447C2.78045 2.92433 2.68472 2.98769 2.57937 3.03092C2.47401 3.07415 2.36109 3.09641 2.24705 3.09643ZM2.99529 8.52067H1.49725V3.74871H2.99529V8.52067ZM9.35157 0.000681316H0.745278C0.549939 -0.00150137 0.361707 0.0731931 0.22196 0.208351C0.0822133 0.343509 0.002384 0.528072 0 0.721485V9.27837C0.00230241 9.47187 0.0820849 9.65656 0.221827 9.79186C0.361569 9.92716 0.549842 10.002 0.745278 9.99994H9.35157C9.5474 10.0024 9.73619 9.92775 9.87649 9.79245C10.0168 9.65716 10.0971 9.47226 10.0998 9.27837V0.720868C10.097 0.527071 10.0166 0.342298 9.87634 0.207143C9.73605 0.0719888 9.5473 -0.00249226 9.35157 6.36757e-05" fill="white"/>
</svg>
