<?xml version="1.0" encoding="UTF-8"?> <svg xmlns="http://www.w3.org/2000/svg" width="100" height="100" fill="none"><g clip-path="url(#clip0)"><path d="M50.008 100C22.332 100 0 77.605 0 49.883 0 22.268 22.457-.017 50.227 0 77.762.016 100.016 22.504 100 50.274 99.984 77.652 77.511 100 50.008 100zm-.047-2.946c25.92.062 46.999-20.953 47.093-46.968.11-25.905-20.922-47.03-46.937-47.14-25.951-.11-47.092 20.937-47.17 46.968C2.851 75.866 23.93 96.99 49.96 97.054z" fill="#000"></path><path d="M49.96 94.844C25.185 94.828 5.125 74.69 5.157 49.882 5.187 25.2 25.34 5.124 50.039 5.156c24.761.031 44.852 20.169 44.805 44.883-.047 24.777-20.122 44.82-44.883 44.805zM79.8 60.006c-19.825 1.035-39.587 2.053-59.349 3.072v10.578c.376 0 .69.016.988 0 4.325-.22 8.666-.439 12.991-.674 8.557-.454 17.114-.909 25.67-1.348 6.363-.329 12.725-.658 19.088-.956.502-.03.674-.188.674-.69-.016-3.165-.016-6.315-.016-9.48 0-.126-.015-.267-.047-.502zm-63.44-8.133c.205.313.283.517.424.658 1.034 1.16 2.492.58 3.746.815.03.36.047.658.062.956 1.787.36 2.32-.094 2.68-2.179h2.523v2.288h1.003c.815-.015 1.567-.767 1.567-1.567v-6.817c0-.14-.062-.282-.078-.439-.172-.015-.298-.031-.423-.031-1.489-.031-2.069.548-2.069 2.022v1.833h-2.617v-3.761c-1.081-.298-1.959-.063-2.476.862-.25.454-.517.47-.925.47h-8.462c-.267 0-.533.031-.91.047.518.862 1.16 1.254 2.038 1.254h7.287c.251 0 .517.031.768.063 0 .094-.015.172-.015.266h-8.118c.61.972 1.3 1.379 2.225 1.379h5.25c.204 0 .407.031.627.063 0 .078 0 .156-.016.235h-6.018c.58.893 1.207 1.3 2.116 1.3 1.144-.015 2.304 0 3.448 0 .172 0 .345.063.517.095 0 .062-.016.125-.016.188h-4.137zm63.016.062v-.22c.235-.015.47-.062.705-.062 1.097 0 2.194 0 3.291-.015.925-.016 1.599-.424 2.21-1.427h-6.221c0-.062 0-.14.015-.203h6.018c.925 0 1.614-.423 2.194-1.364h-9.325c0-.078 0-.14-.015-.22.313-.03.642-.093.956-.093 2.695 0 5.375-.016 8.07 0 .972 0 1.725-.36 2.351-1.332h-1.003c-2.868 0-5.751-.016-8.619.015-.454 0-.737-.11-1.034-.501-.815-1.113-2.351-1.254-3.385-.345-.455.392-.878.815-1.27 1.27-.971 1.112-.705 2.726.533 3.526.172.11.36.22.502.297-.36.298-.674.58-1.003.815-.674.47-.518.972-.079 1.505.83 1.018 2.351 1.19 3.338.282.455-.408.894-.564 1.458-.533.783.031 1.567.031 2.35 0 .91-.031 1.615-.439 2.21-1.363-1.52-.032-2.883-.032-4.247-.032zm.423 6.488a88890.241 88890.241 0 01-59.364 3.072v.972c19.825-1.035 39.587-2.053 59.364-3.072v-.972zM20.435 75.24c.314 0 .596.015.878 0 1.88-.094 3.761-.204 5.626-.298 7.585-.392 15.17-.768 22.755-1.16 9.81-.501 19.605-1.034 29.416-1.52.72-.031.846-.313.627-1.018-19.762 1.018-39.524 2.053-59.301 3.071v.925zm50.337-29.666c-1.88 0-3.73-.094-5.563.062-.439.032-1.128.862-1.144 1.348-.125 2.367-.047 4.749-.047 7.115 0 .094.063.188.11.313h4.701c1.614 0 2.304-.956 1.85-2.554-.486-.031-1.004-.047-1.286-.063.173-.768.314-1.473.502-2.335h-3.213v-1.3c.894 0 1.724.03 2.555-.016.297-.016.627-.188.893-.345.846-.517.737-1.332.642-2.225zm-13.947 2.962c-.815-.878-1.599-1.756-2.414-2.586-.188-.188-.69-.376-.752-.314-.407.44-.987.925-1.05 1.442-.266 2.257-.392 4.514-.564 6.786-.016.172.031.345.047.501 1.928.157 2.523-.344 2.617-2.194.016-.376.078-.736.141-1.347.392.501.658.83 1.035 1.316a215.7 215.7 0 011.849-2.1c.125 1.567.235 2.946.344 4.341.267.016.455.031.627.031 1.41.016 2.022-.627 1.912-2.037-.156-2.022-.297-4.059-.47-6.08-.015-.235-.14-.47-.22-.69-.219.125-.47.188-.642.36-.815.815-1.614 1.677-2.46 2.57zm-24.87 5.876c1.864 0 3.62.016 5.359-.015.203 0 .439-.126.627-.251.846-.549.909-1.363.705-2.304-.502-.031-1.003-.047-1.771-.094 1.05-.658.815-1.457.72-2.335h-2.961v-1.27c.877 0 1.677.032 2.476-.015.33-.016.674-.188.956-.376.83-.533.705-1.332.595-2.194-1.833 0-3.635-.094-5.422.063-.454.031-1.206.799-1.222 1.27-.126 2.475-.063 4.951-.063 7.521zm12.709-28.208a4.125 4.125 0 00-.063-.455c-.502-1.943-1.034-3.87-1.504-5.83-.142-.58-.392-.799-1.003-.767-.502.015-.721.172-.862.658-.517 1.896-1.066 3.792-1.568 5.547h-2.977V19.23H35.62v7.068c1.38 0 2.711-.047 4.028.015.736.032 1.144-.156 1.175-.924.047-1.066.846-.768 1.489-.847.752-.094.987.283 1.034.91.047.877.564.971 1.317.752zm23.742.047v-7.037c-.266-.015-.47-.015-.674-.047-.736-.11-1.144.11-1.254.925-.14 1.003-.423 1.99-.658 2.977-.078.36-.188.706-.344 1.254-.455-1.865-.847-3.495-1.254-5.156-.345 0-.611.032-.862 0-.752-.125-.925.22-.893.925.047 1.536.015 3.087.015 4.623v1.52h1.097v-5.219c.533 1.583.91 3.166 1.332 4.749.063.22.376.501.58.501.204 0 .517-.282.58-.501.282-1.003.502-2.022.752-3.04.141-.596.314-1.192.47-1.787.063.016.11.016.173.031v5.297c.329-.015.611-.015.94-.015zm-28.428 9.888c.454-2.319.925-4.607 1.379-6.91-1.05-.252-1.081-.236-1.238.752-.047.329-.11.673-.172 1.003-.189 1.065-.377 2.115-.565 3.18-.047 0-.094-.015-.14-.015-.298-1.661-.58-3.322-.878-5h-1.191c-.282 1.662-.58 3.323-.862 4.969-.392-1.364-.643-2.743-.862-4.122-.157-.972-.157-.987-1.27-.783.377 1.99.753 3.98 1.145 5.97.219 1.129.282 1.176 1.535.91.282-1.6.549-3.213.83-4.827.158.235.22.47.267.72.188 1.05.345 2.116.533 3.166.172 1.097.188 1.097 1.489.987zm7.648 14.747c.125-.11.219-.203.313-.282.956-.909 1.238-2.068.815-3.197-.439-1.144-1.41-1.802-2.742-1.833a51.106 51.106 0 00-2.194 0c-.91 0-1.662.736-1.662 1.645v7.286c.674-.11 1.364-.015 1.74-.329.501-.392.768-1.081 1.16-1.66.266.39.61.924.971 1.44.126.173.314.408.502.424 1.05.11 2.115.157 2.648-1.097-.501-.768-1.019-1.583-1.551-2.398zm3.84-24.651h1.05V21.25c.657 1.332 1.175 2.68 1.692 4.028.439 1.16.454 1.175 1.692.909v-7.02c-.376.015-.674.03-1.066.062v4.764c-.642-1.3-1.16-2.601-1.66-3.918-.408-1.019-.55-1.097-1.709-.752v6.911zm-2.775 9.873v-6.942H47.61v4.795c-.611-1.285-1.128-2.57-1.63-3.855-.439-1.113-.439-1.113-1.724-.94v6.958h1.035v-4.921c.642 1.3 1.16 2.633 1.66 3.965.455 1.128.455 1.128 1.74.94zm2.257-4.952c.063-.016.11-.016.172-.032.518 1.364 1.035 2.712 1.552 4.075.423 1.129.486 1.16 1.692.878v-6.911H53.33v4.685c-.658-1.238-1.16-2.523-1.645-3.792-.424-1.097-.533-1.16-1.724-.83v6.895h1.003c-.016-1.693-.016-3.338-.016-4.968zm10.516 5.015v-2.978c1.582-.282 1.943-.016 1.99 1.458 0 .156.015.313.015.47.048 1.128.142 1.207 1.317.956-.58-1.082.423-2.617-1.05-3.432.172-.141.33-.235.454-.377.847-.94.486-2.867-.642-3.055-1.019-.173-2.1-.032-3.134-.032v6.99h1.05zM60.24 19.197v1.254c0 1.364 0 2.711-.016 4.075-.015.595-.313.987-.94 1.018-.58.032-.94-.282-1.034-.846a8.425 8.425 0 01-.063-1.097V19.23H57.06c0 1.692-.016 3.338 0 4.968.016 1.504.674 2.178 2.131 2.21 1.458.015 2.163-.612 2.21-2.132.047-1.41.016-2.82.016-4.231v-.846H60.24zm-28.397 4.138c.502 0 .91.031 1.317 0 1.112-.11 1.77-.925 1.77-2.1 0-1.191-.595-1.928-1.723-2.022-.8-.063-1.599-.015-2.414-.015v7.052h1.066c-.016-.972-.016-1.897-.016-2.915zm23.79 12.803h3.808v-.924h-2.68V32.94h2.43v-.987h-2.414v-1.928h2.586v-.861h-3.746c.016 2.366.016 4.654.016 6.973zm-11.44-16.032a58.27 58.27 0 011.645.11v5.971c1.113.188 1.128.172 1.128-.784v-5.219c.612-.03 1.097-.046 1.583-.078v-.893h-4.356v.893zm6.08 6.144v-7.021h-1.019v7.02h1.02zm-8.227 2.899v7.005h1.003V29.15h-1.003z" fill="#000"></path><path d="M79.8 60.006c.03.235.047.36.047.502 0 3.165 0 6.315.015 9.481 0 .502-.172.674-.674.69-6.362.313-12.725.626-19.088.956-8.556.438-17.113.893-25.67 1.347-4.325.22-8.666.455-12.991.674-.314.016-.627 0-.988 0V63.078c19.762-1.019 39.508-2.037 59.348-3.072zm-20.577 10.28c.783.252 1.065-.046 1.112-.751.047-.549.157-1.082.251-1.63.267-1.74.533-3.48.815-5.219-.956-.11-.94-.11-1.066.721l-.517 3.589a.514.514 0 01-.25-.392c-.157-1.113-.298-2.225-.502-3.322-.031-.204-.33-.533-.47-.517-.22.03-.502.25-.611.47-.126.235-.11.564-.157.846l-.47 3.181h-.141a613.41 613.41 0 00-.674-4.403c-.345.03-.596.047-.956.078.407 2.554.815 5.062 1.207 7.522.752.188 1.097-.015 1.097-.72 0-.236.062-.47.11-.69.14-.894.297-1.802.438-2.696.047 0 .094.016.141.016.22 1.3.439 2.633.643 3.918zm8.682-.438c.078-1.379-.643-2.68.031-4.121.36-.753.125-1.803.031-2.712-.03-.266-.454-.69-.72-.705-.69-.063-1.38.063-2.1.11v7.647c.313-.015.564-.03.987-.046v-3.339c.094-.015.188-.015.298-.03.062.203.156.39.188.595.11.674.25 1.332.282 2.006.031.72.36.83 1.003.595zM31.39 71.744v-.329c-.015-1.222-.595-2.382.016-3.698.36-.768.094-1.85.047-2.79-.016-.235-.267-.627-.439-.642a15.506 15.506 0 00-2.257.047c-.078 0-.188.329-.188.517-.015.94-.015 1.88-.015 2.82v4.232h.893c.266-1.113-.157-2.257.392-3.307.282.847.47 1.709.533 2.57.062.768.391.847 1.018.58zm37.267-9.497v7.68c.752-.048 1.442-.016 2.084-.173.298-.078.69-.533.706-.815.062-2.006.03-4.012.03-6.018 0-.548-.313-.815-.83-.799-.658 0-1.3.063-1.99.125zm4.357 5.501c-.33.031-.611.063-.862.094-.141 1.41-.22 2.053 1.598 1.787.11-.016.204-.016.314-.016.61 0 .924-.313.924-.909.016-.862.016-1.724 0-2.586 0-.58-.313-.846-.893-.83-.33.015-.642 0-1.003 0v-2.304h.846c.047.298.094.548.141.846.314-.031.58-.047.847-.078.219-1.724.031-1.928-1.583-1.818-.157.016-.314.016-.47.047-.517.078-.784.36-.784.893v2.586c0 .596.298.846.878.83h1.003v2.304h-.862c-.032-.266-.063-.501-.094-.846zm-18.399-4.936c-.407.219-.924.36-.971.58-.47 2.397-.862 4.81-1.285 7.24.658.22 1.034.094 1.081-.643.031-.392.125-.768.188-1.19.36-.017.69-.032 1.003-.048.141.658.266 1.238.407 1.85.345-.032.612-.048.925-.079a923.178 923.178 0 00-1.348-7.71zm-19.464 8.744c.705.188 1.066.032 1.066-.658 0-.25.016-.548.141-.752.125-.22.392-.455.611-.486.173-.016.486.235.549.423.156.423.188.893.282 1.395.329-.016.595-.031.956-.047-.455-2.586-.894-5.078-1.395-7.836-.439.314-.925.455-.972.69-.423 2.413-.815 4.827-1.238 7.271zm27.206-8.995c-.439 2.554-.862 5.109-1.3 7.632.72.157 1.05 0 1.065-.658 0-.282.016-.611.157-.83.11-.189.391-.377.61-.393.173-.015.44.188.534.36.125.22.14.502.157.753.03.705.376.83 1.065.548-.439-2.476-.877-4.967-1.316-7.475a22.64 22.64 0 01-.972.063zm-19.056 1.003c0 .203-.016.36 0 .501.344 2.163.689 4.31 1.065 6.473.047.219.282.517.486.58.47.14.596-.189.658-.612.173-1.27.392-2.523.58-3.777.172-1.097.345-2.194.517-3.385-.407.047-.674.079-.956.11-.22 1.52-.439 2.962-.658 4.42-.047 0-.094-.016-.141-.016-.22-1.458-.439-2.9-.674-4.388-.36.031-.611.062-.877.094zm-15.406 2.695c.251-1.442.141-2.021-1.394-1.849-.188.016-.36 0-.549.016-.548.047-.862.344-.862.909 0 1.99-.015 3.965.016 5.955 0 .266.266.72.407.736.705.032 1.52.11 2.085-.203.36-.188.344-1.05.501-1.614-.125-.079-.235-.173-.36-.251-.251.204-.674.376-.706.595-.094.721-.47.596-.987.47 0-1.676.016-3.306-.015-4.952-.016-.752.329-.815.908-.642.047.282.079.548.126.815.298.015.548.015.83.015zm19.182-2.899v7.68c.94-.064 1.834-.11 2.759-.173a25.902 25.902 0 01-.063-.94h-1.708c-.235-2.038-.188-2.226.83-2.461v-.815c-.313-.031-.564-.047-.862-.078V64.3c.596-.062 1.16-.125 1.771-.188-.016-.329-.031-.595-.047-.909-.924.047-1.77.094-2.68.157zm-12.302.611c-.956.063-1.802.126-2.633.173v7.663c.925-.063 1.771-.11 2.633-.157v-.94h-1.677v-2.288c.314-.047.58-.094.847-.141v-.862a13.427 13.427 0 01-.847-.063v-2.303c.58-.047 1.113-.094 1.677-.157v-.925zm4.623.784v6.598c.705.172.988.03.972-.69-.047-1.583.016-3.181-.031-4.764-.016-.768-.016-1.426 1.018-1.317v-.94c-1.034.063-2.006.125-3.024.204.015.36.031.627.047.925.36-.016.627-.016 1.018-.016zm2.476 6.488c.721.172.972-.047.94-.737-.046-1.112-.015-2.24-.015-3.353v-3.558c-.376.032-.642.047-.925.063v7.585zM16.36 51.873h4.138c0-.063.016-.126.016-.188-.172-.032-.345-.094-.517-.094a126.191 126.191 0 00-3.448 0c-.893.015-1.536-.392-2.116-1.301h6.018c0-.078 0-.157.016-.235-.204-.016-.408-.063-.627-.063h-5.25c-.925 0-1.63-.407-2.225-1.379h8.118c0-.094.015-.172.015-.266-.25-.016-.517-.063-.768-.063h-7.287c-.877 0-1.52-.392-2.037-1.254.376-.016.642-.047.909-.047h8.462c.392 0 .674-.015.925-.47.517-.925 1.395-1.16 2.476-.862v3.761h2.617V47.58c0-1.473.58-2.053 2.069-2.022.125 0 .266.016.423.031.031.142.078.282.078.44 0 2.272.016 4.544 0 6.816 0 .815-.768 1.567-1.567 1.567h-1.003v-2.288h-2.523c-.36 2.1-.909 2.54-2.68 2.179-.015-.298-.047-.596-.062-.956-1.254-.25-2.712.345-3.746-.815-.125-.157-.22-.345-.423-.658zm10.736-1.066v2.288h.987v-7.224H27.08v3.808h-4.2v-3.871c-.392.016-.658.031-.909.047v7.287l.956-.047v-2.272c1.41-.016 2.727-.016 4.169-.016zm52.28 1.128h4.232c-.596.925-1.301 1.332-2.21 1.364-.784.031-1.567.031-2.35 0-.58-.032-1.02.125-1.458.533-.988.909-2.508.736-3.338-.282-.44-.533-.596-1.02.078-1.505.33-.235.642-.517 1.003-.815-.125-.078-.314-.188-.501-.298-1.254-.799-1.505-2.413-.533-3.526a12.15 12.15 0 011.269-1.27c1.034-.908 2.586-.767 3.385.346.282.392.58.517 1.034.501 2.868-.015 5.752-.015 8.62-.015h1.003c-.627.971-1.364 1.347-2.351 1.332h-8.07c-.314 0-.643.062-.957.094 0 .078 0 .14.016.219h9.325c-.58.94-1.27 1.364-2.195 1.364h-6.017c0 .062 0 .14-.016.203h6.222c-.612 1.003-1.301 1.41-2.21 1.426-1.097.016-2.194 0-3.291.016-.235 0-.47.047-.705.063.015.094.015.172.015.25zm-.36-4.732c-.517-1.129-1.473-1.583-2.508-1.27-1.018.298-1.614 1.3-1.441 2.382.156.94.862 1.458 2.053 1.724.376.078.814.486.94.83.094.267-.188.894-.455 1.004-.344.14-.987.094-1.238-.141-.532-.517-.799-.079-1.175.078.548 1.05 1.426 1.505 2.382 1.254 1.003-.267 1.63-1.097 1.583-2.132-.047-1.003-.737-1.755-1.818-1.943-.125-.031-.298.016-.376-.047-.314-.266-.768-.533-.846-.877-.063-.298.219-.862.485-.988.314-.14.8.032 1.191.126.11.03.173.297.22.407.47-.204.705-.298 1.003-.407zm.784 11.22v.972c-19.778 1.019-39.54 2.053-59.364 3.072v-.972c19.777-1.019 39.539-2.037 59.363-3.072zM20.436 75.24v-.91c19.777-1.019 39.554-2.053 59.3-3.072.22.706.095.988-.626 1.02-9.81.485-19.605 1.018-29.416 1.52-7.585.391-15.17.767-22.755 1.159-1.88.094-3.76.204-5.626.298-.282-.016-.564-.016-.877-.016zm50.337-29.667c.094.893.203 1.708-.643 2.225-.266.157-.58.33-.893.345-.83.047-1.661.016-2.555.016v1.3h3.213c-.188.862-.345 1.568-.501 2.335.297.016.799.048 1.285.063.454 1.614-.251 2.555-1.85 2.555h-4.701c-.047-.141-.11-.22-.11-.314 0-2.366-.078-4.748.047-7.115.032-.485.721-1.3 1.144-1.347 1.834-.157 3.683-.063 5.564-.063zm-.267 6.472h-4.09v-1.3h3.056l-.047-1.05h-3.01v-2.868h4.075v-.972h-5.108v7.225h5.108c.016-.33.016-.612.016-1.035zm-13.681-3.51c.846-.894 1.645-1.756 2.476-2.586.172-.173.423-.235.642-.36.079.235.204.454.22.689.172 2.022.313 4.059.47 6.08.11 1.41-.501 2.07-1.912 2.038-.172 0-.36-.016-.627-.032l-.345-4.34c-.658.752-1.19 1.363-1.849 2.1-.392-.486-.642-.816-1.034-1.317-.063.611-.125.972-.141 1.348-.11 1.849-.69 2.35-2.617 2.194-.016-.157-.063-.33-.047-.502.172-2.256.282-4.529.564-6.785.063-.518.642-1.003 1.05-1.442.078-.079.564.125.752.313.8.846 1.583 1.724 2.398 2.602zm2.163-.282c.14 1.755.282 3.306.407 4.81h1.019c-.188-2.397-.36-4.748-.565-7.27a1010.195 1010.195 0 01-2.977 3.18c-.987-1.05-1.912-2.053-2.978-3.18-.188 2.554-.376 4.904-.548 7.27h1.019c.125-1.582.266-3.134.407-4.826.768.83 1.426 1.536 2.1 2.257.69-.721 1.332-1.395 2.116-2.242zm-27.034 6.158c0-2.57-.062-5.046.063-7.522.016-.454.768-1.222 1.222-1.27 1.787-.14 3.59-.062 5.423-.062.125.862.235 1.661-.596 2.194-.282.188-.627.345-.956.376-.799.047-1.614.016-2.476.016v1.27h2.962c.094.877.33 1.676-.72 2.334.767.047 1.269.063 1.77.094.204.94.141 1.74-.705 2.304-.188.125-.408.235-.627.25-1.74.032-3.495.016-5.36.016zm2.398-2.334v-1.348h3.04v-1.035h-3.024v-2.867h4.043v-.988h-5.093v7.193h5.109v-.971c-1.38.016-2.696.016-4.075.016zm10.312-25.874c-.752.22-1.254.125-1.332-.753-.047-.626-.282-1.002-1.035-.909-.626.079-1.426-.219-1.488.847-.032.752-.44.956-1.176.924-1.316-.062-2.648-.015-4.027-.015v-7.068h1.065v6.127h2.978c.502-1.755 1.05-3.635 1.567-5.547.126-.486.345-.643.862-.659.611-.015.862.189 1.003.768.47 1.944 1.003 3.887 1.505 5.83.047.141.047.298.078.455zM42.893 23.6c-.266-1.128-.502-2.162-.752-3.212-.047 0-.079 0-.126.015-.25 1.05-.485 2.1-.752 3.197h1.63zm25.513 2.65h-.971v-5.297c-.063-.016-.11-.016-.173-.031-.156.595-.329 1.19-.47 1.786-.25 1.019-.47 2.037-.752 3.04-.063.22-.376.502-.58.502-.204 0-.517-.282-.58-.502-.423-1.582-.8-3.165-1.332-4.748v5.218h-1.097v-1.52c0-1.535.031-3.087-.016-4.623-.015-.69.141-1.034.894-.924.25.047.517 0 .862 0 .407 1.645.799 3.29 1.253 5.155.157-.548.267-.893.345-1.253.235-.988.517-1.975.658-2.978.11-.815.517-1.034 1.254-.924.204.03.407.03.674.047.031 2.35.031 4.654.031 7.052zm-28.428 9.889c-1.3.11-1.3.11-1.504-.988-.188-1.05-.36-2.115-.533-3.165-.047-.251-.11-.486-.267-.721-.282 1.614-.548 3.228-.83 4.827-1.238.266-1.317.235-1.536-.91-.376-1.99-.752-3.98-1.144-5.97 1.113-.204 1.097-.204 1.27.783.234 1.38.47 2.743.861 4.122.282-1.646.564-3.291.862-4.968h1.191c.298 1.677.58 3.338.878 5 .047 0 .094.015.14.015.189-1.066.377-2.116.565-3.181.063-.33.11-.674.172-1.003.157-.988.188-1.003 1.239-.753-.455 2.288-.91 4.592-1.364 6.912zm7.648 14.747c.533.814 1.05 1.63 1.551 2.397-.533 1.254-1.583 1.207-2.648 1.097-.173-.015-.376-.25-.502-.423-.376-.517-.72-1.066-.971-1.442-.377.58-.643 1.27-1.16 1.662-.392.297-1.066.219-1.74.329v-7.288c0-.909.737-1.645 1.662-1.645.736 0 1.457-.016 2.194 0 1.332.031 2.303.69 2.742 1.834.439 1.128.141 2.288-.815 3.197-.094.078-.188.172-.313.282zm-4.09-5.062v7.256h1.002v-1.944c1.16-.345 1.928-.031 2.351 1.019.047.125.141.22.204.329.501.752.533.768 1.551.502-.47-.721-.94-1.442-1.41-2.179.141-.125.235-.204.345-.282.956-.72 1.27-1.692.987-2.837-.25-1.034-1.175-1.786-2.35-1.864-.878-.047-1.756 0-2.68 0zm7.929-19.59v-6.927c1.16-.329 1.301-.266 1.708.753.518 1.3 1.02 2.617 1.662 3.917v-4.764c.392-.015.69-.031 1.065-.062v7.02c-1.222.267-1.253.251-1.676-.909-.518-1.347-1.035-2.71-1.693-4.027v4.983c-.376.016-.674.016-1.066.016zm-2.774 9.873c-1.3.204-1.3.204-1.723-.924-.502-1.333-1.019-2.665-1.662-3.965v4.92h-1.034V29.18c1.285-.188 1.285-.188 1.724.94.502 1.286 1.003 2.57 1.63 3.856V29.18h1.081c-.016 2.32-.016 4.623-.016 6.927zm2.257-4.952v4.983h-1.003v-6.895c1.176-.313 1.285-.266 1.724.83.502 1.27.987 2.555 1.646 3.793V29.18h1.034v6.911c-1.207.282-1.254.251-1.693-.877-.517-1.364-1.034-2.711-1.551-4.075-.047 0-.11 0-.157.016zm10.516 5.015h-1.066v-6.99c1.034 0 2.1-.14 3.134.032 1.129.188 1.49 2.115.643 3.056-.126.125-.282.235-.455.376 1.474.815.47 2.35 1.05 3.432-1.175.25-1.285.172-1.316-.956 0-.157-.016-.314-.016-.47-.047-1.473-.407-1.755-1.99-1.458.016.956.016 1.944.016 2.978zm.062-6.441v2.711c.674-.25 1.348-.33 1.74-.69.235-.219.25-1.112.031-1.332-.407-.36-1.065-.438-1.77-.69zm-1.285-10.531h1.176v.846c0 1.41.031 2.82-.016 4.231-.047 1.505-.752 2.147-2.21 2.131-1.441-.015-2.115-.705-2.13-2.21-.017-1.645 0-3.275 0-4.967h1.127V23.6c0 .36 0 .737.063 1.097.079.58.439.878 1.034.846.643-.03.94-.423.94-1.018.016-1.364.016-2.711.016-4.075v-1.253zm-28.396 4.137v2.9h-1.066v-7.053c.815 0 1.614-.047 2.413.016 1.129.094 1.724.83 1.724 2.021 0 1.191-.658 1.99-1.77 2.1-.392.047-.8.016-1.301.016zm.047-3.48v2.602c.642 0 1.347.22 1.645-.454.188-.423.235-1.16 0-1.442-.313-.392-.987-.454-1.645-.705zm23.742 16.284v-6.974h3.745v.862h-2.585v1.927h2.413v.988h-2.43v2.272h2.68v.925h-3.823zm-11.44-16.032v-.894h4.356v.894c-.485.031-.971.047-1.582.078v5.219c0 .956-.016.971-1.129.783v-5.97a58.27 58.27 0 01-1.645-.11zm6.08 6.143h-1.018v-7.021h1.018v7.02zm-8.227 2.899h1.003v7.005h-1.003V29.15z" fill="#fff"></path><path d="M59.223 70.287a496.53 496.53 0 00-.643-3.965c-.047 0-.094-.016-.14-.016-.142.894-.299 1.802-.44 2.696-.031.235-.11.47-.11.69 0 .705-.344.924-1.096.72-.392-2.46-.8-4.968-1.207-7.522.36-.032.611-.047.956-.078.22 1.488.454 2.946.674 4.403h.14c.157-1.066.314-2.115.47-3.181.048-.282.017-.596.158-.846.11-.22.391-.44.61-.47.142-.016.44.313.471.517.204 1.097.345 2.21.502 3.322.015.141.062.266.25.392.173-1.191.36-2.382.517-3.589.11-.83.11-.83 1.066-.72a593.924 593.924 0 01-.815 5.218c-.078.548-.204 1.081-.25 1.63-.048.752-.33 1.05-1.113.799zm8.682-.439c-.643.235-.972.125-1.019-.611-.031-.674-.172-1.348-.282-2.006-.031-.204-.125-.392-.188-.596-.094.016-.188.016-.298.032v3.338c-.423.031-.674.031-.987.047v-7.648c.72-.047 1.426-.172 2.1-.11.266.032.705.44.72.706.095.908.33 1.958-.03 2.71-.659 1.458.078 2.759-.016 4.138zm-.972-4.2v-2.35c-.329.03-.58.062-.83.093v2.257h.83zM31.39 71.744c-.627.267-.956.188-1.019-.595-.062-.862-.25-1.709-.532-2.57-.549 1.05-.141 2.194-.392 3.306h-.893v-4.231c0-.94-.016-1.88.015-2.821 0-.188.11-.517.188-.517.752-.063 1.505-.11 2.257-.047.172.015.423.407.439.642.047.94.313 2.022-.047 2.79-.627 1.316-.032 2.476-.016 3.698v.345zm-1.865-4.263c.079.063.141.126.22.189.25-.142.673-.267.69-.44.077-.657.03-1.331.03-1.958-.705-.188-1.003 0-.956.658.047.517.016 1.034.016 1.551zm39.132-5.234c.69-.047 1.332-.11 1.975-.14.532-.017.83.25.83.798 0 2.006.031 4.012-.031 6.018-.016.298-.408.752-.706.815-.642.157-1.331.126-2.084.173.016-2.57.016-5.078.016-7.664zm.956 6.802c.423-.267.862-.424.862-.58.047-1.755.031-3.526.031-5.36-.36.016-.627.031-.893.063v5.877zm3.401-1.301c.031.345.062.58.094.862h.862v-2.304h-1.003c-.58.016-.878-.25-.878-.83V62.89c0-.533.267-.815.784-.893l.47-.047c1.614-.11 1.802.094 1.583 1.817-.251.016-.518.047-.847.079-.047-.298-.094-.549-.14-.846h-.847v2.303c.345 0 .674.016 1.003 0 .58-.015.893.235.893.83a69.72 69.72 0 010 2.587c-.015.595-.329.909-.924.909-.11 0-.204 0-.314.015-1.833.267-1.755-.376-1.598-1.786.25-.047.533-.079.862-.11zm-18.399-4.936c.486 2.71.91 5.156 1.364 7.71-.314.031-.58.047-.925.078-.14-.61-.25-1.19-.407-1.849l-1.003.047c-.079.423-.173.815-.188 1.191-.047.737-.424.862-1.082.643.423-2.43.815-4.843 1.285-7.24.032-.236.565-.361.956-.58zm-.11 4.89c-.11-.612-.203-1.114-.297-1.615h-.125c-.079.517-.173 1.034-.267 1.598.25.016.423.016.69.016zm-19.354 3.854c.408-2.445.8-4.858 1.27-7.256.047-.235.517-.392.971-.69a1449 1449 0 001.395 7.836c-.36.016-.627.032-.956.047-.094-.501-.141-.971-.282-1.394-.063-.189-.376-.455-.548-.424-.236.032-.486.267-.612.486-.125.204-.14.502-.14.752-.032.674-.377.831-1.098.643zm1.724-4.592c-.094.58-.172 1.097-.25 1.63.736-.015.799-.517.25-1.63zm25.482-4.404c.345-.015.596-.03.972-.062.438 2.508.877 5 1.316 7.475-.69.282-1.034.173-1.066-.548-.015-.25-.03-.549-.156-.752-.094-.173-.36-.377-.533-.36a.848.848 0 00-.611.391c-.141.235-.157.549-.157.83 0 .643-.345.816-1.066.659.44-2.523.862-5.078 1.301-7.632zm.564 3.198h-.188c-.078.47-.14.956-.235 1.504.267-.016.455-.031.69-.047-.094-.533-.173-.987-.267-1.457zM43.3 63.564c.267-.032.518-.047.878-.094.22 1.488.455 2.93.674 4.388.047 0 .094.015.14.015.22-1.457.44-2.915.66-4.42.281-.03.548-.062.955-.109a237.46 237.46 0 00-.517 3.385c-.188 1.254-.408 2.523-.58 3.777-.063.423-.188.752-.658.611-.204-.062-.455-.36-.486-.58-.376-2.147-.72-4.31-1.066-6.472-.015-.14 0-.298 0-.501zM27.895 66.26h-.815c-.047-.267-.078-.534-.125-.816-.58-.172-.925-.11-.909.643.031 1.645.016 3.275.016 4.952.517.125.893.25.987-.47.031-.22.454-.408.705-.596.126.079.235.173.36.251-.156.564-.14 1.426-.5 1.614-.58.314-1.38.22-2.085.204-.157 0-.408-.47-.408-.737a251.303 251.303 0 01-.015-5.955c0-.564.313-.862.862-.909.188-.015.36 0 .548-.015 1.52-.204 1.63.391 1.38 1.833zm19.182-2.9c.91-.047 1.756-.11 2.696-.157.015.314.031.58.047.91-.611.062-1.176.125-1.771.187v2.273c.298.031.548.047.862.078v.815c-1.019.235-1.081.408-.83 2.46h1.707c.016.314.032.565.063.94-.925.063-1.818.11-2.758.173-.016-2.601-.016-5.078-.016-7.679zm-12.302.611v.94c-.564.047-1.097.094-1.677.157v2.304c.282.016.533.031.847.063v.861c-.251.047-.533.095-.847.142v2.288h1.677v.94c-.862.047-1.708.11-2.633.157v-7.664c.83-.062 1.677-.125 2.633-.188zm4.623.784h-1.003c-.016-.298-.031-.564-.047-.925 1.019-.063 1.99-.125 3.025-.203v.94c-1.035-.11-1.035.548-1.019 1.316.047 1.583-.016 3.181.031 4.764.016.721-.266.862-.971.69-.016-2.163-.016-4.326-.016-6.582zm2.476 6.488v-7.585c.282-.016.564-.047.925-.063v3.557c0 1.113-.032 2.241.016 3.354.047.69-.22.893-.94.737zM27.096 50.807h-4.153v2.273c-.345.015-.611.03-.956.047v-7.288c.25-.015.517-.031.909-.047v3.871h4.2v-3.808h1.003v7.225h-.987c-.016-.753-.016-1.52-.016-2.273zm51.92-3.604c-.298.11-.533.203-.972.376-.047-.094-.11-.376-.22-.408-.391-.11-.877-.282-1.19-.125-.282.125-.564.705-.486.987.078.345.533.596.846.878.079.063.251.031.376.047 1.066.203 1.771.94 1.818 1.943.047 1.034-.58 1.88-1.583 2.131-.956.251-1.818-.203-2.382-1.253.392-.157.643-.596 1.176-.079.25.235.893.298 1.238.141.266-.11.548-.736.454-1.003-.125-.36-.564-.752-.94-.83-1.207-.267-1.896-.784-2.053-1.724-.188-1.081.423-2.084 1.442-2.382 1.018-.298 1.959.172 2.476 1.3zm-8.51 4.842v1.035h-5.109v-7.225h5.11v.972h-4.075v2.867h3.009c.015.392.03.674.047 1.05h-3.056v1.301h4.074zm-11.518-3.792c-.784.83-1.426 1.52-2.116 2.256-.674-.736-1.332-1.426-2.1-2.256-.141 1.692-.267 3.244-.407 4.827h-1.02c.189-2.367.361-4.718.55-7.272 1.05 1.128 1.99 2.131 2.977 3.181.972-1.05 1.912-2.037 2.977-3.181.189 2.523.377 4.858.565 7.272h-1.019c-.125-1.52-.266-3.072-.407-4.827zm-24.636 3.824h4.059v.971h-5.109v-7.193h5.093v.987h-4.043v2.868h3.025v1.035h-3.04c.015.454.015.83.015 1.332zm8.541-28.476h-1.63c.267-1.097.502-2.147.752-3.197.047 0 .079 0 .126-.015.25 1.05.501 2.084.752 3.212zm.642 22.223c.925 0 1.803-.047 2.68.015 1.176.079 2.085.83 2.351 1.865.282 1.144-.031 2.116-.987 2.837-.094.078-.188.156-.345.282.486.736.94 1.442 1.41 2.178-1.034.267-1.05.25-1.551-.501-.078-.11-.157-.204-.204-.33-.423-1.034-1.19-1.363-2.35-1.018v1.943h-1.004v-7.271zm1.004 4.184c1.08-.11 2.21.329 2.899-.815.329-.564.313-1.16-.094-1.677-.752-1.003-1.818-.564-2.806-.642v3.134zm16.987-20.279c.706.25 1.364.329 1.756.705.235.22.22 1.097-.032 1.332-.392.376-1.05.439-1.74.69.016-.988.016-1.693.016-2.727zm-29.634-9.873c.658.25 1.332.329 1.645.705.25.282.188 1.034 0 1.442-.298.674-1.018.454-1.645.454v-2.601z" fill="#000"></path><path d="M66.933 65.648h-.83v-2.257c.266-.03.501-.062.83-.094v2.351zm-37.408 1.833c0-.517.032-1.034-.015-1.551-.048-.658.235-.83.955-.658 0 .627.047 1.3-.03 1.959-.016.172-.455.297-.69.439-.079-.063-.142-.126-.22-.189zm40.088 1.568v-5.893c.282-.015.533-.031.893-.063 0 1.85.016 3.605-.031 5.36 0 .188-.439.33-.862.596zm-15.107-1.348h-.69c.094-.564.172-1.081.266-1.598h.126c.094.485.188.987.298 1.598zm-17.631-.737c.549 1.113.486 1.615-.25 1.63.078-.533.156-1.05.25-1.63zm26.046-1.206c.078.47.173.924.267 1.457-.236.016-.424.032-.69.047.078-.548.157-1.034.235-1.504h.188zm-18.383-15.75v-3.134c.988.078 2.053-.36 2.806.642.391.533.423 1.129.094 1.677-.69 1.144-1.818.72-2.9.815zm1.724-.345c.016-1.034-.345-1.41-1.41-1.457v1.457h1.41z" fill="#fff"></path><path d="M46.262 49.663h-1.41v-1.457c1.066.047 1.426.423 1.41 1.457z" fill="#000"></path></g><defs><clipPath id="clip0"><path fill="#fff" d="M0 0h100v100H0z"></path></clipPath></defs></svg> 