<svg width="10" height="12" viewBox="0 0 10 12" fill="none" xmlns="http://www.w3.org/2000/svg">
<path d="M3.14543 7.57538L3.70028 7.44628C3.71049 7.44288 3.73091 7.43949 3.75474 7.43269C3.90792 7.39193 4.03727 7.29341 4.11897 7.15752C4.20067 7.02163 4.2279 6.86196 4.19045 6.70568C4.19045 6.70229 4.19045 6.69889 4.18705 6.69549C4.17003 6.62075 4.13599 6.55281 4.09174 6.48826C4.03047 6.41012 3.95217 6.34558 3.86707 6.29462C3.76495 6.23686 3.65603 6.1859 3.5471 6.14514L2.94119 5.92432C2.60079 5.79862 2.26039 5.67632 1.91659 5.55402C1.69192 5.47588 1.50471 5.40454 1.34131 5.35358C1.31068 5.34339 1.27664 5.3332 1.24941 5.3264C1.05197 5.26525 0.912411 5.24147 0.793272 5.23807C0.71498 5.23468 0.636688 5.24827 0.5618 5.27884C0.486913 5.31281 0.418833 5.36037 0.360965 5.42153C0.333733 5.4521 0.306501 5.48607 0.282673 5.52004C0.258845 5.55402 0.238421 5.59139 0.221401 5.62876C0.200977 5.66952 0.183957 5.71029 0.166937 5.75106C0.0546058 6.08399 -0.00326201 6.4339 0.000141979 6.78382C0.00354597 7.09976 0.010354 7.50743 0.183957 7.78261C0.224805 7.85395 0.282673 7.9151 0.350753 7.96266C0.476701 8.04759 0.602648 8.06118 0.732 8.06798C0.926027 8.08157 1.11665 8.03401 1.30727 7.98984L3.14543 7.57538Z" fill="white"/>
<path d="M9.32366 4.64016C9.17389 4.32421 8.96965 4.03545 8.72116 3.78405C8.69052 3.75348 8.65648 3.7229 8.61904 3.69572C8.585 3.67194 8.55096 3.64816 8.51351 3.62438C8.47607 3.604 8.43863 3.58701 8.40118 3.57002C8.32289 3.53945 8.24119 3.52586 8.1595 3.52926C8.08121 3.53265 8.00292 3.55644 7.93484 3.5938C7.82931 3.64476 7.71358 3.72969 7.5638 3.87238C7.54338 3.89276 7.51615 3.91654 7.49232 3.94032C7.36637 4.05923 7.22681 4.20191 7.06001 4.37177C6.80471 4.62996 6.54941 4.89155 6.30092 5.15314L5.85159 5.61856C5.7699 5.70349 5.69501 5.79522 5.62693 5.89374C5.56906 5.97527 5.52822 6.07039 5.50779 6.16552C5.49418 6.24026 5.49758 6.31839 5.5146 6.39313C5.5146 6.39653 5.5146 6.39993 5.518 6.40332C5.55204 6.5562 5.64735 6.69209 5.78011 6.77702C5.91287 6.86195 6.07285 6.89593 6.22944 6.86535C6.25326 6.86195 6.27369 6.85856 6.2839 6.85516L8.67691 6.30141C8.86412 6.25724 9.05815 6.21648 9.22495 6.12135C9.33728 6.05681 9.44621 5.98886 9.5211 5.85977C9.56194 5.78842 9.58577 5.70689 9.59258 5.62536C9.63002 5.29922 9.45982 4.92892 9.32366 4.64016Z" fill="white"/>
<path d="M5.03802 5.64575C5.21162 5.42832 5.21162 5.10559 5.22523 4.8372C5.27629 3.95052 5.33076 3.06724 5.37501 2.18056C5.39203 1.84423 5.42947 1.5147 5.40905 1.17498C5.39203 0.896401 5.39203 0.57706 5.21502 0.346048C4.90186 -0.0582243 4.23808 -0.0242519 3.78535 0.0368985C3.64578 0.057282 3.50622 0.0810627 3.37006 0.115035C3.2339 0.149008 3.09434 0.18298 2.96158 0.227144C2.52587 0.369828 1.91656 0.631416 1.81103 1.13081C1.75316 1.41278 1.88932 1.70155 1.99825 1.95974C2.1276 2.27228 2.30461 2.55426 2.468 2.84982C2.89691 3.62779 3.33262 4.39896 3.76833 5.17353C3.89768 5.40454 4.04065 5.69671 4.29254 5.81561C4.30956 5.8224 4.32658 5.8292 4.3436 5.83599C4.45593 5.88016 4.57848 5.88695 4.69762 5.85977C4.70442 5.85977 4.71123 5.85638 4.71804 5.85638C4.82697 5.8258 4.92568 5.76805 5.00057 5.68651C5.01078 5.67293 5.0244 5.65934 5.03802 5.64575Z" fill="white"/>
<path d="M4.83034 8.01702C4.76226 7.92189 4.66695 7.85055 4.55462 7.81318C4.44229 7.77581 4.32315 7.77581 4.21082 7.80978C4.18358 7.81998 4.15976 7.83017 4.13593 7.84036C4.09849 7.86074 4.06104 7.88113 4.027 7.9083C3.92829 7.98304 3.84319 8.07817 3.7683 8.17329C3.74787 8.19707 3.73085 8.23104 3.70703 8.25143L3.32238 8.7814C3.10452 9.07696 2.89007 9.37591 2.67562 9.67487C2.53605 9.86851 2.41691 10.035 2.3216 10.1811C2.30458 10.2082 2.28416 10.2388 2.26714 10.2626C2.1514 10.4393 2.09013 10.5683 2.05609 10.6805C2.03226 10.7552 2.02205 10.8367 2.03226 10.9149C2.04248 10.9964 2.06971 11.0779 2.11396 11.1493C2.13779 11.1866 2.16162 11.2206 2.18885 11.2512C2.21608 11.2818 2.24671 11.3123 2.27735 11.3429C2.31139 11.3735 2.34543 11.4041 2.38287 11.4278C2.64839 11.6113 2.94113 11.7438 3.24749 11.8491C3.50279 11.934 3.7683 11.985 4.03381 11.9986C4.07806 12.002 4.12572 11.9986 4.16997 11.9952C4.21082 11.9918 4.25507 11.985 4.29592 11.9782C4.33676 11.968 4.37761 11.9578 4.41846 11.9442C4.49675 11.9137 4.56824 11.8695 4.6261 11.8117C4.68397 11.754 4.72482 11.686 4.75205 11.6113C4.7963 11.4992 4.82694 11.3599 4.84396 11.1527C4.84396 11.1221 4.85077 11.0881 4.85417 11.0542C4.86779 10.8809 4.878 10.6771 4.88821 10.4392C4.90863 10.0723 4.92225 9.70545 4.93246 9.33854L4.95629 8.68627C4.9631 8.53679 4.95629 8.37033 4.91544 8.22085C4.89842 8.14951 4.87119 8.08156 4.83034 8.01702Z" fill="white"/>
<path d="M9.17742 9.03959C9.09572 8.95126 8.98339 8.86293 8.80298 8.75422C8.77575 8.74063 8.74511 8.72025 8.71788 8.70326C8.56811 8.61494 8.38769 8.51981 8.17665 8.40431C7.85327 8.22765 7.52989 8.05439 7.20311 7.88453L6.62443 7.57878C6.59379 7.56858 6.56316 7.5482 6.53592 7.53461C6.42359 7.48026 6.30786 7.43269 6.18531 7.40891C6.14446 7.40212 6.10021 7.39532 6.05937 7.39532C6.03213 7.39532 6.0049 7.39532 5.97767 7.39872C5.86193 7.41571 5.75641 7.47006 5.67131 7.5516C5.58961 7.63313 5.53175 7.73845 5.51473 7.85395C5.50451 7.92869 5.50792 8.00003 5.52153 8.07477C5.54877 8.22765 5.61685 8.38053 5.68833 8.51302L5.99809 9.09055C6.16829 9.41668 6.3419 9.73942 6.52231 10.0622C6.63804 10.2728 6.73336 10.4528 6.82186 10.6023C6.83888 10.6295 6.8593 10.6601 6.87292 10.6873C6.98185 10.8673 7.07035 10.9794 7.15885 11.061C7.21672 11.1153 7.2848 11.1595 7.35969 11.1833C7.43798 11.2104 7.52308 11.2172 7.60478 11.2104C7.64562 11.207 7.68988 11.1968 7.73072 11.19C7.77157 11.1799 7.81242 11.1663 7.84986 11.1493C7.89412 11.1323 7.93496 11.1153 7.97241 11.0915C8.20728 10.959 8.42173 10.7994 8.61576 10.6125C8.84723 10.3849 9.04807 10.1403 9.20806 9.85833C9.22848 9.81756 9.2489 9.77679 9.26592 9.73263C9.27954 9.69186 9.29316 9.65449 9.30337 9.61372C9.31358 9.57296 9.32039 9.52879 9.32379 9.48803C9.3306 9.40649 9.32039 9.32156 9.29656 9.24343C9.27614 9.16529 9.23188 9.09734 9.17742 9.03959Z" fill="white"/>
</svg>
