<svg width="12" height="9" viewBox="0 0 12 9" fill="none" xmlns="http://www.w3.org/2000/svg">
<path d="M4.77273 5.99087V2.43465L7.90909 4.21284L4.77273 5.99087ZM11.7492 1.31567C11.6112 0.797773 11.2046 0.38995 10.6883 0.25154C9.75252 -2.82083e-06 6 -2.95043e-06 6 -2.95043e-06C6 -2.95043e-06 2.2475 -2.82083e-06 1.31167 0.25154C0.795382 0.38995 0.388743 0.797773 0.250754 1.31567C0 2.25432 0 4.21276 0 4.21276C0 4.21276 0 6.17118 0.250754 7.10986C0.388743 7.62775 0.795382 8.03557 1.31167 8.17404C2.2475 8.42553 6 8.42553 6 8.42553C6 8.42553 9.75252 8.42553 10.6883 8.17404C11.2046 8.03557 11.6112 7.62775 11.7492 7.10986C12 6.17118 12 4.21276 12 4.21276C12 4.21276 12 2.25432 11.7492 1.31567Z" fill="white"/>
</svg>
